<?xml version="1.0" standalone="no"?>
<!-- Generator: Gravit.io -->
<svg xmlns="http://www.w3.org/2000/svg" xmlns:xlink="http://www.w3.org/1999/xlink" style="isolation:isolate" viewBox="0 0 24 24" width="24" height="24">
  <defs>
    <clipPath id="_clipPath_6iZHVZDFJgn4ui2ub4e6nd2Ngx5kr5bk"><rect width="24" height="24"/></clipPath>
  </defs>
  <g clip-path="url(#_clipPath_6iZHVZDFJgn4ui2ub4e6nd2Ngx5kr5bk)">
    <g id="Group"><path d=" M 0 6.384292 L 23.999953 6.384292 L 23.999953 4.551765 C 23.999953 4.323249 23.814657 4.137953 23.586141 4.137953 L 0.413812 4.137953 C 0.185297 4.137953 0 4.323249 0 4.551765 L 0 6.384292 Z " fill="rgb(115,175,0)"/><rect x="0" y="6.384" width="24" height="2.246" transform="matrix(1,0,0,1,0,0)" fill="rgb(245,245,245)"/><rect x="0" y="8.631" width="24" height="2.246" transform="matrix(1,0,0,1,0,0)" fill="rgb(115,175,0)"/><rect x="0" y="10.877" width="24" height="2.246" transform="matrix(1,0,0,1,0,0)" fill="rgb(245,245,245)"/><rect x="0" y="13.124" width="24" height="2.246" transform="matrix(1,0,0,1,0,0)" fill="rgb(115,175,0)"/><rect x="0" y="15.369" width="24" height="2.246" transform="matrix(1,0,0,1,0,0)" fill="rgb(245,245,245)"/><path d=" M 0.413812 19.862047 L 23.586188 19.862047 C 23.814703 19.862047 24 19.676751 24 19.448235 L 24 17.615708 L 0 17.615708 L 0 19.448235 C 0 19.676798 0.185297 19.862047 0.413812 19.862047 Z " fill="rgb(115,175,0)"/><path
      d=" M 0.413812 10.876877 L 11.586165 10.876877 C 11.81468 10.876877 11.999977 10.691581 11.999977 10.463066 L 11.999977 4.551765 C 11.999977 4.323249 11.81468 4.137953 11.586165 4.137953 L 0.413812 4.137953 C 0.185297 4.137953 0 4.323249 0 4.551765 L 0 10.463066 C 0 10.691581 0.185297 10.876877 0.413812 10.876877 Z "
      fill="rgb(255,75,85)"/>
      <g id="Group"><path
        d=" M 6.363222 10.344847 L 5.696051 10.344847 C 5.635395 10.344847 5.581067 10.307066 5.56002 10.25016 L 5.345193 9.670223 C 5.261333 9.443817 5.223693 9.20288 5.234474 8.961709 L 5.309287 7.286634 C 5.311208 7.244119 5.33849 7.206947 5.378474 7.192416 L 5.378474 7.192416 C 5.447099 7.167431 5.519755 7.218291 5.519755 7.291369 L 5.519755 8.054164 C 5.519755 8.075492 5.537052 8.092789 5.55838 8.092789 L 5.55838 8.092789 C 5.578958 8.092789 5.595927 8.076664 5.596958 8.056086 L 5.656911 6.839776 C 5.659348 6.79037 5.696473 6.749682 5.745411 6.742698 L 5.745411 6.742698 C 5.806067 6.734026 5.86091 6.779823 5.863207 6.841135 L 5.904598 7.975086 C 5.905442 7.997867 5.925598 8.015023 5.948192 8.012164 L 5.948192 8.012164 C 5.967316 8.009773 5.981801 7.993695 5.982176 7.974383 L 6.007066 6.714338 C 6.008426 6.645526 6.076113 6.597761 6.14141 6.619511 L 6.14141 6.619511 C 6.181394 6.63287 6.20905 6.669339 6.211066 6.711432 L 6.272566 7.985023 C 6.273222 7.99918 6.281519 8.011883 6.294175 8.018211 L 6.294175 8.018211 C 6.319769 8.031055 6.35005 8.013008 6.350894 7.98432 L 6.381738 6.99751 C 6.384081 6.922979 6.462128 6.875401 6.52944 6.907463 L 6.52944 6.907463 C 6.563425 6.923635 6.585925 6.957057 6.588128 6.99465 L 6.65994 8.205804 L 6.85208 8.766288 C 6.862908 8.797788 6.907112 8.79835 6.918549 8.767131 C 6.972971 8.618585 7.096486 8.341179 7.294673 8.219023 C 7.329783 8.197414 7.374782 8.200179 7.407782 8.224929 L 7.407782 8.224929 C 7.456298 8.261351 7.46197 8.331523 7.420486 8.375726 C 7.323876 8.478569 7.183017 8.69471 7.193189 9.074724 C 7.194502 9.123099 7.180486 9.170631 7.151892 9.209677 L 6.610487 9.94927 C 6.5563 10.023332 6.521519 10.109816 6.509378 10.2008 L 6.50694 10.218941 C 6.497472 10.291035 6.435972 10.344847 6.363222 10.344847 Z "
        fill="rgb(245,245,245)"/><path
        d=" M 6.031441 4.70467 L 6.140144 5.030639 L 6.483737 5.033264 C 6.510362 5.033451 6.521378 5.067435 6.499956 5.083279 L 6.223535 5.287372 L 6.327175 5.614981 C 6.335191 5.640387 6.306316 5.661387 6.28466 5.645872 L 6.005098 5.446044 L 5.725536 5.645872 C 5.703879 5.661341 5.675005 5.640341 5.68302 5.614981 L 5.786661 5.287372 L 5.510239 5.083279 C 5.488817 5.067435 5.499833 5.033451 5.526458 5.033264 L 5.870051 5.030639 L 5.978754 4.70467 C 5.987238 4.679405 6.023004 4.679405 6.031441 4.70467 Z "
        fill="rgb(245,245,245)"/><path
        d=" M 4.415054 5.173701 L 4.523757 5.499669 L 4.86735 5.502294 C 4.893975 5.502481 4.90499 5.536466 4.883569 5.552309 L 4.607147 5.756403 L 4.710788 6.084012 C 4.718803 6.109418 4.689928 6.130418 4.668272 6.114902 L 4.38871 5.915074 L 4.109148 6.114902 C 4.087492 6.130371 4.058617 6.109371 4.066633 6.084012 L 4.170273 5.756403 L 3.893852 5.552309 C 3.87243 5.536466 3.883446 5.502481 3.91007 5.502294 L 4.253664 5.499669 L 4.362366 5.173701 C 4.370945 5.148388 4.406616 5.148388 4.415054 5.173701 Z "
        fill="rgb(245,245,245)"/><path
        d=" M 7.68711 5.173701 L 7.795813 5.499669 L 8.139406 5.502294 C 8.166031 5.502481 8.177047 5.536466 8.155625 5.552309 L 7.879203 5.756403 L 7.982844 6.084012 C 7.990859 6.109418 7.961984 6.130418 7.940328 6.114902 L 7.660766 5.915074 L 7.381204 6.114902 C 7.359548 6.130371 7.330673 6.109371 7.338689 6.084012 L 7.442329 5.756403 L 7.165908 5.552309 C 7.144486 5.536466 7.155502 5.502481 7.182127 5.502294 L 7.52572 5.499669 L 7.634423 5.173701 C 7.643001 5.148388 7.678673 5.148388 7.68711 5.173701 Z "
        fill="rgb(245,245,245)"/><path
        d=" M 8.771139 6.40623 L 8.879842 6.732198 L 9.223435 6.734823 C 9.25006 6.73501 9.261076 6.768995 9.239654 6.784838 L 8.963232 6.988932 L 9.066873 7.31654 C 9.074889 7.341947 9.046014 7.362947 9.024357 7.347431 L 8.744795 7.147603 L 8.465233 7.347431 C 8.443577 7.3629 8.414702 7.3419 8.422718 7.31654 L 8.526358 6.988932 L 8.249937 6.784838 C 8.228515 6.768995 8.239531 6.73501 8.266156 6.734823 L 8.609749 6.732198 L 8.718452 6.40623 C 8.72703 6.380964 8.762702 6.380964 8.771139 6.40623 Z "
        fill="rgb(245,245,245)"/><path
        d=" M 3.240884 6.40623 L 3.349587 6.732198 L 3.69318 6.734823 C 3.719805 6.73501 3.730821 6.768995 3.709399 6.784838 L 3.432978 6.988932 L 3.536618 7.31654 C 3.544634 7.341947 3.515759 7.362947 3.494103 7.347431 L 3.214541 7.147603 L 2.934979 7.347431 C 2.913322 7.3629 2.884447 7.3419 2.892463 7.31654 L 2.996104 6.988932 L 2.719682 6.784838 C 2.69826 6.768995 2.709276 6.73501 2.735901 6.734823 L 3.079494 6.732198 L 3.188197 6.40623 C 3.196681 6.380964 3.232447 6.380964 3.240884 6.40623 Z "
        fill="rgb(245,245,245)"/><path
        d=" M 9.082951 8.022992 L 9.191654 8.34896 L 9.535247 8.351585 C 9.561872 8.351773 9.572888 8.385757 9.551466 8.401601 L 9.275044 8.605694 L 9.378685 8.933303 C 9.3867 8.958709 9.357825 8.979709 9.336169 8.964193 L 9.056607 8.764366 L 8.777045 8.964193 C 8.755389 8.979662 8.726514 8.958662 8.73453 8.933303 L 8.83817 8.605694 L 8.561749 8.401601 C 8.540327 8.385757 8.551343 8.351773 8.577968 8.351585 L 8.921561 8.34896 L 9.030264 8.022992 C 9.038748 7.997727 9.074514 7.997727 9.082951 8.022992 Z "
        fill="rgb(245,245,245)"/><path
        d=" M 2.819619 8.022992 L 2.928322 8.34896 L 3.271915 8.351585 C 3.29854 8.351773 3.309556 8.385757 3.288134 8.401601 L 3.011713 8.605694 L 3.115353 8.933303 C 3.123369 8.958709 3.094494 8.979709 3.072838 8.964193 L 2.793276 8.764366 L 2.513714 8.964193 C 2.492058 8.979662 2.463183 8.958662 2.471198 8.933303 L 2.574839 8.605694 L 2.298417 8.401601 C 2.276996 8.385757 2.288011 8.351773 2.314636 8.351585 L 2.658229 8.34896 L 2.766932 8.022992 C 2.775463 7.997727 2.811182 7.997727 2.819619 8.022992 Z "
        fill="rgb(245,245,245)"/></g>
    </g>
  </g>
</svg>