<?xml version="1.0" standalone="no"?><!-- Generator: Gravit.io --><svg xmlns="http://www.w3.org/2000/svg" xmlns:xlink="http://www.w3.org/1999/xlink" style="isolation:isolate" viewBox="0 0 24 24" width="24" height="24"><defs><clipPath id="_clipPath_l3fZ22dm5YTWgZ2Nm6lsCKJ5NaIcNJ6F"><rect width="24" height="24"/></clipPath></defs><g clip-path="url(#_clipPath_l3fZ22dm5YTWgZ2Nm6lsCKJ5NaIcNJ6F)"><g id="South Africa"><path d=" M 0 7.034484 L 0 16.965516 L 6.620672 12 L 0 7.034484 Z " fill="rgb(70,70,85)"/><path d=" M 3.310359 4.137937 L 10.758656 9.931031 L 24 9.931031 L 24 4.551703 C 24 4.323187 23.814703 4.137891 23.586188 4.137891 L 3.310359 4.137891 L 3.310359 4.137937 Z " fill="rgb(255,75,85)"/><path d=" M 3.310359 19.862063 L 10.758656 14.068969 L 24 14.068969 L 24 19.448297 C 24 19.676813 23.814703 19.862109 23.586188 19.862109 L 3.310359 19.862109 L 3.310359 19.862063 Z " fill="rgb(65,71,155)"/><path d=" M 2.666672 4.137937 L 0.413813 4.137937 C 0.185297 4.137937 0 4.323187 0 4.551703 L 0 6.249047 L 7.264406 12 L 0 17.751094 L 0 19.44825 C 0 19.676766 0.185297 19.862063 0.413813 19.862063 L 2.666438 19.862063 L 10.506891 13.655156 L 24 13.655156 L 24 10.344844 L 10.506938 10.344844 L 2.666672 4.137937 Z " fill="rgb(115,175,0)"/><path d=" M 3.999984 4.137937 L 2.666672 4.137937 L 10.506938 10.344844 L 24 10.344844 L 24 9.517219 L 10.794891 9.517219 L 3.999984 4.137937 Z " fill="rgb(245,245,245)"/><path d=" M 0 6.249047 L 0 7.304578 L 5.931094 12 L 0 16.695609 L 0 17.751094 L 7.264406 12 L 0 6.249047 Z " fill="rgb(255,225,90)"/><path d=" M 10.506891 13.655156 L 2.666438 19.862063 L 3.999797 19.862063 L 10.794797 14.482781 L 24 14.482781 L 24 13.655156 L 10.506891 13.655156 Z " fill="rgb(245,245,245)"/></g></g></svg>