<?xml version="1.0" encoding="UTF-8" standalone="no"?>
<!-- Generator: Adobe Illustrator 19.0.0, SVG Export Plug-In . SVG Version: 6.00 Build 0)  -->

<svg
   xmlns:dc="http://purl.org/dc/elements/1.1/"
   xmlns:cc="http://creativecommons.org/ns#"
   xmlns:rdf="http://www.w3.org/1999/02/22-rdf-syntax-ns#"
   xmlns:svg="http://www.w3.org/2000/svg"
   xmlns="http://www.w3.org/2000/svg"
   xmlns:sodipodi="http://sodipodi.sourceforge.net/DTD/sodipodi-0.dtd"
   xmlns:inkscape="http://www.inkscape.org/namespaces/inkscape"
   version="1.1"
   id="Layer_1"
   x="0px"
   y="0px"
   viewBox="0 0 24.000001 24.000001"
   xml:space="preserve"
   sodipodi:docname="am.svg"
   width="24"
   height="24"
   inkscape:version="0.92.1 r15381"><metadata
     id="metadata367"><rdf:RDF><cc:Work
         rdf:about=""><dc:format>image/svg+xml</dc:format><dc:type
           rdf:resource="http://purl.org/dc/dcmitype/StillImage" /><dc:title></dc:title></cc:Work></rdf:RDF></metadata><defs
     id="defs365" /><sodipodi:namedview
     pagecolor="#ffffff"
     bordercolor="#666666"
     borderopacity="1"
     objecttolerance="10"
     gridtolerance="10"
     guidetolerance="10"
     inkscape:pageopacity="0"
     inkscape:pageshadow="2"
     inkscape:window-width="1440"
     inkscape:window-height="825"
     id="namedview363"
     showgrid="false"
     inkscape:zoom="1.1953102"
     inkscape:cx="141.38589"
     inkscape:cy="-11.712441"
     inkscape:window-x="0"
     inkscape:window-y="0"
     inkscape:window-maximized="1"
     inkscape:current-layer="Layer_1" /><g
     id="g4061"
     transform="scale(0.04687491)"><path
       id="path318"
       d="M 512,200.093 H 0 V 97.104 c 0,-4.875 3.953,-8.828 8.828,-8.828 h 494.345 c 4.875,0 8.828,3.953 8.828,8.828 z"
       style="fill:#73af00"
       inkscape:connector-curvature="0" /><path
       id="path320"
       d="M 503.172,423.725 H 8.828 C 3.953,423.725 0,419.772 0,414.897 V 311.909 h 512 v 102.988 c 0,4.876 -3.953,8.828 -8.828,8.828 z"
       style="fill:#ff4b55"
       inkscape:connector-curvature="0" /><rect
       id="rect322"
       height="111.81"
       width="512"
       style="fill:#ffe15a"
       y="200.091"
       x="0" /><path
       id="path324"
       d="m 361.945,256.099 c 0,58.426 -47.435,105.945 -105.945,105.945 -58.51,0 -105.945,-47.519 -105.945,-105.945 0,-58.594 47.435,-106.029 105.945,-106.029 58.51,0 105.945,47.435 105.945,106.029 z"
       style="fill:#4173cd"
       inkscape:connector-curvature="0" /><g
       id="g330"><path
         id="path326"
         d="m 175.42,229.464 h 61.556 l 13.929,-42.867 3.699,11.498 -20.228,62.316 -6.026,-4.396 6.301,-19.362 h -49.506 z m 30.756,94.785 19.025,-58.51 -36.462,-26.551 h 12.026 l 52.995,38.473 -6.024,4.396 -16.509,-12.007 -15.325,47.181 z m 99.646,0 -49.822,-36.187 -36.442,26.464 3.721,-11.329 52.952,-38.558 2.262,7.102 -16.468,11.923 40.057,29.172 z m 30.756,-94.785 -49.781,36.274 13.931,42.869 -9.724,-7.104 -20.209,-62.316 h 7.399 l 6.298,19.448 40.079,-29.172 h 12.006 v 0.001 z M 256,170.954 l 19.025,58.51 h 45.088 l -9.745,7.189 h -65.487 l 2.305,-7.189 h 20.418 l -15.325,-47.096 z"
         style="fill:#f2dd30"
         inkscape:connector-curvature="0" /><path
         id="path328"
         d="m 257.775,340.823 h -3.53 v -45.912 h 3.53 z m 78.276,-56.991 -43.651,-14.12 1.1,-3.297 43.672,14.12 z m -160.123,0 -1.1,-3.297 43.692,-14.12 1.08,3.297 z m 104.361,-58.173 -2.877,-2.028 26.995,-37.12 2.812,2.03 z m -48.513,0 -27.038,-37.118 2.855,-2.03 26.973,37.12 z"
         style="fill:#f2dd30"
         inkscape:connector-curvature="0" /></g><g
       id="g332" /><g
       id="g334" /><g
       id="g336" /><g
       id="g338" /><g
       id="g340" /><g
       id="g342" /><g
       id="g344" /><g
       id="g346" /><g
       id="g348" /><g
       id="g350" /><g
       id="g352" /><g
       id="g354" /><g
       id="g356" /><g
       id="g358" /><g
       id="g360" /></g></svg>