<?xml version="1.0" standalone="no"?><!-- Generator: Gravit.io --><svg xmlns="http://www.w3.org/2000/svg" xmlns:xlink="http://www.w3.org/1999/xlink" style="isolation:isolate" viewBox="0 0 24 24" width="24" height="24"><defs><clipPath id="_clipPath_UMYv1MjhFJaTiQ4W6wQaTkgYRR31B9VC"><rect width="24" height="24"/></clipPath></defs><g clip-path="url(#_clipPath_UMYv1MjhFJaTiQ4W6wQaTkgYRR31B9VC)"><g id="Austria"><path d=" M 24 9.379 L 0 9.379 L 0 4.552 C 0 4.323 0.185 4.138 0.414 4.138 L 23.586 4.138 C 23.815 4.138 24 4.323 24 4.552 L 24 9.379 L 24 9.379 Z " fill="rgb(255,75,85)"/><path d=" M 23.586 19.862 L 0.414 19.862 C 0.185 19.862 0 19.677 0 19.448 L 0 14.621 L 24 14.621 L 24 19.448 C 24 19.677 23.815 19.862 23.586 19.862 Z " fill="rgb(255,75,85)"/><rect x="0" y="9.379" width="24" height="5.241" transform="matrix(1,0,0,1,0,0)" fill="rgb(245,245,245)"/></g></g></svg>