<?xml version="1.0" encoding="UTF-8" standalone="no"?>
<!-- Generator: Adobe Illustrator 19.0.0, SVG Export Plug-In . SVG Version: 6.00 Build 0)  -->

<svg
   xmlns:dc="http://purl.org/dc/elements/1.1/"
   xmlns:cc="http://creativecommons.org/ns#"
   xmlns:rdf="http://www.w3.org/1999/02/22-rdf-syntax-ns#"
   xmlns:svg="http://www.w3.org/2000/svg"
   xmlns="http://www.w3.org/2000/svg"
   xmlns:sodipodi="http://sodipodi.sourceforge.net/DTD/sodipodi-0.dtd"
   xmlns:inkscape="http://www.inkscape.org/namespaces/inkscape"
   version="1.1"
   id="Layer_1"
   x="0px"
   y="0px"
   viewBox="0 0 24.000001 24.000001"
   xml:space="preserve"
   sodipodi:docname="es_AR.svg"
   width="24"
   height="24"
   inkscape:version="0.92.1 r15381"><metadata
     id="metadata4321"><rdf:RDF><cc:Work
         rdf:about=""><dc:format>image/svg+xml</dc:format><dc:type
           rdf:resource="http://purl.org/dc/dcmitype/StillImage" /><dc:title></dc:title></cc:Work></rdf:RDF></metadata><defs
     id="defs4319" /><sodipodi:namedview
     pagecolor="#ffffff"
     bordercolor="#666666"
     borderopacity="1"
     objecttolerance="10"
     gridtolerance="10"
     guidetolerance="10"
     inkscape:pageopacity="0"
     inkscape:pageshadow="2"
     inkscape:window-width="1440"
     inkscape:window-height="825"
     id="namedview4317"
     showgrid="false"
     inkscape:zoom="0.46093662"
     inkscape:cx="256.00049"
     inkscape:cy="256.00049"
     inkscape:window-x="0"
     inkscape:window-y="0"
     inkscape:window-maximized="1"
     inkscape:current-layer="Layer_1" /><g
     id="g4344"
     transform="scale(0.04687491)"><g
       id="g4278"><path
         id="path4274"
         d="M 512,200.093 H 0 V 97.104 c 0,-4.875 3.953,-8.828 8.828,-8.828 h 494.345 c 4.875,0 8.828,3.953 8.828,8.828 z"
         style="fill:#82afff"
         inkscape:connector-curvature="0" /><path
         id="path4276"
         d="M 503.172,423.725 H 8.828 C 3.953,423.725 0,419.772 0,414.897 V 311.909 h 512 v 102.988 c 0,4.876 -3.953,8.828 -8.828,8.828 z"
         style="fill:#82afff"
         inkscape:connector-curvature="0" /></g><rect
       id="rect4280"
       height="111.81"
       width="512"
       style="fill:#f5f5f5"
       y="200.091"
       x="0" /><path
       id="path4282"
       d="m 300.138,253.794 h -31.784 c 0.593,-0.45 1.062,-0.893 1.486,-1.311 0.776,-0.759 1.393,-1.362 3.03,-2.035 1.646,-0.69 2.508,-0.698 3.599,-0.715 1.314,-0.009 2.802,-0.034 5.233,-1.035 2.427,-1.009 3.487,-2.044 4.423,-2.957 0.776,-0.759 1.393,-1.362 3.034,-2.044 1.633,-0.681 2.492,-0.69 3.577,-0.698 1.311,-0.018 2.797,-0.034 5.228,-1.043 l -1.698,-4.07 c -1.633,0.681 -2.492,0.69 -3.577,0.698 -1.311,0.018 -2.797,0.034 -5.224,1.035 -2.426,1.009 -3.487,2.044 -4.423,2.957 -0.776,0.759 -1.393,1.362 -3.03,2.035 -1.646,0.69 -2.508,0.698 -3.599,0.715 -1.314,0.009 -2.802,0.034 -5.233,1.043 -2.426,1 -3.487,2.044 -4.423,2.957 -0.764,0.743 -1.395,1.338 -2.966,2.002 l 24.98,-24.977 -3.121,-3.121 -22.485,22.483 c 0.099,-0.735 0.126,-1.389 0.132,-1.982 0.013,-1.095 0.022,-1.949 0.703,-3.595 0.681,-1.646 1.284,-2.259 2.044,-3.034 0.922,-0.94 1.961,-2.008 2.969,-4.439 1.004,-2.431 1.022,-3.914 1.035,-5.224 0.013,-1.086 0.022,-1.949 0.698,-3.586 0.681,-1.638 1.28,-2.25 2.039,-3.026 0.918,-0.94 1.956,-2.001 2.962,-4.423 l -4.077,-1.689 c -0.681,1.638 -1.28,2.25 -2.039,3.026 -0.918,0.94 -1.956,2.001 -2.962,4.423 -1.004,2.431 -1.022,3.914 -1.035,5.224 -0.013,1.086 -0.022,1.949 -0.698,3.586 -0.681,1.646 -1.284,2.259 -2.044,3.034 -0.922,0.94 -1.961,2.008 -2.969,4.439 -1.004,2.431 -1.022,3.923 -1.038,5.233 -0.009,1.063 -0.039,1.922 -0.676,3.5 v -35.318 h -4.414 v 31.783 c -0.45,-0.589 -0.892,-1.057 -1.306,-1.481 -0.762,-0.776 -1.362,-1.397 -2.044,-3.034 -0.681,-1.646 -0.694,-2.508 -0.707,-3.604 -0.013,-1.311 -0.03,-2.802 -1.038,-5.233 -1.004,-2.422 -2.044,-3.482 -2.962,-4.423 -0.759,-0.776 -1.357,-1.388 -2.039,-3.026 -0.676,-1.638 -0.685,-2.5 -0.698,-3.586 -0.013,-1.311 -0.03,-2.793 -1.035,-5.216 l -4.077,1.689 c 0.676,1.638 0.685,2.492 0.698,3.577 0.013,1.311 0.03,2.793 1.035,5.224 1.004,2.422 2.044,3.482 2.962,4.423 0.759,0.776 1.357,1.388 2.039,3.026 0.681,1.646 0.694,2.508 0.707,3.604 0.013,1.311 0.03,2.802 1.038,5.233 1.004,2.431 2.044,3.491 2.962,4.431 0.748,0.76 1.34,1.395 2.004,2.962 l -24.982,-24.979 -3.121,3.121 24.943,24.94 c -1.368,-0.621 -2.028,-1.192 -2.745,-1.888 -0.943,-0.922 -2.008,-1.965 -4.448,-2.974 -2.431,-1 -3.918,-1.026 -5.233,-1.043 -1.095,-0.009 -1.956,-0.025 -3.616,-0.715 -1.66,-0.681 -2.28,-1.284 -3.069,-2.051 -0.943,-0.914 -2.013,-1.956 -4.457,-2.974 -2.44,-1.009 -3.932,-1.026 -5.25,-1.043 -1.099,-0.018 -1.965,-0.034 -3.625,-0.724 l -1.689,4.086 c 2.44,1.009 3.932,1.026 5.25,1.043 1.099,0.018 1.965,0.034 3.625,0.724 1.664,0.681 2.284,1.284 3.073,2.051 0.943,0.922 2.013,1.956 4.452,2.966 2.44,1.017 3.932,1.035 5.246,1.052 1.095,0.018 1.956,0.025 3.608,0.715 1.651,0.681 2.268,1.284 3.048,2.044 0.401,0.393 0.849,0.809 1.391,1.233 H 211.86 v 4.414 h 35.254 c -1.393,0.53 -2.264,0.597 -3.263,0.612 -1.314,0.009 -2.802,0.034 -5.237,1.035 -2.435,1.009 -3.505,2.051 -4.448,2.966 -0.785,0.767 -1.401,1.37 -3.052,2.051 -1.66,0.69 -2.526,0.707 -3.625,0.724 -1.319,0.018 -2.81,0.034 -5.25,1.043 -2.444,1.017 -3.513,2.051 -4.457,2.974 -0.789,0.767 -1.409,1.37 -3.069,2.051 l 1.689,4.086 c 2.44,-1.017 3.509,-2.051 4.452,-2.974 0.789,-0.767 1.409,-1.37 3.073,-2.051 1.66,-0.69 2.526,-0.707 3.625,-0.724 1.319,-0.018 2.81,-0.034 5.255,-1.052 2.431,-1.009 3.496,-2.044 4.439,-2.966 0.78,-0.759 1.401,-1.362 3.057,-2.044 1.646,-0.69 2.513,-0.698 3.604,-0.715 0.558,-0.003 1.187,-0.04 1.868,-0.124 l -22.549,22.546 3.121,3.121 24.931,-24.927 c -0.614,1.362 -1.181,2.019 -1.879,2.738 -0.918,0.94 -1.956,2.008 -2.966,4.439 -1.01,2.431 -1.031,3.932 -1.043,5.241 -0.018,1.095 -0.025,1.956 -0.712,3.612 -0.685,1.664 -1.293,2.284 -2.056,3.069 -0.922,0.94 -1.961,2.017 -2.974,4.457 -1.013,2.44 -1.031,3.932 -1.047,5.25 -0.018,1.095 -0.03,1.965 -0.715,3.62 l 4.077,1.689 c 1.013,-2.44 1.031,-3.932 1.047,-5.25 0.018,-1.095 0.03,-1.965 0.715,-3.62 0.685,-1.664 1.293,-2.284 2.056,-3.069 0.922,-0.94 1.961,-2.017 2.974,-4.457 1.009,-2.431 1.031,-3.932 1.043,-5.241 0.018,-1.095 0.025,-1.956 0.712,-3.612 0.681,-1.655 1.284,-2.268 2.047,-3.052 0.392,-0.402 0.809,-0.851 1.233,-1.395 v 31.878 h 4.414 v -35.252 c 0.526,1.39 0.593,2.259 0.608,3.261 0.013,1.311 0.034,2.802 1.043,5.233 1.004,2.44 2.047,3.509 2.966,4.448 0.762,0.785 1.366,1.405 2.051,3.06 0.685,1.655 0.698,2.526 0.715,3.62 0.018,1.319 0.034,2.81 1.047,5.25 1.013,2.44 2.051,3.518 2.974,4.457 0.762,0.785 1.37,1.405 2.056,3.069 l 4.077,-1.689 c -1.013,-2.44 -2.051,-3.518 -2.974,-4.457 -0.762,-0.785 -1.37,-1.405 -2.056,-3.069 -0.685,-1.655 -0.698,-2.526 -0.715,-3.62 -0.018,-1.319 -0.034,-2.81 -1.047,-5.25 -1.009,-2.44 -2.047,-3.509 -2.966,-4.448 -0.762,-0.785 -1.366,-1.405 -2.051,-3.06 -0.685,-1.646 -0.694,-2.508 -0.712,-3.604 -0.006,-0.557 -0.042,-1.187 -0.126,-1.868 l 22.552,22.55 3.121,-3.121 -22.482,-22.478 c 0.73,0.097 1.384,0.126 1.973,0.134 1.09,0.009 1.949,0.018 3.595,0.698 1.646,0.69 2.263,1.284 3.043,2.051 0.94,0.914 2.004,1.956 4.436,2.966 2.427,1 3.914,1.017 5.224,1.026 1.086,0.018 1.944,0.025 3.582,0.707 1.638,0.672 2.25,1.276 3.026,2.035 0.94,0.914 2.001,1.956 4.427,2.966 l 1.689,-4.086 c -1.638,-0.672 -2.25,-1.276 -3.026,-2.035 -0.94,-0.914 -2.001,-1.956 -4.427,-2.966 -2.426,-1 -3.914,-1.017 -5.224,-1.026 -1.086,-0.018 -1.944,-0.025 -3.582,-0.707 -1.646,-0.681 -2.263,-1.276 -3.043,-2.044 -0.94,-0.914 -2.004,-1.956 -4.436,-2.957 -2.431,-1.017 -3.918,-1.035 -5.233,-1.043 -1.07,-0.018 -1.937,-0.038 -3.524,-0.681 h 35.35 v -4.414 z"
       style="fill:#f09146"
       inkscape:connector-curvature="0" /><circle
       id="circle4284"
       r="22.07"
       cy="256.00101"
       cx="256"
       style="fill:#ffe15a" /><g
       id="g4286" /><g
       id="g4288" /><g
       id="g4290" /><g
       id="g4292" /><g
       id="g4294" /><g
       id="g4296" /><g
       id="g4298" /><g
       id="g4300" /><g
       id="g4302" /><g
       id="g4304" /><g
       id="g4306" /><g
       id="g4308" /><g
       id="g4310" /><g
       id="g4312" /><g
       id="g4314" /></g></svg>