<?xml version="1.0" encoding="UTF-8" standalone="no"?>
<!-- Generator: Adobe Illustrator 19.0.0, SVG Export Plug-In . SVG Version: 6.00 Build 0)  -->

<svg
   xmlns:dc="http://purl.org/dc/elements/1.1/"
   xmlns:cc="http://creativecommons.org/ns#"
   xmlns:rdf="http://www.w3.org/1999/02/22-rdf-syntax-ns#"
   xmlns:svg="http://www.w3.org/2000/svg"
   xmlns="http://www.w3.org/2000/svg"
   xmlns:sodipodi="http://sodipodi.sourceforge.net/DTD/sodipodi-0.dtd"
   xmlns:inkscape="http://www.inkscape.org/namespaces/inkscape"
   version="1.1"
   id="Layer_1"
   x="0px"
   y="0px"
   viewBox="0 0 24 24.000001"
   xml:space="preserve"
   sodipodi:docname="es_BO.svg"
   width="24"
   height="24"
   inkscape:version="0.92.1 r15381"><metadata
     id="metadata504"><rdf:RDF><cc:Work
         rdf:about=""><dc:format>image/svg+xml</dc:format><dc:type
           rdf:resource="http://purl.org/dc/dcmitype/StillImage" /><dc:title></dc:title></cc:Work></rdf:RDF></metadata><defs
     id="defs502" /><sodipodi:namedview
     pagecolor="#ffffff"
     bordercolor="#666666"
     borderopacity="1"
     objecttolerance="10"
     gridtolerance="10"
     guidetolerance="10"
     inkscape:pageopacity="0"
     inkscape:pageshadow="2"
     inkscape:window-width="1440"
     inkscape:window-height="825"
     id="namedview500"
     showgrid="false"
     units="px"
     width="24mm"
     inkscape:zoom="1.8101934"
     inkscape:cx="180.31797"
     inkscape:cy="9.6949319"
     inkscape:window-x="0"
     inkscape:window-y="0"
     inkscape:window-maximized="1"
     inkscape:current-layer="Layer_1" /><g
     id="g584"
     transform="matrix(0.04687491,0,0,0.04687491,-3.97455e-7,2.304e-5)"><path
       id="path343"
       d="m 0,311.908 h 512 v 102.988 c 0,4.875 -3.953,8.828 -8.828,8.828 H 8.828 C 3.953,423.724 0,419.771 0,414.896 Z"
       style="fill:#73af00"
       inkscape:connector-curvature="0" /><path
       id="path345"
       d="m 8.828,88.276 h 494.345 c 4.875,0 8.828,3.953 8.828,8.828 V 200.092 H 0 V 97.104 c 0,-4.875 3.953,-8.828 8.828,-8.828 z"
       style="fill:#ff4b55"
       inkscape:connector-curvature="0" /><rect
       id="rect347"
       height="111.81"
       width="512"
       style="fill:#ffe15a"
       y="200.09"
       x="0" /><path
       id="path349"
       d="m 244.598,205.957 c 0,0 -0.227,0.284 -0.653,0.817 -0.355,0.492 -0.888,1.248 -1.47,2.254 -1.145,1.999 -2.347,5.098 -2.38,8.792 -0.012,1.801 0.36,3.988 0.974,5.727 0.666,1.92 1.771,3.756 3.168,5.396 1.399,1.655 3.268,2.931 5.267,3.873 0.991,0.503 2.079,0.792 3.158,1.058 0.535,0.163 1.105,0.171 1.654,0.279 0.276,0.052 0.562,0.029 0.841,0.051 l 0.422,0.019 0.211,0.011 0.105,0.006 0.053,0.003 0.026,0.001 c -0.085,0.003 0.227,-0.004 -0.184,0.007 0.684,-0.04 1.514,-0.045 2.078,-0.114 0.492,-0.115 0.906,-0.095 1.47,-0.262 1.08,-0.266 2.167,-0.555 3.158,-1.058 1.998,-0.942 3.868,-2.218 5.267,-3.873 1.397,-1.64 2.502,-3.476 3.168,-5.396 0.638,-1.953 0.979,-3.822 0.974,-5.736 -0.031,-3.678 -1.234,-6.788 -2.379,-8.785 -0.578,-1.002 -1.113,-1.763 -1.494,-2.276 -0.396,-0.505 -0.607,-0.776 -0.607,-0.776 l -0.053,-0.067 c -0.381,-0.486 -0.295,-1.187 0.191,-1.568 0.384,-0.3 0.904,-0.309 1.291,-0.061 0,0 0.326,0.209 0.937,0.6 0.578,0.434 1.474,1.047 2.439,2.039 1.937,1.918 4.451,5.334 5.358,10.298 0.449,2.376 0.498,5.25 -0.121,8.075 -0.6,2.854 -1.817,5.805 -3.782,8.387 -1.93,2.594 -4.523,4.888 -7.606,6.435 -1.521,0.811 -3.176,1.4 -4.874,1.81 -0.814,0.239 -1.847,0.338 -2.767,0.483 -0.862,0.095 -1.475,0.097 -2.226,0.15 l -0.292,10e-4 -0.082,-0.004 -0.164,-0.008 -0.328,-0.017 -0.657,-0.035 c -0.437,-0.035 -0.876,-0.029 -1.309,-0.104 -0.863,-0.152 -1.741,-0.223 -2.583,-0.466 -1.698,-0.409 -3.354,-0.999 -4.874,-1.81 -3.083,-1.547 -5.676,-3.842 -7.606,-6.435 -1.964,-2.583 -3.181,-5.534 -3.782,-8.387 -0.642,-3.04 -0.562,-5.596 -0.12,-8.084 0.905,-4.949 3.421,-8.377 5.357,-10.291 0.961,-0.988 1.86,-1.607 2.463,-2.061 0.58,-0.364 0.89,-0.559 0.89,-0.559 0.526,-0.33 1.22,-0.172 1.55,0.354 0.26,0.418 0.213,0.943 -0.077,1.307 z"
       style="fill:#73af00"
       inkscape:connector-curvature="0" /><path
       id="path351"
       d="m 253.782,293.866 v 13.971 c 0,1.394 -1.685,2.092 -2.67,1.107 l -0.769,-0.769 c -0.639,-0.639 -0.998,-1.505 -0.998,-2.408 v -11.901 z"
       style="fill:#ff4b55"
       inkscape:connector-curvature="0" /><path
       id="path353"
       d="m 247.126,291.648 v 10.141 c 0,0.609 0.242,1.194 0.673,1.625 l 1.545,1.545 v -13.311 z"
       style="fill:#ffe15a"
       inkscape:connector-curvature="0" /><path
       id="path355"
       d="m 244.908,291.648 v 5.442 c 0,0.777 0.309,1.522 0.857,2.071 l 1.361,1.361 v -8.874 z"
       style="fill:#73af00"
       inkscape:connector-curvature="0" /><path
       id="path357"
       d="m 258.218,293.866 v 13.971 c 0,1.394 1.685,2.092 2.67,1.107 l 0.769,-0.769 c 0.639,-0.639 0.998,-1.505 0.998,-2.408 v -11.901 z"
       style="fill:#ff4b55"
       inkscape:connector-curvature="0" /><path
       id="path359"
       d="m 264.873,291.648 v 10.141 c 0,0.609 -0.242,1.194 -0.673,1.625 l -1.545,1.545 v -13.311 z"
       style="fill:#ffe15a"
       inkscape:connector-curvature="0" /><path
       id="path361"
       d="m 267.092,291.648 v 5.442 c 0,0.777 -0.309,1.522 -0.857,2.071 l -1.361,1.361 v -8.874 z"
       style="fill:#73af00"
       inkscape:connector-curvature="0" /><path
       id="path363"
       d="m 267.092,251.715 24.403,-17.748 v 36.498 c 0,10.474 -8.491,18.964 -18.964,18.964 v 0 c -3.554,0 -7.037,-0.999 -10.051,-2.882 l -13.135,-8.21 v -26.93 z"
       style="fill:#ff4b55"
       inkscape:connector-curvature="0" /><path
       id="path365"
       d="m 282.621,240.422 v 25.607 c 0,10.474 -8.491,18.964 -18.964,18.964 -1.575,0 -3.127,-0.227 -4.64,-0.61 l -9.673,-6.046 v -26.93 l 17.748,0.308 z"
       style="fill:#ffe15a"
       inkscape:connector-curvature="0" /><path
       id="path367"
       d="m 275.966,245.261 v 16.531 c 0,10.474 -8.491,18.964 -18.964,18.964 -1.575,0 -3.128,-0.227 -4.64,-0.61 l -3.018,-1.886 v -26.853 l 17.748,0.308 z"
       style="fill:#73af00"
       inkscape:connector-curvature="0" /><polygon
       id="polygon369"
       points="292.826,229.974 302.588,225.094 295.488,233.967 291.495,233.967 "
       style="fill:#f5f5f5" /><path
       id="path371"
       d="m 280.403,262.807 24.403,-17.748 v 36.498 c 0,10.474 -8.491,18.964 -18.964,18.964 v 0 c -3.554,0 -7.037,-0.999 -10.051,-2.882 l -13.135,-8.21 V 262.5 Z"
       style="fill:#ff4b55"
       inkscape:connector-curvature="0" /><path
       id="path373"
       d="m 289.277,256.354 v 16.531 c 0,10.474 -8.491,18.964 -18.964,18.964 -1.575,0 -3.127,-0.227 -4.64,-0.61 l -3.018,-1.886 V 262.5 l 17.748,0.308 z"
       style="fill:#73af00"
       inkscape:connector-curvature="0" /><polygon
       id="polygon375"
       points="306.137,241.066 315.899,236.185 308.799,245.059 304.806,245.059 "
       style="fill:#f5f5f5" /><path
       id="path377"
       d="m 273.747,258.37 24.403,-17.748 v 36.498 c 0,10.474 -8.491,18.964 -18.964,18.964 v 0 c -3.554,0 -7.037,-0.999 -10.051,-2.882 L 256,284.992 v -26.93 z"
       style="fill:#ff4b55"
       inkscape:connector-curvature="0" /><path
       id="path379"
       d="m 289.277,247.076 v 25.607 c 0,10.474 -8.491,18.964 -18.964,18.964 -1.575,0 -3.127,-0.227 -4.64,-0.61 l -9.674,-6.045 v -26.93 l 17.748,0.308 z"
       style="fill:#ffe15a"
       inkscape:connector-curvature="0" /><path
       id="path381"
       d="m 282.621,251.917 v 16.531 c 0,10.474 -8.491,18.964 -18.964,18.964 -1.575,0 -3.127,-0.227 -4.64,-0.61 l -3.018,-1.885 v -26.853 l 17.748,0.308 z"
       style="fill:#73af00"
       inkscape:connector-curvature="0" /><polygon
       id="polygon383"
       points="299.482,236.629 309.243,231.748 302.143,240.622 298.151,240.622 "
       style="fill:#f5f5f5" /><path
       id="path385"
       d="m 244.908,251.715 -24.403,-17.748 v 36.498 c 0,10.474 8.491,18.964 18.964,18.964 v 0 c 3.554,0 7.037,-0.999 10.051,-2.882 l 13.135,-8.21 v -26.93 z"
       style="fill:#ff4b55"
       inkscape:connector-curvature="0" /><path
       id="path387"
       d="m 229.378,240.422 v 25.607 c 0,10.474 8.491,18.964 18.964,18.964 1.575,0 3.127,-0.227 4.64,-0.61 l 9.673,-6.046 v -26.93 l -17.748,0.308 z"
       style="fill:#ffe15a"
       inkscape:connector-curvature="0" /><path
       id="path389"
       d="m 236.034,245.261 v 16.531 c 0,10.474 8.491,18.964 18.964,18.964 1.575,0 3.128,-0.227 4.64,-0.61 l 3.018,-1.886 v -26.853 l -17.748,0.308 z"
       style="fill:#73af00"
       inkscape:connector-curvature="0" /><polygon
       id="polygon391"
       points="219.173,229.974 209.412,225.094 216.512,233.967 220.504,233.967 "
       style="fill:#f5f5f5" /><path
       id="path393"
       d="m 231.597,262.807 -24.403,-17.748 v 36.498 c 0,10.474 8.491,18.964 18.964,18.964 v 0 c 3.554,0 7.037,-0.999 10.051,-2.882 l 13.135,-8.21 V 262.5 Z"
       style="fill:#ff4b55"
       inkscape:connector-curvature="0" /><path
       id="path395"
       d="m 222.723,256.354 v 16.531 c 0,10.474 8.491,18.964 18.964,18.964 1.575,0 3.127,-0.227 4.64,-0.61 l 3.018,-1.886 V 262.5 l -17.748,0.308 z"
       style="fill:#73af00"
       inkscape:connector-curvature="0" /><polygon
       id="polygon397"
       points="205.862,241.066 196.101,236.185 203.201,245.059 207.193,245.059 "
       style="fill:#f5f5f5" /><path
       id="path399"
       d="m 238.252,258.37 -24.403,-17.748 v 36.498 c 0,10.474 8.491,18.964 18.964,18.964 v 0 c 3.554,0 7.037,-0.999 10.051,-2.882 l 13.135,-8.21 v -26.93 z"
       style="fill:#ff4b55"
       inkscape:connector-curvature="0" /><path
       id="path401"
       d="m 222.723,247.076 v 25.607 c 0,10.474 8.491,18.964 18.964,18.964 1.575,0 3.127,-0.227 4.64,-0.61 L 256,284.991 v -26.93 l -17.748,0.308 z"
       style="fill:#ffe15a"
       inkscape:connector-curvature="0" /><path
       id="path403"
       d="m 229.378,251.917 v 16.531 c 0,10.474 8.491,18.964 18.964,18.964 1.575,0 3.127,-0.227 4.64,-0.61 L 256,284.916 v -26.853 l -17.748,0.308 z"
       style="fill:#73af00"
       inkscape:connector-curvature="0" /><g
       id="g409"><path
         id="path405"
         d="m 226.947,291.354 -2.925,-2.925 c -1.773,-1.773 -1.726,-4.664 0.106,-6.378 l 48.417,-45.496 6.275,6.275 -45.496,48.417 c -1.713,1.833 -4.603,1.882 -6.377,0.107 z"
         style="fill:#ffbe5a"
         inkscape:connector-curvature="0" /><circle
         id="circle407"
         r="2.2179999"
         cy="289.89099"
         cx="225.49001"
         style="fill:#ffbe5a" /></g><ellipse
       id="ellipse411"
       ry="2.2179999"
       rx="4.4359999"
       cy="239.69501"
       cx="275.685"
       style="fill:#f5f5f5"
       transform="matrix(-0.7071,-0.7071,0.7071,-0.7071,301.1342,604.1237)" /><g
       id="g417"><path
         id="path413"
         d="m 285.052,291.354 2.925,-2.925 c 1.773,-1.773 1.726,-4.664 -0.106,-6.378 l -48.417,-45.496 -6.275,6.275 45.496,48.417 c 1.714,1.833 4.604,1.882 6.377,0.107 z"
         style="fill:#ffbe5a"
         inkscape:connector-curvature="0" /><circle
         id="circle415"
         r="2.2179999"
         cy="289.89099"
         cx="286.51001"
         style="fill:#ffbe5a" /></g><ellipse
       id="ellipse419"
       ry="2.2179999"
       rx="4.4359999"
       cy="239.701"
       cx="236.327"
       style="fill:#f5f5f5"
       transform="matrix(0.7071,-0.7071,0.7071,0.7071,-100.2758,237.3154)" /><ellipse
       id="ellipse421"
       ry="23.294001"
       rx="19.615999"
       cy="266.14099"
       cx="256"
       style="fill:#ffbe5a" /><polygon
       id="polygon423"
       points="262.52,265.126 259.021,262.082 259.428,266.701 257.041,262.725 255.999,267.244 254.959,262.725 252.572,266.701 252.978,262.082 249.48,265.126 251.293,260.858 247.026,262.671 250.07,259.174 245.451,259.58 249.426,257.193 244.908,256.152 249.426,255.111 245.451,252.724 250.07,253.131 247.026,249.632 251.293,251.446 249.48,247.178 252.978,250.222 252.572,245.602 254.959,249.579 255.999,245.059 257.041,249.579 259.428,245.602 259.021,250.222 262.52,247.178 260.706,251.446 264.974,249.632 261.929,253.131 266.549,252.724 262.573,255.111 267.092,256.152 262.573,257.193 266.549,259.58 261.929,259.174 264.974,262.671 260.706,260.858 "
       style="fill:#ff4b55" /><path
       id="path425"
       d="m 280.541,265.719 c 0,0 -7.349,1.941 -12.132,-2.08 -5.316,-4.469 -9.302,-6.579 -11.01,-7.371 -0.585,-0.271 -1.239,-0.271 -1.825,-10e-4 -1.224,0.565 -3.476,1.736 -5.468,3.49 -2.912,2.566 -11.855,7.626 -13.657,7.626 v 11.029 l 14.073,12.196 16.639,-0.486 z"
       style="fill:#73af00"
       inkscape:connector-curvature="0" /><path
       id="path427"
       d="m 255.999,294.975 c -14.068,0 -25.513,-12.938 -25.513,-28.84 0,-15.902 11.444,-28.84 25.513,-28.84 14.069,0 25.513,12.938 25.513,28.84 0,15.902 -11.445,28.84 -25.513,28.84 z m 0,-51.025 c -10.398,0 -18.857,9.953 -18.857,22.185 0,12.232 8.459,22.185 18.857,22.185 10.398,0 18.857,-9.953 18.857,-22.185 0,-12.232 -8.459,-22.185 -18.857,-22.185 z"
       style="fill:#3cc8ff"
       inkscape:connector-curvature="0" /><g
       id="g449"><path
         id="path429"
         d="m 252.177,288.947 0.489,1.465 1.545,0.012 c 0.2,0.001 0.282,0.257 0.122,0.375 l -1.242,0.918 0.466,1.473 c 0.061,0.191 -0.157,0.349 -0.32,0.232 l -1.257,-0.898 -1.257,0.898 c -0.162,0.116 -0.38,-0.042 -0.32,-0.232 l 0.466,-1.473 -1.242,-0.918 c -0.161,-0.119 -0.078,-0.374 0.122,-0.375 l 1.545,-0.012 0.489,-1.465 c 0.063,-0.19 0.331,-0.19 0.394,0 z"
         style="fill:#ffbe5a"
         inkscape:connector-curvature="0" /><path
         id="path431"
         d="m 245.242,285.965 0.489,1.465 1.545,0.012 c 0.2,10e-4 0.282,0.257 0.122,0.375 l -1.242,0.918 0.466,1.473 c 0.061,0.191 -0.157,0.349 -0.32,0.232 l -1.257,-0.898 -1.257,0.898 c -0.162,0.116 -0.38,-0.042 -0.32,-0.232 l 0.466,-1.473 -1.242,-0.918 c -0.161,-0.119 -0.078,-0.374 0.122,-0.375 l 1.545,-0.012 0.489,-1.465 c 0.063,-0.19 0.331,-0.19 0.394,0 z"
         style="fill:#ffbe5a"
         inkscape:connector-curvature="0" /><path
         id="path433"
         d="m 239.673,280.904 0.489,1.465 1.545,0.012 c 0.2,0.001 0.282,0.257 0.122,0.375 l -1.242,0.918 0.466,1.473 c 0.061,0.191 -0.157,0.349 -0.32,0.232 l -1.257,-0.898 -1.257,0.898 c -0.162,0.116 -0.38,-0.042 -0.32,-0.232 l 0.466,-1.473 -1.242,-0.918 c -0.161,-0.119 -0.078,-0.374 0.122,-0.375 l 1.545,-0.012 0.489,-1.465 c 0.063,-0.19 0.331,-0.19 0.394,0 z"
         style="fill:#ffbe5a"
         inkscape:connector-curvature="0" /><path
         id="path435"
         d="m 235.875,274.167 0.489,1.465 1.545,0.012 c 0.2,10e-4 0.282,0.257 0.122,0.375 l -1.242,0.918 0.466,1.473 c 0.061,0.191 -0.157,0.349 -0.32,0.232 l -1.257,-0.898 -1.257,0.898 c -0.162,0.116 -0.38,-0.042 -0.32,-0.232 l 0.466,-1.473 -1.242,-0.918 c -0.161,-0.119 -0.078,-0.374 0.122,-0.375 l 1.545,-0.012 0.489,-1.465 c 0.063,-0.19 0.331,-0.19 0.394,0 z"
         style="fill:#ffbe5a"
         inkscape:connector-curvature="0" /><path
         id="path437"
         d="m 234.199,266.335 0.489,1.465 1.545,0.012 c 0.2,10e-4 0.282,0.257 0.122,0.375 l -1.242,0.918 0.466,1.473 c 0.061,0.191 -0.157,0.349 -0.32,0.232 l -1.257,-0.898 -1.257,0.898 c -0.162,0.116 -0.38,-0.042 -0.32,-0.232 l 0.466,-1.473 -1.242,-0.918 c -0.161,-0.119 -0.078,-0.374 0.122,-0.375 l 1.545,-0.012 0.489,-1.465 c 0.062,-0.19 0.331,-0.19 0.394,0 z"
         style="fill:#ffbe5a"
         inkscape:connector-curvature="0" /><path
         id="path439"
         d="m 259.812,288.947 -0.489,1.465 -1.545,0.012 c -0.2,0.001 -0.283,0.257 -0.122,0.375 l 1.242,0.918 -0.466,1.473 c -0.061,0.191 0.157,0.349 0.32,0.232 l 1.257,-0.898 1.257,0.898 c 0.162,0.116 0.38,-0.042 0.32,-0.232 l -0.466,-1.473 1.242,-0.918 c 0.161,-0.119 0.078,-0.374 -0.122,-0.375 l -1.545,-0.012 -0.489,-1.465 c -0.063,-0.19 -0.331,-0.19 -0.394,0 z"
         style="fill:#ffbe5a"
         inkscape:connector-curvature="0" /><path
         id="path441"
         d="m 266.747,285.965 -0.489,1.465 -1.545,0.012 c -0.2,10e-4 -0.282,0.257 -0.122,0.375 l 1.242,0.918 -0.466,1.473 c -0.061,0.191 0.157,0.349 0.32,0.232 l 1.257,-0.898 1.257,0.898 c 0.162,0.116 0.38,-0.042 0.32,-0.232 l -0.466,-1.473 1.242,-0.918 c 0.161,-0.119 0.078,-0.374 -0.122,-0.375 l -1.545,-0.012 -0.489,-1.465 c -0.063,-0.19 -0.331,-0.19 -0.394,0 z"
         style="fill:#ffbe5a"
         inkscape:connector-curvature="0" /><path
         id="path443"
         d="m 272.316,280.904 -0.489,1.465 -1.545,0.012 c -0.2,0.001 -0.282,0.257 -0.122,0.375 l 1.242,0.918 -0.466,1.473 c -0.061,0.191 0.157,0.349 0.32,0.232 l 1.257,-0.898 1.257,0.898 c 0.162,0.116 0.38,-0.042 0.32,-0.232 l -0.466,-1.473 1.242,-0.918 c 0.161,-0.119 0.078,-0.374 -0.122,-0.375 l -1.545,-0.012 -0.489,-1.465 c -0.062,-0.19 -0.331,-0.19 -0.394,0 z"
         style="fill:#ffbe5a"
         inkscape:connector-curvature="0" /><path
         id="path445"
         d="m 276.114,274.167 -0.489,1.465 -1.545,0.012 c -0.2,10e-4 -0.282,0.257 -0.122,0.375 l 1.242,0.918 -0.466,1.473 c -0.061,0.191 0.157,0.349 0.32,0.232 l 1.257,-0.898 1.257,0.898 c 0.162,0.116 0.38,-0.042 0.32,-0.232 l -0.466,-1.473 1.242,-0.918 c 0.161,-0.119 0.078,-0.374 -0.122,-0.375 l -1.545,-0.012 -0.489,-1.465 c -0.063,-0.19 -0.331,-0.19 -0.394,0 z"
         style="fill:#ffbe5a"
         inkscape:connector-curvature="0" /><path
         id="path447"
         d="m 277.79,266.335 -0.489,1.465 -1.545,0.012 c -0.2,10e-4 -0.282,0.257 -0.122,0.375 l 1.242,0.918 -0.466,1.473 c -0.061,0.191 0.157,0.349 0.32,0.232 l 1.257,-0.898 1.257,0.898 c 0.162,0.116 0.38,-0.042 0.32,-0.232 l -0.466,-1.473 1.242,-0.918 c 0.161,-0.119 0.078,-0.374 -0.122,-0.375 l -1.545,-0.012 -0.489,-1.465 c -0.062,-0.19 -0.33,-0.19 -0.394,0 z"
         style="fill:#ffbe5a"
         inkscape:connector-curvature="0" /></g><path
       id="path451"
       d="m 246.361,280.357 0.737,3.526 h 0.318 v -2.406 c 0,0 0.524,1.678 1.266,2.406 h 0.6 c -0.287,-0.369 -0.803,-1.134 -0.803,-1.927 0,-1.091 0.868,-1.24 0.868,-2.407 h 0.744 v 4.333 h 0.435 l 0.806,-3.861 c 0,0 0.664,2.415 1.914,3.861 h 0.556 c -0.401,-0.589 -1.234,-2.109 -1.081,-4.407 0,0 1.191,-0.596 1.191,-2.208 v -2.294 c 0,-0.429 0.349,-0.778 0.778,-0.778 h 0.535 c 0,0 -0.796,-1.544 -1.647,-1.768 v -0.968 l -0.641,0.969 c -0.612,0.132 -0.973,0.698 -0.973,1.304 v 1.397 c 0,0.429 -0.348,0.778 -0.778,0.778 h -2.781 c -0.823,0 -2.142,0.823 -2.142,1.878 0,1.055 0.791,1.747 0.791,1.747 z"
       style="fill:#f5f5f5"
       inkscape:connector-curvature="0" /><path
       id="path453"
       d="m 258.819,276.844 h -0.255 c -2.016,0.11 -3.142,1.436 -3.142,1.436 l 2.045,2.045 v 3.848 h 2.447 v -3.848 l 2.045,-2.045 c 10e-4,-10e-4 -1.124,-1.326 -3.14,-1.436 z"
       style="fill:#ffbe5a"
       inkscape:connector-curvature="0" /><g
       id="g461"><rect
         id="rect455"
         height="13.634"
         width="0.73900002"
         style="fill:#f5f5f5"
         y="270.54999"
         x="263.12" /><path
         id="path457"
         d="m 263.511,270.445 -3.987,4.819 c 0,0 -0.52,-2.323 1.803,-4.61 l -5.13,0.936 c 0,0 1.56,-2.912 5.65,-2.6 l -4.194,-3.501 c 0,0 3.605,-0.207 5.442,2.496 0,0 1.039,-3.119 3.951,-3.258 l -2.403,3.651 c 0,0 2.403,-1.225 5.731,-0.15 l -4.957,1.318 c 0,0 2.773,0.277 3.917,4.333 l -4.298,-2.946 c 0,0 1.318,1.56 0.832,4.61 z"
         style="fill:#f5f5f5"
         inkscape:connector-curvature="0" /><polygon
         id="polygon459"
         points="212.518,236.629 202.756,231.748 209.856,240.622 213.849,240.622 "
         style="fill:#f5f5f5" /></g><path
       id="path463"
       d="m 262.94,230.978 26.337,-8.104 -13.981,-5.242 c -2.49,-0.935 -5.129,-1.412 -7.789,-1.412 h -2.633 c -1.225,0 -2.218,0.993 -2.218,2.218 v 2.218 h -6.657 -6.655 v -2.218 c 0,-1.225 -0.993,-2.218 -2.218,-2.218 h -2.633 c -2.66,0 -5.299,0.479 -7.789,1.412 l -13.981,5.242 26.337,8.104 c 1.31,0.403 1.944,1.886 1.332,3.113 l -3.266,6.531 h 17.748 l -3.266,-6.531 c -0.613,-1.226 0.021,-2.709 1.332,-3.113 z"
       style="fill:#825546"
       inkscape:connector-curvature="0" /><circle
       id="circle465"
       r="4.4359999"
       cy="222.87"
       cx="256"
       style="fill:#f5f5f5" /><path
       id="path467"
       d="m 258.218,222.875 v 0 c 0,1.225 -0.993,2.218 -2.218,2.218 h -8.874 l 3.787,-3.787 c 0.416,-0.416 0.98,-0.65 1.569,-0.65 h 3.517 c 1.226,0.001 2.219,0.994 2.219,2.219 z"
       style="fill:#ffbe5a"
       inkscape:connector-curvature="0" /><g
       id="g469" /><g
       id="g471" /><g
       id="g473" /><g
       id="g475" /><g
       id="g477" /><g
       id="g479" /><g
       id="g481" /><g
       id="g483" /><g
       id="g485" /><g
       id="g487" /><g
       id="g489" /><g
       id="g491" /><g
       id="g493" /><g
       id="g495" /><g
       id="g497" /></g></svg>