<?xml version="1.0" encoding="UTF-8" standalone="no"?>
<!-- Generator: Adobe Illustrator 19.0.0, SVG Export Plug-In . SVG Version: 6.00 Build 0)  -->

<svg
   xmlns:dc="http://purl.org/dc/elements/1.1/"
   xmlns:cc="http://creativecommons.org/ns#"
   xmlns:rdf="http://www.w3.org/1999/02/22-rdf-syntax-ns#"
   xmlns:svg="http://www.w3.org/2000/svg"
   xmlns="http://www.w3.org/2000/svg"
   xmlns:sodipodi="http://sodipodi.sourceforge.net/DTD/sodipodi-0.dtd"
   xmlns:inkscape="http://www.inkscape.org/namespaces/inkscape"
   version="1.1"
   id="Layer_1"
   x="0px"
   y="0px"
   viewBox="0 0 24.000001 24.000001"
   xml:space="preserve"
   sodipodi:docname="es_CR.svg"
   width="24"
   height="24"
   inkscape:version="0.92.1 r15381"><metadata
     id="metadata175"><rdf:RDF><cc:Work
         rdf:about=""><dc:format>image/svg+xml</dc:format><dc:type
           rdf:resource="http://purl.org/dc/dcmitype/StillImage" /><dc:title></dc:title></cc:Work></rdf:RDF></metadata><defs
     id="defs173" /><sodipodi:namedview
     pagecolor="#ffffff"
     bordercolor="#666666"
     borderopacity="1"
     objecttolerance="10"
     gridtolerance="10"
     guidetolerance="10"
     inkscape:pageopacity="0"
     inkscape:pageshadow="2"
     inkscape:window-width="1440"
     inkscape:window-height="825"
     id="namedview171"
     showgrid="false"
     inkscape:zoom="0.46093662"
     inkscape:cx="-41.220418"
     inkscape:cy="256.00049"
     inkscape:window-x="0"
     inkscape:window-y="0"
     inkscape:window-maximized="1"
     inkscape:current-layer="Layer_1" /><g
     id="g261"
     transform="matrix(0.04687491,0,0,0.04687491,-3.97455e-7,2.304e-5)"><rect
       id="rect2"
       height="105.93"
       width="512"
       style="fill:#ff4b55"
       y="203.03"
       x="0" /><path
       id="path4"
       d="m 8.828,88.276 h 494.345 c 4.875,0 8.828,3.953 8.828,8.828 v 48.552 H 0 V 97.104 c 0,-4.875 3.953,-8.828 8.828,-8.828 z"
       style="fill:#41479b"
       inkscape:connector-curvature="0" /><rect
       id="rect6"
       height="57.380001"
       width="512"
       style="fill:#f5f5f5"
       y="145.66"
       x="0" /><path
       id="path8"
       d="M 503.172,423.724 H 8.828 C 3.953,423.724 0,419.771 0,414.896 v -48.552 h 512 v 48.552 c 0,4.876 -3.953,8.828 -8.828,8.828 z"
       style="fill:#41479b"
       inkscape:connector-curvature="0" /><g
       id="g14"><rect
         id="rect10"
         height="57.380001"
         width="512"
         style="fill:#f5f5f5"
         y="308.95999"
         x="0" /><ellipse
         id="ellipse12"
         ry="44.139999"
         rx="41.290001"
         cy="256"
         cx="138.39"
         style="fill:#f5f5f5" /></g><rect
       id="rect16"
       height="21.357"
       width="42.714001"
       style="fill:#3cc8ff"
       y="238.92"
       x="117.03" /><polygon
       id="polygon18"
       points="125.508,257.434 130.139,256.441 125.809,258.36 130.521,258.848 125.809,259.336 130.139,261.255 125.508,260.263 129.033,263.426 124.934,261.05 127.31,265.149 124.146,261.624 125.138,266.255 123.22,261.926 122.732,266.636 122.244,261.926 120.325,266.255 121.317,261.624 118.154,265.149 120.528,261.05 116.43,263.426 119.956,260.263 115.324,261.255 119.654,259.336 114.943,258.848 119.654,258.36 115.324,256.441 119.956,257.434 116.43,254.27 120.528,256.645 118.154,252.546 121.317,256.072 120.325,251.441 122.244,255.77 122.732,251.059 123.22,255.77 125.138,251.441 124.146,256.072 127.31,252.546 124.934,256.645 129.033,254.27 "
       style="fill:#ffe15a" /><polygon
       id="polygon20"
       points="129.851,290.172 114.189,277.357 114.189,258.848 164.022,258.848 164.022,277.357 146.936,290.172 "
       style="fill:#41479b" /><path
       id="path22"
       d="m 155.479,253.153 h -0.001 c -0.004,-0.39 -0.32,-0.704 -0.711,-0.704 -0.391,0 -0.705,0.314 -0.711,0.704 h -0.002 c 0,2.471 -1.432,5.889 -3.188,8.337 -2.452,-3.096 -3.374,-6.686 -3.722,-8.947 -0.166,-1.078 -1.331,-1.676 -2.307,-1.188 -0.47,0.235 -0.787,0.694 -0.867,1.213 -1.09,6.983 -4.382,9.95 -6.514,11.17 -3.191,-3.085 -4.243,-8.078 -4.589,-11.03 -0.135,-1.148 -1.363,-1.806 -2.397,-1.29 -0.398,0.199 -0.693,0.558 -0.832,0.981 -4.466,13.613 -16.875,14.993 -16.875,14.993 v 4.271 h 49.833 v -1.423 -1.423 -1.423 -1.423 -1.423 c -5.693,-1.429 -7.117,-11.395 -7.117,-11.395 z"
       style="fill:#73af00"
       inkscape:connector-curvature="0" /><g
       id="g28"><path
         id="path24"
         d="m 162.598,240.339 c -5.695,-2.848 -5.695,-5.695 -5.695,-5.695 0,0 -7.119,-2.848 -12.814,-2.848 0,0 1.423,-2.848 -1.423,-2.848 -2.848,0 -4.271,0 -4.271,0 0,0 -1.423,0 -4.271,0 -2.848,0 -1.423,2.848 -1.423,2.848 -5.695,0 -12.814,2.848 -12.814,2.848 0,0 0,2.848 -5.695,5.695 -5.695,2.848 -5.695,9.255 -5.695,9.255 0,1.18 0.957,2.135 2.135,2.135 1.18,0 2.135,-0.957 2.135,-2.135 0,-0.244 -0.05,-0.473 -0.125,-0.691 l 0.125,-0.021 14.238,-9.966 h 11.391 11.391 l 14.238,9.966 0.125,0.021 c -0.075,0.217 -0.125,0.448 -0.125,0.691 0,1.18 0.957,2.135 2.135,2.135 1.178,0 2.135,-0.957 2.135,-2.135 -0.002,-0.001 -0.002,-6.408 -5.697,-9.255 z"
         style="fill:#f0aa00"
         inkscape:connector-curvature="0" /><path
         id="path26"
         d="m 166.87,257.425 c -1.423,0 -5.695,0 -5.695,-4.271 0,-4.271 5.695,-4.271 5.695,-4.271 l -8.543,-2.848 c -2.848,9.966 2.848,9.966 2.848,22.781 0,11.479 -12.814,18.509 -17.086,18.509 -4.271,0 -5.695,2.848 -5.695,2.848 0,0 -1.423,-2.848 -5.695,-2.848 -4.271,0 -17.086,-7.03 -17.086,-18.509 0,-12.814 5.695,-12.814 2.848,-22.781 l -8.543,2.848 c 0,0 5.695,0 5.695,4.271 0,4.271 -4.271,4.271 -5.695,4.271 -1.424,0 -7.119,0 -7.119,7.119 0,7.119 7.119,15.662 17.086,21.357 9.966,5.695 5.695,11.391 18.509,11.391 12.814,0 8.543,-5.695 18.509,-11.391 9.966,-5.695 17.086,-14.238 17.086,-21.357 0,-7.119 -5.696,-7.119 -7.119,-7.119 z"
         style="fill:#f0aa00"
         inkscape:connector-curvature="0" /></g><g
       id="g36"><path
         id="path30"
         d="m 135.546,235.138 -3.444,-1.548 c -0.572,-0.257 -1.206,-0.317 -1.816,-0.175 -2.22,0.513 -7.727,2.2 -11.826,6.923 l 4.271,1.423 z"
         style="fill:#73af00"
         inkscape:connector-curvature="0" /><path
         id="path32"
         d="m 141.241,235.138 3.444,-1.548 c 0.572,-0.257 1.206,-0.317 1.816,-0.175 2.22,0.513 7.727,2.2 11.826,6.923 l -4.271,1.423 z"
         style="fill:#73af00"
         inkscape:connector-curvature="0" /><path
         id="path34"
         d="m 138.897,236.067 2.596,-2.596 c 0.139,-0.139 0.139,-0.364 0,-0.503 -0.139,-0.139 -0.364,-0.139 -0.503,0 l -2.596,2.596 -2.596,-2.596 c -0.139,-0.139 -0.364,-0.139 -0.503,0 -0.139,0.139 -0.139,0.364 0,0.503 l 2.596,2.596 -2.596,2.596 c -0.139,0.139 -0.139,0.364 0,0.503 0.07,0.07 0.161,0.105 0.252,0.105 0.09,0 0.182,-0.035 0.252,-0.105 l 2.596,-2.596 2.596,2.596 c 0.07,0.07 0.161,0.105 0.252,0.105 0.092,0 0.182,-0.035 0.252,-0.105 0.139,-0.139 0.139,-0.364 0,-0.503 z"
         style="fill:#73af00"
         inkscape:connector-curvature="0" /></g><path
       id="path38"
       d="m 166.87,248.882 c 0,-2.422 -2.289,-3.469 -4.271,-3.924 v -1.128 c -2.68,-0.252 -4.177,-1.258 -6.775,-3.029 -1.001,-0.683 -2.136,-1.455 -3.507,-2.289 -5.006,-3.041 -8.854,-3.48 -11.075,-3.374 v 2.353 h -5.695 v -2.353 c -2.221,-0.106 -6.069,0.333 -11.075,3.374 -1.37,0.833 -2.506,1.606 -3.507,2.289 -2.599,1.77 -4.094,2.777 -6.775,3.029 v 1.128 c -1.983,0.454 -4.271,1.501 -4.271,3.924 l 4.271,-1.423 v 0.649 c 4.041,-0.298 6.351,-1.848 9.18,-3.775 0.959,-0.653 2.045,-1.394 3.319,-2.167 3.252,-1.976 5.779,-2.588 7.434,-2.732 v 2.33 h 8.543 v -2.33 c 1.655,0.145 4.182,0.756 7.434,2.732 1.276,0.775 2.361,1.514 3.319,2.167 2.828,1.927 5.139,3.478 9.18,3.775 v -0.649 z"
       style="fill:#f5f5f5"
       inkscape:connector-curvature="0" /><path
       id="path40"
       d="m 155.479,226.439 v -1.762 h -3.966 c 0.693,-0.595 1.119,-1.295 1.119,-2.135 0,-3.934 -8.95,-4.983 -14.238,-4.983 -5.288,0 -14.238,1.049 -14.238,4.983 0,0.84 0.426,1.54 1.119,2.135 h -3.966 v 1.762 c -3.486,0.778 -6.335,2.648 -6.485,2.749 l 1.579,2.369 c 0.039,-0.026 3.957,-2.609 7.753,-2.609 v -1.423 h 28.476 v 1.423 c 3.797,0 7.714,2.582 7.753,2.609 l 1.579,-2.369 c -0.149,-0.101 -2.999,-1.971 -6.485,-2.749 z m -11.39,-2.156 v -1.081 c 0,-0.697 -0.655,-1.208 -1.331,-1.039 l -4.364,1.091 -4.364,-1.091 c -0.676,-0.169 -1.331,0.342 -1.331,1.039 v 1.081 c -3.199,-0.47 -5.09,-1.252 -5.606,-1.741 0.77,-0.732 4.543,-2.135 11.3,-2.135 6.757,0 10.53,1.405 11.3,2.135 -0.514,0.488 -2.406,1.27 -5.604,1.741 z"
       style="fill:#3cc8ff"
       inkscape:connector-curvature="0" /><g
       id="g56"><path
         id="path42"
         d="m 138.572,242.3 0.361,1.081 1.14,0.009 c 0.148,0.001 0.209,0.19 0.09,0.277 l -0.917,0.678 0.344,1.087 c 0.044,0.141 -0.116,0.257 -0.236,0.171 l -0.928,-0.663 -0.928,0.663 c -0.12,0.086 -0.28,-0.031 -0.236,-0.171 l 0.344,-1.087 -0.917,-0.678 c -0.119,-0.087 -0.057,-0.276 0.09,-0.277 l 1.14,-0.009 0.361,-1.081 c 0.047,-0.141 0.244,-0.141 0.292,0 z"
         style="fill:#f5f5f5"
         inkscape:connector-curvature="0" /><path
         id="path44"
         d="m 132.99,242.665 0.472,1.038 1.135,-0.11 c 0.147,-0.014 0.227,0.167 0.119,0.266 l -0.841,0.77 0.456,1.045 c 0.06,0.136 -0.088,0.268 -0.216,0.195 l -0.992,-0.562 -0.853,0.757 c -0.11,0.098 -0.282,-0.001 -0.253,-0.146 l 0.228,-1.118 -0.983,-0.577 c -0.127,-0.075 -0.086,-0.268 0.061,-0.285 l 1.133,-0.128 0.245,-1.113 c 0.03,-0.146 0.228,-0.167 0.289,-0.032 z"
         style="fill:#f5f5f5"
         inkscape:connector-curvature="0" /><path
         id="path46"
         d="m 127.258,244.191 0.686,0.911 1.084,-0.354 c 0.14,-0.046 0.258,0.114 0.173,0.234 l -0.654,0.934 0.672,0.921 c 0.087,0.119 -0.028,0.28 -0.169,0.237 l -1.09,-0.334 -0.669,0.924 c -0.086,0.119 -0.276,0.06 -0.278,-0.087 l -0.02,-1.14 -1.085,-0.351 c -0.14,-0.045 -0.142,-0.244 -0.002,-0.291 l 1.078,-0.371 -0.002,-1.14 c -0.001,-0.147 0.188,-0.211 0.276,-0.093 z"
         style="fill:#f5f5f5"
         inkscape:connector-curvature="0" /><path
         id="path48"
         d="m 121.514,246.613 0.8,0.812 1.027,-0.494 c 0.134,-0.064 0.271,0.078 0.203,0.21 l -0.525,1.012 0.788,0.824 c 0.102,0.107 0.01,0.281 -0.136,0.258 l -1.126,-0.186 -0.541,1.004 c -0.07,0.13 -0.265,0.096 -0.287,-0.05 l -0.17,-1.128 -1.122,-0.204 c -0.146,-0.026 -0.173,-0.223 -0.041,-0.289 l 1.02,-0.51 -0.152,-1.13 c -0.02,-0.147 0.158,-0.234 0.262,-0.129 z"
         style="fill:#f5f5f5"
         inkscape:connector-curvature="0" /><path
         id="path50"
         d="m 143.862,242.665 -0.472,1.038 -1.135,-0.11 c -0.147,-0.014 -0.227,0.167 -0.119,0.266 l 0.841,0.77 -0.456,1.045 c -0.06,0.136 0.088,0.268 0.216,0.195 l 0.992,-0.562 0.853,0.757 c 0.11,0.098 0.282,-0.001 0.253,-0.146 l -0.228,-1.118 0.983,-0.577 c 0.127,-0.075 0.086,-0.268 -0.061,-0.285 l -1.133,-0.128 -0.245,-1.113 c -0.031,-0.146 -0.229,-0.167 -0.289,-0.032 z"
         style="fill:#f5f5f5"
         inkscape:connector-curvature="0" /><path
         id="path52"
         d="m 149.593,244.191 -0.686,0.911 -1.084,-0.354 c -0.14,-0.046 -0.258,0.114 -0.173,0.234 l 0.654,0.934 -0.672,0.921 c -0.087,0.119 0.028,0.28 0.169,0.237 l 1.09,-0.334 0.669,0.924 c 0.086,0.119 0.276,0.06 0.278,-0.087 l 0.02,-1.14 1.085,-0.351 c 0.14,-0.045 0.142,-0.244 0.002,-0.291 l -1.078,-0.371 0.002,-1.14 c 0.001,-0.147 -0.188,-0.211 -0.276,-0.093 z"
         style="fill:#f5f5f5"
         inkscape:connector-curvature="0" /><path
         id="path54"
         d="m 155.338,246.613 -0.8,0.812 -1.027,-0.494 c -0.134,-0.064 -0.271,0.078 -0.203,0.21 l 0.525,1.012 -0.788,0.824 c -0.102,0.107 -0.01,0.281 0.136,0.258 l 1.126,-0.186 0.541,1.004 c 0.07,0.13 0.265,0.096 0.287,-0.05 l 0.17,-1.128 1.122,-0.204 c 0.146,-0.026 0.173,-0.223 0.041,-0.289 l -1.02,-0.51 0.152,-1.13 c 0.019,-0.147 -0.159,-0.234 -0.262,-0.129 z"
         style="fill:#f5f5f5"
         inkscape:connector-curvature="0" /></g><polygon
       id="polygon58"
       points="135.813,281.317 144.578,281.317 148.628,277.847 145.513,279.093 135.19,279.093 128.56,276.468 "
       style="fill:#8c5a28" /><path
       id="path60"
       d="m 133.499,270.21 -0.7,7.06 -3.186,-1.216 c 0,-0.002 1.466,-3.404 3.886,-5.844 z"
       style="fill:#f5f5f5"
       inkscape:connector-curvature="0" /><g
       id="g68"><rect
         id="rect62"
         height="12.02"
         width="0.47099999"
         style="fill:#8c5a28"
         y="267.41"
         x="139.78" /><rect
         id="rect64"
         height="11.01"
         width="0.47099999"
         style="fill:#8c5a28"
         y="268.42999"
         x="144.14" /><rect
         id="rect66"
         height="11.01"
         width="0.47099999"
         style="fill:#8c5a28"
         y="268.42999"
         x="135.45" /></g><g
       id="g94"><path
         id="path70"
         d="m 141.462,278.292 h -2.877 c -0.299,0 -0.542,-0.243 -0.542,-0.542 v -1.453 c 0,-0.299 0.243,-0.542 0.542,-0.542 h 2.877 c 0.299,0 0.542,0.243 0.542,0.542 v 1.453 c 0,0.299 -0.243,0.542 -0.542,0.542 z"
         style="fill:#f5f5f5"
         inkscape:connector-curvature="0" /><path
         id="path72"
         d="m 141.462,274.91 h -2.877 c -0.299,0 -0.542,-0.243 -0.542,-0.542 v -1.453 c 0,-0.299 0.243,-0.542 0.542,-0.542 h 2.877 c 0.299,0 0.542,0.243 0.542,0.542 v 1.453 c 0,0.3 -0.243,0.542 -0.542,0.542 z"
         style="fill:#f5f5f5"
         inkscape:connector-curvature="0" /><path
         id="path74"
         d="m 141.462,271.796 h -2.877 c -0.299,0 -0.542,-0.243 -0.542,-0.542 v -1.453 c 0,-0.299 0.243,-0.542 0.542,-0.542 h 2.877 c 0.299,0 0.542,0.243 0.542,0.542 v 1.453 c 0,0.299 -0.243,0.542 -0.542,0.542 z"
         style="fill:#f5f5f5"
         inkscape:connector-curvature="0" /><path
         id="path76"
         d="m 145.551,278.292 h -2.343 c -0.299,0 -0.542,-0.243 -0.542,-0.542 v -1.453 c 0,-0.299 0.243,-0.542 0.542,-0.542 h 2.343 c 0.299,0 0.542,0.243 0.542,0.542 v 1.453 c 0,0.299 -0.243,0.542 -0.542,0.542 z"
         style="fill:#f5f5f5"
         inkscape:connector-curvature="0" /><path
         id="path78"
         d="m 145.551,275.179 h -2.343 c -0.299,0 -0.542,-0.243 -0.542,-0.542 v -1.055 c 0,-0.299 0.243,-0.542 0.542,-0.542 h 2.343 c 0.299,0 0.542,0.243 0.542,0.542 v 1.055 c 0,0.299 -0.243,0.542 -0.542,0.542 z"
         style="fill:#f5f5f5"
         inkscape:connector-curvature="0" /><path
         id="path80"
         d="m 145.551,272.093 h -2.343 c -0.299,0 -0.542,-0.243 -0.542,-0.542 v -0.712 c 0,-0.299 0.243,-0.542 0.542,-0.542 h 2.343 c 0.299,0 0.542,0.243 0.542,0.542 v 0.712 c 0,0.299 -0.243,0.542 -0.542,0.542 z"
         style="fill:#f5f5f5"
         inkscape:connector-curvature="0" /><path
         id="path82"
         d="m 136.852,278.292 h -2.343 c -0.299,0 -0.542,-0.243 -0.542,-0.542 v -1.453 c 0,-0.299 0.243,-0.542 0.542,-0.542 h 2.343 c 0.299,0 0.542,0.243 0.542,0.542 v 1.453 c -0.001,0.299 -0.243,0.542 -0.542,0.542 z"
         style="fill:#f5f5f5"
         inkscape:connector-curvature="0" /><path
         id="path84"
         d="m 136.852,275.179 h -2.343 c -0.299,0 -0.542,-0.243 -0.542,-0.542 v -1.055 c 0,-0.299 0.243,-0.542 0.542,-0.542 h 2.343 c 0.299,0 0.542,0.243 0.542,0.542 v 1.055 c -0.001,0.299 -0.243,0.542 -0.542,0.542 z"
         style="fill:#f5f5f5"
         inkscape:connector-curvature="0" /><path
         id="path86"
         d="m 136.852,272.093 h -2.343 c -0.299,0 -0.542,-0.243 -0.542,-0.542 v -0.712 c 0,-0.299 0.243,-0.542 0.542,-0.542 h 2.343 c 0.299,0 0.542,0.243 0.542,0.542 v 0.712 c -0.001,0.299 -0.243,0.542 -0.542,0.542 z"
         style="fill:#f5f5f5"
         inkscape:connector-curvature="0" /><polygon
         id="polygon88"
         points="135.915,269.853 138.008,269.128 135.915,268.43 "
         style="fill:#f5f5f5" /><polygon
         id="polygon90"
         points="144.609,269.853 146.702,269.128 144.609,268.43 "
         style="fill:#f5f5f5" /><polygon
         id="polygon92"
         points="140.253,268.831 142.347,268.106 140.253,267.409 "
         style="fill:#f5f5f5" /></g><polygon
       id="polygon96"
       points="137.212,259.486 140.258,259.486 141.665,258.28 140.582,258.712 136.996,258.712 134.693,257.801 "
       style="fill:#8c5a28" /><path
       id="path98"
       d="m 136.409,255.626 -0.243,2.453 -1.107,-0.423 c -0.001,0 0.509,-1.182 1.35,-2.03 z"
       style="fill:#f5f5f5"
       inkscape:connector-curvature="0" /><g
       id="g106"><rect
         id="rect100"
         height="4.177"
         width="0.163"
         style="fill:#8c5a28"
         y="254.64999"
         x="138.59" /><rect
         id="rect102"
         height="3.823"
         width="0.163"
         style="fill:#8c5a28"
         y="255.00999"
         x="140.10001" /><rect
         id="rect104"
         height="3.823"
         width="0.163"
         style="fill:#8c5a28"
         y="255.00999"
         x="137.08" /></g><g
       id="g138"><path
         id="path108"
         d="m 139.174,258.434 h -1 c -0.104,0 -0.189,-0.084 -0.189,-0.189 v -0.504 c 0,-0.104 0.084,-0.189 0.189,-0.189 h 1 c 0.104,0 0.189,0.084 0.189,0.189 v 0.504 c 0,0.105 -0.084,0.189 -0.189,0.189 z"
         style="fill:#f5f5f5"
         inkscape:connector-curvature="0" /><path
         id="path110"
         d="m 139.174,257.26 h -1 c -0.104,0 -0.189,-0.084 -0.189,-0.189 v -0.504 c 0,-0.104 0.084,-0.189 0.189,-0.189 h 1 c 0.104,0 0.189,0.084 0.189,0.189 v 0.504 c 0,0.104 -0.084,0.189 -0.189,0.189 z"
         style="fill:#f5f5f5"
         inkscape:connector-curvature="0" /><path
         id="path112"
         d="m 139.174,256.178 h -1 c -0.104,0 -0.189,-0.084 -0.189,-0.189 v -0.504 c 0,-0.104 0.084,-0.189 0.189,-0.189 h 1 c 0.104,0 0.189,0.084 0.189,0.189 v 0.504 c 0,0.105 -0.084,0.189 -0.189,0.189 z"
         style="fill:#f5f5f5"
         inkscape:connector-curvature="0" /><path
         id="path114"
         d="m 140.596,258.434 h -0.814 c -0.104,0 -0.189,-0.084 -0.189,-0.189 v -0.504 c 0,-0.104 0.084,-0.189 0.189,-0.189 h 0.814 c 0.104,0 0.189,0.084 0.189,0.189 v 0.504 c -0.001,0.105 -0.086,0.189 -0.189,0.189 z"
         style="fill:#f5f5f5"
         inkscape:connector-curvature="0" /><path
         id="path116"
         d="m 140.596,257.353 h -0.814 c -0.104,0 -0.189,-0.084 -0.189,-0.189 v -0.366 c 0,-0.104 0.084,-0.189 0.189,-0.189 h 0.814 c 0.104,0 0.189,0.084 0.189,0.189 v 0.366 c -0.001,0.106 -0.086,0.189 -0.189,0.189 z"
         style="fill:#f5f5f5"
         inkscape:connector-curvature="0" /><path
         id="path118"
         d="m 140.596,256.28 h -0.814 c -0.104,0 -0.189,-0.084 -0.189,-0.189 v -0.247 c 0,-0.104 0.084,-0.189 0.189,-0.189 h 0.814 c 0.104,0 0.189,0.084 0.189,0.189 v 0.247 c -0.001,0.106 -0.086,0.189 -0.189,0.189 z"
         style="fill:#f5f5f5"
         inkscape:connector-curvature="0" /><path
         id="path120"
         d="m 137.573,258.434 h -0.814 c -0.104,0 -0.189,-0.084 -0.189,-0.189 v -0.504 c 0,-0.104 0.084,-0.189 0.189,-0.189 h 0.814 c 0.104,0 0.189,0.084 0.189,0.189 v 0.504 c -0.001,0.105 -0.085,0.189 -0.189,0.189 z"
         style="fill:#f5f5f5"
         inkscape:connector-curvature="0" /><path
         id="path122"
         d="m 137.573,257.353 h -0.814 c -0.104,0 -0.189,-0.084 -0.189,-0.189 v -0.366 c 0,-0.104 0.084,-0.189 0.189,-0.189 h 0.814 c 0.104,0 0.189,0.084 0.189,0.189 v 0.366 c -0.001,0.106 -0.085,0.189 -0.189,0.189 z"
         style="fill:#f5f5f5"
         inkscape:connector-curvature="0" /><path
         id="path124"
         d="m 137.573,256.28 h -0.814 c -0.104,0 -0.189,-0.084 -0.189,-0.189 v -0.247 c 0,-0.104 0.084,-0.189 0.189,-0.189 h 0.814 c 0.104,0 0.189,0.084 0.189,0.189 v 0.247 c -0.001,0.106 -0.085,0.189 -0.189,0.189 z"
         style="fill:#f5f5f5"
         inkscape:connector-curvature="0" /><polygon
         id="polygon126"
         points="137.248,255.502 137.975,255.251 137.248,255.008 "
         style="fill:#f5f5f5" /><polygon
         id="polygon128"
         points="140.268,255.502 140.995,255.251 140.268,255.008 "
         style="fill:#f5f5f5" /><polygon
         id="polygon130"
         points="138.755,255.147 139.482,254.895 138.755,254.654 "
         style="fill:#f5f5f5" /><path
         id="path132"
         d="m 132.91,250.305 h -1.848 c -0.666,0 -1.212,-0.545 -1.212,-1.212 v 0 c 0,-0.666 0.545,-1.212 1.212,-1.212 h 1.848 c 0.666,0 1.212,0.545 1.212,1.212 v 0 c 10e-4,0.667 -0.545,1.212 -1.212,1.212 z"
         style="fill:#f5f5f5"
         inkscape:connector-curvature="0" /><path
         id="path134"
         d="m 146.965,250.305 h -1.219 c -0.669,0 -1.212,-0.543 -1.212,-1.212 v 0 c 0,-0.669 0.543,-1.212 1.212,-1.212 h 1.219 c 0.669,0 1.212,0.543 1.212,1.212 v 0 c -0.001,0.669 -0.544,1.212 -1.212,1.212 z"
         style="fill:#f5f5f5"
         inkscape:connector-curvature="0" /><path
         id="path136"
         d="m 155.621,252.129 h -1.074 c -0.383,0 -0.693,-0.31 -0.693,-0.693 v -0.115 c 0,-0.383 0.31,-0.693 0.693,-0.693 h 1.074 c 0.383,0 0.693,0.31 0.693,0.693 v 0.115 c 0,0.383 -0.31,0.693 -0.693,0.693 z"
         style="fill:#f5f5f5"
         inkscape:connector-curvature="0" /></g><g
       id="g140" /><g
       id="g142" /><g
       id="g144" /><g
       id="g146" /><g
       id="g148" /><g
       id="g150" /><g
       id="g152" /><g
       id="g154" /><g
       id="g156" /><g
       id="g158" /><g
       id="g160" /><g
       id="g162" /><g
       id="g164" /><g
       id="g166" /><g
       id="g168" /></g></svg>