<?xml version="1.0" encoding="UTF-8" standalone="no"?>
<!-- Generator: Adobe Illustrator 19.0.0, SVG Export Plug-In . SVG Version: 6.00 Build 0)  -->

<svg
   xmlns:dc="http://purl.org/dc/elements/1.1/"
   xmlns:cc="http://creativecommons.org/ns#"
   xmlns:rdf="http://www.w3.org/1999/02/22-rdf-syntax-ns#"
   xmlns:svg="http://www.w3.org/2000/svg"
   xmlns="http://www.w3.org/2000/svg"
   xmlns:sodipodi="http://sodipodi.sourceforge.net/DTD/sodipodi-0.dtd"
   xmlns:inkscape="http://www.inkscape.org/namespaces/inkscape"
   version="1.1"
   id="Layer_1"
   x="0px"
   y="0px"
   viewBox="0 0 24.000001 24.000001"
   xml:space="preserve"
   sodipodi:docname="es_CL.svg"
   width="24"
   height="24"
   inkscape:version="0.92.1 r15381"><metadata
     id="metadata836"><rdf:RDF><cc:Work
         rdf:about=""><dc:format>image/svg+xml</dc:format><dc:type
           rdf:resource="http://purl.org/dc/dcmitype/StillImage" /><dc:title></dc:title></cc:Work></rdf:RDF></metadata><defs
     id="defs834" /><sodipodi:namedview
     pagecolor="#ffffff"
     bordercolor="#666666"
     borderopacity="1"
     objecttolerance="10"
     gridtolerance="10"
     guidetolerance="10"
     inkscape:pageopacity="0"
     inkscape:pageshadow="2"
     inkscape:window-width="1440"
     inkscape:window-height="825"
     id="namedview832"
     showgrid="false"
     inkscape:zoom="0.46093662"
     inkscape:cx="256.00049"
     inkscape:cy="82.440835"
     inkscape:window-x="0"
     inkscape:window-y="0"
     inkscape:window-maximized="1"
     inkscape:current-layer="Layer_1" /><g
     id="g857"
     transform="matrix(0.04687491,0,0,0.04687491,-3.97455e-7,2.304e-5)"><path
       id="path793"
       d="M 512,256 H 0 V 97.103 c 0,-4.875 3.953,-8.828 8.828,-8.828 h 494.345 c 4.875,0 8.828,3.953 8.828,8.828 z"
       style="fill:#f5f5f5"
       inkscape:connector-curvature="0" /><path
       id="path795"
       d="m 17.655,256 v -8.828 H 0 v 8.828 8.828 150.069 c 0,4.875 3.953,8.828 8.828,8.828 h 494.345 c 4.875,0 8.828,-3.953 8.828,-8.828 V 256 Z"
       style="fill:#ff4b55"
       inkscape:connector-curvature="0" /><path
       id="path797"
       d="M 158.897,256 H 8.828 C 3.953,256 0,252.047 0,247.172 V 97.103 c 0,-4.875 3.953,-8.828 8.828,-8.828 h 150.069 c 4.875,0 8.828,3.953 8.828,8.828 v 150.069 c -0.001,4.875 -3.953,8.828 -8.828,8.828 z"
       style="fill:#41479b"
       inkscape:connector-curvature="0" /><path
       id="path799"
       d="m 87.262,134.487 8.416,25.234 26.6,0.206 c 3.444,0.026 4.872,4.422 2.101,6.467 l -21.398,15.801 8.023,25.362 c 1.038,3.284 -2.7,5.999 -5.502,3.997 l -21.64,-15.467 -21.641,15.468 c -2.802,2.003 -6.54,-0.714 -5.502,-3.997 l 8.023,-25.362 -21.398,-15.801 c -2.771,-2.046 -1.343,-6.441 2.101,-6.467 l 26.6,-0.206 8.416,-25.234 c 1.09,-3.268 5.712,-3.268 6.801,-0.001 z"
       style="fill:#f5f5f5"
       inkscape:connector-curvature="0" /><g
       id="g801" /><g
       id="g803" /><g
       id="g805" /><g
       id="g807" /><g
       id="g809" /><g
       id="g811" /><g
       id="g813" /><g
       id="g815" /><g
       id="g817" /><g
       id="g819" /><g
       id="g821" /><g
       id="g823" /><g
       id="g825" /><g
       id="g827" /><g
       id="g829" /></g></svg>