<?xml version="1.0" standalone="no"?><!-- Generator: Gravit.io --><svg xmlns="http://www.w3.org/2000/svg" xmlns:xlink="http://www.w3.org/1999/xlink" style="isolation:isolate" viewBox="0 0 24 24" width="24" height="24"><defs><clipPath id="_clipPath_LHnqTJkkrU3msvL3de5JHaNPrglnBedb"><rect width="24" height="24"/></clipPath></defs><g clip-path="url(#_clipPath_LHnqTJkkrU3msvL3de5JHaNPrglnBedb)"><g id="Group"><path d=" M 23.999953 15.931047 L 0 15.931047 L 0 19.448259 C 0 19.676774 0.185297 19.862071 0.413812 19.862071 L 23.586188 19.862071 C 23.814703 19.862071 24 19.676774 24 19.448259 L 23.999953 15.931047 L 23.999953 15.931047 Z " fill="rgb(255,75,85)"/><path d=" M 23.999953 12.000023 L 0 12.000023 L 0 4.551741 C 0 4.323226 0.185297 4.137929 0.413812 4.137929 L 23.586188 4.137929 C 23.814703 4.137929 24 4.323226 24 4.551741 L 23.999953 12.000023 L 23.999953 12.000023 Z " fill="rgb(255,225,90)"/><rect x="0" y="12" width="24" height="3.931" transform="matrix(1,0,0,1,0,0)" fill="rgb(65,71,155)"/></g></g></svg>