<?xml version="1.0" encoding="UTF-8" standalone="no"?>
<!-- Generator: Adobe Illustrator 19.0.0, SVG Export Plug-In . SVG Version: 6.00 Build 0)  -->

<svg
   xmlns:dc="http://purl.org/dc/elements/1.1/"
   xmlns:cc="http://creativecommons.org/ns#"
   xmlns:rdf="http://www.w3.org/1999/02/22-rdf-syntax-ns#"
   xmlns:svg="http://www.w3.org/2000/svg"
   xmlns="http://www.w3.org/2000/svg"
   xmlns:sodipodi="http://sodipodi.sourceforge.net/DTD/sodipodi-0.dtd"
   xmlns:inkscape="http://www.inkscape.org/namespaces/inkscape"
   version="1.1"
   id="Layer_1"
   x="0px"
   y="0px"
   viewBox="0 0 24.000001 24.000001"
   xml:space="preserve"
   sodipodi:docname="es_CU.svg"
   width="24"
   height="24"
   inkscape:version="0.92.1 r15381"><metadata
     id="metadata53"><rdf:RDF><cc:Work
         rdf:about=""><dc:format>image/svg+xml</dc:format><dc:type
           rdf:resource="http://purl.org/dc/dcmitype/StillImage" /><dc:title></dc:title></cc:Work></rdf:RDF></metadata><defs
     id="defs51" /><sodipodi:namedview
     pagecolor="#ffffff"
     bordercolor="#666666"
     borderopacity="1"
     objecttolerance="10"
     gridtolerance="10"
     guidetolerance="10"
     inkscape:pageopacity="0"
     inkscape:pageshadow="2"
     inkscape:window-width="1440"
     inkscape:window-height="825"
     id="namedview49"
     showgrid="false"
     inkscape:zoom="0.46093662"
     inkscape:cx="256.00049"
     inkscape:cy="256.00049"
     inkscape:window-x="0"
     inkscape:window-y="0"
     inkscape:window-maximized="1"
     inkscape:current-layer="Layer_1" /><g
     id="g78"
     transform="matrix(0.04687491,0,0,0.04687491,-3.97455e-7,2.304e-5)"><g
       id="g6"><path
         id="path2"
         d="M 512,155.366 H 0 V 97.104 c 0,-4.875 3.953,-8.828 8.828,-8.828 h 494.345 c 4.875,0 8.828,3.953 8.828,8.828 z"
         style="fill:#41479b"
         inkscape:connector-curvature="0" /><path
         id="path4"
         d="M 503.172,423.724 H 8.828 C 3.953,423.724 0,419.771 0,414.896 v -58.262 h 512 v 58.262 c 0,4.876 -3.953,8.828 -8.828,8.828 z"
         style="fill:#41479b"
         inkscape:connector-curvature="0" /></g><rect
       id="rect8"
       height="67.089996"
       width="512"
       style="fill:#f5f5f5"
       y="155.37"
       x="0" /><rect
       id="rect10"
       height="67.089996"
       width="512"
       style="fill:#41479b"
       y="222.46001"
       x="0" /><rect
       id="rect12"
       height="67.089996"
       width="512"
       style="fill:#f5f5f5"
       y="289.54999"
       x="0" /><path
       id="path14"
       d="M 3.31,421.628 258.712,259.874 c 2.841,-1.8 2.841,-5.945 0,-7.745 L 3.31,90.373 C 1.335,91.992 0,94.351 0,97.104 v 317.792 c 0,2.753 1.336,5.112 3.31,6.732 z"
       style="fill:#ff4b55"
       inkscape:connector-curvature="0" /><path
       id="path16"
       d="m 88.526,213.441 9.064,27.176 28.647,0.222 c 2.219,0.018 3.139,2.849 1.354,4.168 l -23.045,17.018 8.641,27.313 c 0.67,2.116 -1.74,3.866 -3.545,2.575 L 86.336,275.255 63.03,291.914 c -1.805,1.291 -4.215,-0.46 -3.545,-2.575 L 68.126,262.027 45.08,245.009 c -1.785,-1.319 -0.865,-4.151 1.354,-4.168 l 28.647,-0.222 9.064,-27.176 c 0.701,-2.107 3.679,-2.107 4.381,-0.002 z"
       style="fill:#f5f5f5"
       inkscape:connector-curvature="0" /><g
       id="g18" /><g
       id="g20" /><g
       id="g22" /><g
       id="g24" /><g
       id="g26" /><g
       id="g28" /><g
       id="g30" /><g
       id="g32" /><g
       id="g34" /><g
       id="g36" /><g
       id="g38" /><g
       id="g40" /><g
       id="g42" /><g
       id="g44" /><g
       id="g46" /></g></svg>