<?xml version="1.0" encoding="UTF-8" standalone="no"?>
<!-- Generator: Adobe Illustrator 19.0.0, SVG Export Plug-In . SVG Version: 6.00 Build 0)  -->

<svg
   xmlns:dc="http://purl.org/dc/elements/1.1/"
   xmlns:cc="http://creativecommons.org/ns#"
   xmlns:rdf="http://www.w3.org/1999/02/22-rdf-syntax-ns#"
   xmlns:svg="http://www.w3.org/2000/svg"
   xmlns="http://www.w3.org/2000/svg"
   xmlns:sodipodi="http://sodipodi.sourceforge.net/DTD/sodipodi-0.dtd"
   xmlns:inkscape="http://www.inkscape.org/namespaces/inkscape"
   version="1.1"
   id="Layer_1"
   x="0px"
   y="0px"
   viewBox="0 0 24.000001 24.000001"
   xml:space="preserve"
   sodipodi:docname="es_EC.svg"
   width="24"
   height="24"
   inkscape:version="0.92.1 r15381"><metadata
     id="metadata133"><rdf:RDF><cc:Work
         rdf:about=""><dc:format>image/svg+xml</dc:format><dc:type
           rdf:resource="http://purl.org/dc/dcmitype/StillImage" /><dc:title></dc:title></cc:Work></rdf:RDF></metadata><defs
     id="defs131" /><sodipodi:namedview
     pagecolor="#ffffff"
     bordercolor="#666666"
     borderopacity="1"
     objecttolerance="10"
     gridtolerance="10"
     guidetolerance="10"
     inkscape:pageopacity="0"
     inkscape:pageshadow="2"
     inkscape:window-width="1440"
     inkscape:window-height="825"
     id="namedview129"
     showgrid="false"
     inkscape:zoom="0.46093662"
     inkscape:cx="256.00049"
     inkscape:cy="256.00049"
     inkscape:window-x="0"
     inkscape:window-y="0"
     inkscape:window-maximized="1"
     inkscape:current-layer="Layer_1" /><g
     id="g198"
     transform="scale(0.04687491)"><path
       id="path2"
       d="M 512,339.863 H 0 v 75.034 c 0,4.875 3.953,8.828 8.828,8.828 h 494.345 c 4.875,0 8.828,-3.953 8.828,-8.828 z"
       style="fill:#ff4b55"
       inkscape:connector-curvature="0" /><path
       id="path4"
       d="M 512,256.001 H 0 V 97.104 c 0,-4.875 3.953,-8.828 8.828,-8.828 h 494.345 c 4.875,0 8.828,3.953 8.828,8.828 z"
       style="fill:#ffe15a"
       inkscape:connector-curvature="0" /><rect
       id="rect6"
       height="83.860001"
       width="512"
       style="fill:#41479b"
       y="256.00101"
       x="0" /><path
       id="path8"
       d="m 246.788,260.954 64.48,-55.268 v 79.987 c 0,13.481 -10.929,24.408 -24.408,24.408 v 0 c -6.03,0 -11.847,-2.232 -16.329,-6.265 l -23.743,-21.368 z"
       style="fill:#ffe15a"
       inkscape:connector-curvature="0" /><path
       id="path10"
       d="m 280.801,292.405 -18.66,-16.794 v -27.815 l 33.775,-28.95 v 20.221 46.607 c 0,4.993 -4.063,9.056 -9.056,9.056 -2.241,0 -4.393,-0.826 -6.059,-2.325 z"
       style="fill:#ff4b55"
       inkscape:connector-curvature="0" /><path
       id="path12"
       d="m 271.352,239.901 v 31.617 l 15.352,13.862 v -46.505 -12.132 l 9.212,-7.896 v 20.221 46.607 c 0,4.993 -4.063,9.056 -9.056,9.056 -2.241,0 -4.393,-0.825 -6.059,-2.325 l -18.66,-16.794 v -27.815 z"
       style="fill:#41479b"
       inkscape:connector-curvature="0" /><path
       id="path14"
       d="m 265.212,260.954 -64.48,-55.268 v 79.987 c 0,13.481 10.929,24.408 24.408,24.408 v 0 c 6.03,0 11.847,-2.232 16.329,-6.265 l 23.743,-21.368 z"
       style="fill:#ffe15a"
       inkscape:connector-curvature="0" /><path
       id="path16"
       d="m 231.199,292.405 18.66,-16.794 v -27.815 l -33.775,-28.95 v 20.221 46.607 c 0,4.993 4.063,9.056 9.056,9.056 2.241,0 4.393,-0.826 6.059,-2.325 z"
       style="fill:#ff4b55"
       inkscape:connector-curvature="0" /><g
       id="g24"><path
         id="path18"
         d="m 240.648,239.901 v 31.617 l -15.352,13.862 v -46.505 -12.132 l -9.212,-7.896 v 20.221 46.607 c 0,4.993 4.063,9.056 9.056,9.056 2.241,0 4.393,-0.825 6.059,-2.325 l 18.66,-16.794 v -27.815 z"
         style="fill:#41479b"
         inkscape:connector-curvature="0" /><rect
         id="rect20"
         height="26.448999"
         width="4.414"
         style="fill:#41479b"
         y="205.961"
         x="309.04001" /><rect
         id="rect22"
         height="26.448999"
         width="4.414"
         style="fill:#41479b"
         y="205.961"
         x="198.50999" /></g><g
       id="g32"><path
         id="path26"
         d="m 246.788,193.405 c 0,0 6.141,-29.17 -15.352,-25.332 -21.493,3.838 -21.493,9.978 -46.057,22.261 0,0 27.634,6.141 39.916,3.071 0,0 9.212,12.281 18.423,15.352 h 9.212 z"
         style="fill:#5a4646"
         inkscape:connector-curvature="0" /><path
         id="path28"
         d="m 265.212,193.405 c 0,0 -6.141,-29.17 15.352,-25.332 21.493,3.838 21.493,9.978 46.057,22.261 0,0 -27.634,6.141 -39.916,3.071 0,0 -9.212,12.281 -18.423,15.352 h -9.212 z"
         style="fill:#5a4646"
         inkscape:connector-curvature="0" /><path
         id="path30"
         d="m 265.212,208.757 h -18.423 v -15.466 c 0,-5.025 4.073,-9.098 9.098,-9.098 h 0.227 c 5.025,0 9.098,4.073 9.098,9.098 z"
         style="fill:#5a4646"
         inkscape:connector-curvature="0" /></g><circle
       id="circle34"
       r="6.1409998"
       cy="193.401"
       cx="256"
       style="fill:#e6e1cd" /><path
       id="path36"
       d="m 242.823,189.439 11.546,6.166 c 0.969,0.518 2.162,0.34 2.937,-0.437 v 0 c 0.974,-0.974 0.974,-2.552 0,-3.527 l -7.448,-7.448 h -1.791 c -2.896,0 -5.244,2.348 -5.244,5.246 z"
       style="fill:#ffd0af"
       inkscape:connector-curvature="0" /><path
       id="path38"
       d="m 246.827,190.334 h -9.249 l 4.047,-4.738 c 0.76,-0.889 1.871,-1.402 3.042,-1.402 h 5.192 v 3.108 c 0,1.674 -1.358,3.032 -3.032,3.032 z"
       style="fill:#ffaf94"
       inkscape:connector-curvature="0" /><g
       id="g44"><path
         id="path40"
         d="m 282.186,208.765 c -2.072,-2.458 -2.514,-5.717 -1.504,-8.541 2.954,-0.516 6.091,0.471 8.162,2.931 1.77,2.101 2.283,4.772 1.784,7.272 0.614,1.042 1.364,2.382 2.189,3.964 0.041,-0.225 0.032,-0.448 0.096,-0.673 0.724,-2.546 2.743,-4.348 5.135,-4.958 1.713,1.778 2.483,4.373 1.759,6.918 -0.622,2.19 -2.228,3.777 -4.18,4.581 0.771,1.769 1.534,3.677 2.247,5.69 0.041,-0.118 0.044,-0.238 0.092,-0.355 1,-2.451 3.206,-4.019 5.65,-4.362 1.506,1.955 1.986,4.619 0.987,7.07 -0.875,2.144 -2.69,3.558 -4.764,4.121 1.068,4.213 1.775,8.683 1.775,13.183 h -3.071 c 0,-3.922 -0.602,-7.85 -1.511,-11.608 -1.895,0.612 -4.012,0.481 -5.845,-0.641 -2.236,-1.37 -3.416,-3.778 -3.361,-6.223 2.154,-1.16 4.835,-1.203 7.071,0.168 0.081,0.049 0.135,0.121 0.213,0.173 -0.658,-1.89 -1.358,-3.683 -2.077,-5.365 -1.843,0.871 -4.012,1.005 -6.002,0.071 -2.374,-1.116 -3.811,-3.379 -4.026,-5.815 2.006,-1.386 4.657,-1.721 7.023,-0.62 -0.845,-1.625 -1.608,-2.986 -2.206,-4.002 -2.115,-0.244 -4.152,-1.218 -5.636,-2.979 z"
         style="fill:#8cb400"
         inkscape:connector-curvature="0" /><path
         id="path42"
         d="m 229.814,208.765 c 2.072,-2.458 2.514,-5.717 1.504,-8.541 -2.954,-0.516 -6.091,0.471 -8.162,2.931 -1.77,2.101 -2.283,4.772 -1.784,7.272 -0.614,1.042 -1.364,2.382 -2.189,3.964 -0.041,-0.225 -0.032,-0.448 -0.096,-0.673 -0.724,-2.546 -2.743,-4.348 -5.135,-4.958 -1.713,1.778 -2.483,4.373 -1.759,6.918 0.622,2.19 2.228,3.777 4.18,4.581 -0.771,1.769 -1.534,3.677 -2.247,5.69 -0.041,-0.118 -0.044,-0.238 -0.092,-0.355 -1,-2.451 -3.206,-4.019 -5.65,-4.362 -1.506,1.955 -1.986,4.619 -0.986,7.07 0.875,2.144 2.69,3.558 4.764,4.121 -1.068,4.213 -1.775,8.683 -1.775,13.183 h 3.071 c 0,-3.922 0.602,-7.85 1.511,-11.608 1.895,0.612 4.012,0.481 5.845,-0.641 2.237,-1.37 3.416,-3.778 3.361,-6.223 -2.154,-1.16 -4.835,-1.203 -7.071,0.168 -0.081,0.049 -0.135,0.121 -0.213,0.173 0.658,-1.89 1.358,-3.683 2.077,-5.365 1.843,0.871 4.012,1.005 6.002,0.071 2.374,-1.116 3.811,-3.379 4.026,-5.815 -2.006,-1.386 -4.657,-1.721 -7.023,-0.62 0.845,-1.625 1.608,-2.986 2.206,-4.002 2.114,-0.244 4.151,-1.218 5.635,-2.979 z"
         style="fill:#8cb400"
         inkscape:connector-curvature="0" /></g><path
       id="path46"
       d="m 256,276.307 -64.48,-55.268 v 79.987 c 0,13.481 10.929,24.408 24.408,24.408 v 0 c 6.03,0 11.847,-2.232 16.329,-6.265 L 256,297.801 Z"
       style="fill:#ffe15a"
       inkscape:connector-curvature="0" /><path
       id="path48"
       d="m 221.987,307.757 18.66,-16.794 v -27.815 l -33.775,-28.95 v 20.221 46.607 c 0,4.993 4.063,9.056 9.056,9.056 2.242,0 4.393,-0.825 6.059,-2.325 z"
       style="fill:#ff4b55"
       inkscape:connector-curvature="0" /><path
       id="path50"
       d="m 231.436,255.253 v 31.617 l -15.352,13.862 v -46.505 -12.132 l -9.212,-7.896 v 20.221 46.607 c 0,4.993 4.063,9.056 9.056,9.056 2.241,0 4.393,-0.825 6.059,-2.325 l 18.66,-16.794 v -27.815 z"
       style="fill:#41479b"
       inkscape:connector-curvature="0" /><path
       id="path52"
       d="m 256,276.307 64.48,-55.268 v 79.987 c 0,13.481 -10.929,24.408 -24.408,24.408 v 0 c -6.03,0 -11.847,-2.232 -16.329,-6.265 L 256,297.801 Z"
       style="fill:#ffe15a"
       inkscape:connector-curvature="0" /><path
       id="path54"
       d="m 290.013,307.757 -18.66,-16.794 v -27.815 l 33.775,-28.95 v 20.221 46.607 c 0,4.993 -4.063,9.056 -9.056,9.056 -2.243,0 -4.393,-0.825 -6.059,-2.325 z"
       style="fill:#ff4b55"
       inkscape:connector-curvature="0" /><path
       id="path56"
       d="m 280.564,255.253 v 31.617 l 15.352,13.862 v -46.505 -12.132 l 9.212,-7.896 v 20.221 46.607 c 0,4.993 -4.063,9.056 -9.056,9.056 -2.241,0 -4.393,-0.825 -6.059,-2.325 l -18.66,-16.794 v -27.815 z"
       style="fill:#41479b"
       inkscape:connector-curvature="0" /><ellipse
       id="ellipse58"
       ry="46.060001"
       rx="30.705"
       cy="254.811"
       cx="256"
       style="fill:#69c3ff" /><path
       id="path60"
       d="m 228.366,267.096 h 55.268 l 3.071,-12.281 -13.993,2.333 c -2.807,0.468 -5.678,-0.332 -7.839,-2.184 l -15.884,-13.615 c -1.419,-1.217 -3.228,-1.886 -5.097,-1.886 v 0 c -2.077,0 -4.07,0.825 -5.538,2.294 l -9.988,9.988 z"
       style="fill:#009b64"
       inkscape:connector-curvature="0" /><path
       id="path62"
       d="m 253.087,252.751 5.274,-3.37 -9.374,-8.034 c -1.419,-1.217 -3.228,-1.886 -5.097,-1.886 v 0 c -2.077,0 -4.07,0.825 -5.538,2.294 l -9.988,9.988 v 3.071 l 15.352,-3.071 2.714,1.357 c 2.128,1.064 4.655,0.93 6.657,-0.349 z"
       style="fill:#f5f5f5"
       inkscape:connector-curvature="0" /><polygon
       id="polygon64"
       points="228.366,267.096 231.436,285.518 246.788,300.871 256,300.871 268.281,297.801 280.564,285.518 283.634,267.096 "
       style="fill:#5aa0e6" /><path
       id="path66"
       d="m 256,303.941 c -18.624,0 -33.775,-22.039 -33.775,-49.128 0,-27.089 15.151,-49.128 33.775,-49.128 18.624,0 33.775,22.039 33.775,49.128 0,27.089 -15.151,49.128 -33.775,49.128 z m 0,-92.113 c -15.236,0 -27.634,19.284 -27.634,42.987 0,23.703 12.397,42.987 27.634,42.987 15.237,0 27.634,-19.284 27.634,-42.987 0,-23.703 -12.398,-42.987 -27.634,-42.987 z"
       style="fill:#ffc88c"
       inkscape:connector-curvature="0" /><g
       id="g72"><path
         id="path68"
         d="m 234.339,300.595 c -2.574,-3.554 -6.406,-5.865 -10.746,-5.865 -4.34,0 -8.172,2.311 -10.746,5.865 4.39,1.217 7.982,4.781 9.683,9.479 0.685,1.892 1.064,3.968 1.064,6.15 -0.001,-7.596 4.588,-13.922 10.745,-15.629 z"
         style="fill:#e1e1e1"
         inkscape:connector-curvature="0" /><path
         id="path70"
         d="m 226.031,310.282 c 0,0 -0.239,4.094 -2.339,6.013 l -0.088,-0.072 c -2.099,-1.919 -2.339,-6.013 -2.339,-6.013 z"
         style="fill:#e1e1e1"
         inkscape:connector-curvature="0" /></g><path
       id="path74"
       d="m 294.4,311.617 h -76.8 c -0.838,0 -1.516,-0.679 -1.516,-1.516 v -0.038 c 0,-0.838 0.679,-1.516 1.516,-1.516 h 76.8 c 0.838,0 1.516,0.679 1.516,1.516 v 0.038 c 0,0.837 -0.678,1.516 -1.516,1.516 z"
       style="fill:#966446"
       inkscape:connector-curvature="0" /><path
       id="path76"
       d="m 271.428,316.223 h -30.856 c -3.35,0 -6.066,-2.716 -6.066,-6.066 v -0.151 c 0,-3.35 2.716,-6.066 6.066,-6.066 h 30.856 c 3.35,0 6.066,2.716 6.066,6.066 v 0.151 c -0.001,3.35 -2.717,6.066 -6.066,6.066 z"
       style="fill:#be915a"
       inkscape:connector-curvature="0" /><path
       id="path78"
       d="M 228.366,308.547 H 217.62 c -0.847,0 -1.535,0.687 -1.535,1.535 0,0.848 0.687,1.535 1.535,1.535 h 10.746 z"
       style="fill:#b9b9b9"
       inkscape:connector-curvature="0" /><polygon
       id="polygon80"
       points="249.859,316.223 256,316.223 256,344.277 243.719,340.787 "
       style="fill:#ff4b55" /><polygon
       id="polygon82"
       points="243.719,316.223 252.929,316.223 246.788,337.717 234.507,334.646 "
       style="fill:#41479b" /><polygon
       id="polygon84"
       points="246.788,316.223 240.648,316.223 231.436,328.505 240.648,331.575 "
       style="fill:#ffe15a" /><polygon
       id="polygon86"
       points="262.141,316.223 256,316.223 256,344.277 268.281,340.787 "
       style="fill:#ff4b55" /><polygon
       id="polygon88"
       points="268.281,316.223 259.071,316.223 265.212,337.717 277.493,334.646 "
       style="fill:#41479b" /><polygon
       id="polygon90"
       points="265.212,316.223 271.352,316.223 280.564,328.505 271.352,331.575 "
       style="fill:#ffe15a" /><g
       id="g96"><polygon
         id="polygon92"
         points="193.728,221.036 193.728,247.483 189.314,243.035 189.314,221.036 "
         style="fill:#41479b" /><polygon
         id="polygon94"
         points="322.646,221.036 322.646,243.035 318.232,247.483 318.232,221.036 "
         style="fill:#41479b" /></g><g
       id="g98" /><g
       id="g100" /><g
       id="g102" /><g
       id="g104" /><g
       id="g106" /><g
       id="g108" /><g
       id="g110" /><g
       id="g112" /><g
       id="g114" /><g
       id="g116" /><g
       id="g118" /><g
       id="g120" /><g
       id="g122" /><g
       id="g124" /><g
       id="g126" /></g></svg>