<?xml version="1.0" encoding="UTF-8" standalone="no"?>
<!-- Generator: Adobe Illustrator 19.0.0, SVG Export Plug-In . SVG Version: 6.00 Build 0)  -->

<svg
   xmlns:dc="http://purl.org/dc/elements/1.1/"
   xmlns:cc="http://creativecommons.org/ns#"
   xmlns:rdf="http://www.w3.org/1999/02/22-rdf-syntax-ns#"
   xmlns:svg="http://www.w3.org/2000/svg"
   xmlns="http://www.w3.org/2000/svg"
   xmlns:sodipodi="http://sodipodi.sourceforge.net/DTD/sodipodi-0.dtd"
   xmlns:inkscape="http://www.inkscape.org/namespaces/inkscape"
   version="1.1"
   id="Layer_1"
   x="0px"
   y="0px"
   viewBox="0 0 24.000001 24.000001"
   xml:space="preserve"
   sodipodi:docname="es_ES.svg"
   width="24"
   height="24"
   inkscape:version="0.92.1 r15381"><metadata
     id="metadata131"><rdf:RDF><cc:Work
         rdf:about=""><dc:format>image/svg+xml</dc:format><dc:type
           rdf:resource="http://purl.org/dc/dcmitype/StillImage" /><dc:title /></cc:Work></rdf:RDF></metadata><defs
     id="defs129" /><sodipodi:namedview
     pagecolor="#ffffff"
     bordercolor="#666666"
     borderopacity="1"
     objecttolerance="10"
     gridtolerance="10"
     guidetolerance="10"
     inkscape:pageopacity="0"
     inkscape:pageshadow="2"
     inkscape:window-width="1440"
     inkscape:window-height="825"
     id="namedview127"
     showgrid="false"
     inkscape:zoom="14.749972"
     inkscape:cx="36.078896"
     inkscape:cy="22.322972"
     inkscape:window-x="0"
     inkscape:window-y="0"
     inkscape:window-maximized="1"
     inkscape:current-layer="Layer_1" /><path
     style="fill:#c8414b;stroke-width:0.04687491"
     d="M 0.41381169,19.86207 H 23.586188 C 23.814703,19.86207 24,19.67677 24,19.44826 V 4.55174 C 24,4.32323 23.814703,4.13793 23.586188,4.13793 H 0.41381169 C 0.18529651,4.13798 0,4.32323 0,4.55174 v 14.89652 c 0,0.22856 0.18529651,0.41381 0.41381169,0.41381 z"
     id="path2"
     inkscape:connector-curvature="0" /><rect
     y="7.4482117"
     style="fill:#ffd250;stroke-width:0.04687491"
     width="23.999952"
     height="9.1035767"
     id="rect4"
     x="2.3841858e-05" /><g
     id="g96"
     transform="matrix(0.04687491,0,0,0.04687491,0,-84.138047)" /><g
     id="g98"
     transform="matrix(0.04687491,0,0,0.04687491,0,-84.138047)" /><g
     id="g100"
     transform="matrix(0.04687491,0,0,0.04687491,0,-84.138047)" /><g
     id="g102"
     transform="matrix(0.04687491,0,0,0.04687491,0,-84.138047)" /><g
     id="g104"
     transform="matrix(0.04687491,0,0,0.04687491,0,-84.138047)" /><g
     id="g106"
     transform="matrix(0.04687491,0,0,0.04687491,0,-84.138047)" /><g
     id="g108"
     transform="matrix(0.04687491,0,0,0.04687491,0,-84.138047)" /><g
     id="g110"
     transform="matrix(0.04687491,0,0,0.04687491,0,-84.138047)" /><g
     id="g112"
     transform="matrix(0.04687491,0,0,0.04687491,0,-84.138047)" /><g
     id="g114"
     transform="matrix(0.04687491,0,0,0.04687491,0,-84.138047)" /><g
     id="g116"
     transform="matrix(0.04687491,0,0,0.04687491,0,-84.138047)" /><g
     id="g118"
     transform="matrix(0.04687491,0,0,0.04687491,0,-84.138047)" /><g
     id="g120"
     transform="matrix(0.04687491,0,0,0.04687491,0,-84.138047)" /><g
     id="g122"
     transform="matrix(0.04687491,0,0,0.04687491,0,-84.138047)" /><g
     id="g124"
     transform="matrix(0.04687491,0,0,0.04687491,0,-84.138047)" /></svg>