<?xml version="1.0" encoding="UTF-8" standalone="no"?>
<!-- Generator: Adobe Illustrator 19.0.0, SVG Export Plug-In . SVG Version: 6.00 Build 0)  -->

<svg
   xmlns:dc="http://purl.org/dc/elements/1.1/"
   xmlns:cc="http://creativecommons.org/ns#"
   xmlns:rdf="http://www.w3.org/1999/02/22-rdf-syntax-ns#"
   xmlns:svg="http://www.w3.org/2000/svg"
   xmlns="http://www.w3.org/2000/svg"
   xmlns:sodipodi="http://sodipodi.sourceforge.net/DTD/sodipodi-0.dtd"
   xmlns:inkscape="http://www.inkscape.org/namespaces/inkscape"
   version="1.1"
   id="Layer_1"
   x="0px"
   y="0px"
   viewBox="0 0 24 24"
   xml:space="preserve"
   sodipodi:docname="es_MX.svg"
   width="24"
   height="24"
   inkscape:version="0.92.1 r15381"><metadata
     id="metadata85"><rdf:RDF><cc:Work
         rdf:about=""><dc:format>image/svg+xml</dc:format><dc:type
           rdf:resource="http://purl.org/dc/dcmitype/StillImage" /><dc:title></dc:title></cc:Work></rdf:RDF></metadata><defs
     id="defs83" /><sodipodi:namedview
     pagecolor="#ffffff"
     bordercolor="#666666"
     borderopacity="1"
     objecttolerance="10"
     gridtolerance="10"
     guidetolerance="10"
     inkscape:pageopacity="0"
     inkscape:pageshadow="2"
     inkscape:window-width="1440"
     inkscape:window-height="825"
     id="namedview81"
     showgrid="false"
     inkscape:zoom="25.5"
     inkscape:cx="12"
     inkscape:cy="12"
     inkscape:window-x="0"
     inkscape:window-y="0"
     inkscape:window-maximized="1"
     inkscape:current-layer="Layer_1" /><g
     id="g126"
     transform="matrix(0.046875,0,0,0.046875,0,2.3141384e-5)"><path
       id="path2"
       d="M 170.667,423.721 H 8.828 C 3.953,423.721 0,419.768 0,414.893 V 97.1 c 0,-4.875 3.953,-8.828 8.828,-8.828 h 161.839 z"
       style="fill:#73af00"
       inkscape:connector-curvature="0" /><rect
       id="rect4"
       height="335.45001"
       width="170.67"
       style="fill:#f5f5f5"
       y="88.277"
       x="170.67" /><path
       id="path6"
       d="M 503.172,423.721 H 341.333 V 88.273 h 161.839 c 4.875,0 8.828,3.953 8.828,8.828 v 317.793 c 0,4.876 -3.953,8.827 -8.828,8.827 z"
       style="fill:#ff4b55"
       inkscape:connector-curvature="0" /><polygon
       id="polygon8"
       points="256,279.12 263.613,279.12 271.225,263.893 256,271.507 "
       style="fill:#ffd250" /><g
       id="g14"><path
         id="path10"
         d="m 256,298.151 c -2.104,0 -3.807,-1.703 -3.807,-3.807 v -15.225 c 0,-2.104 1.703,-3.807 3.807,-3.807 2.104,0 3.807,1.703 3.807,3.807 v 15.225 c 0,2.104 -1.703,3.807 -3.807,3.807 z"
         style="fill:#00c3a0"
         inkscape:connector-curvature="0" /><path
         id="path12"
         d="m 256,282.926 c -14.951,0 -29.388,-5.769 -40.654,-16.244 -1.539,-1.431 -1.628,-3.84 -0.198,-5.378 1.442,-1.535 3.848,-1.617 5.378,-0.198 9.854,9.163 22.452,14.207 35.473,14.207 13.021,0 25.619,-5.044 35.473,-14.207 1.535,-1.423 3.94,-1.345 5.378,0.198 1.431,1.539 1.342,3.948 -0.198,5.378 -11.264,10.476 -25.701,16.244 -40.652,16.244 z"
         style="fill:#00c3a0"
         inkscape:connector-curvature="0" /></g><path
       id="path16"
       d="m 256,298.151 c -9.758,0 -19.21,-2.851 -27.336,-8.248 l 4.215,-6.342 c 13.739,9.129 32.503,9.129 46.241,0 l 4.215,6.342 c -8.125,5.398 -17.577,8.248 -27.335,8.248 z"
       style="fill:#00aadc"
       inkscape:connector-curvature="0" /><polygon
       id="polygon18"
       points="240.14,264.052 262.027,258.977 249.973,246.764 241.568,259.771 "
       style="fill:#732d37" /><path
       id="path20"
       d="m 232.704,268.236 c -10.062,0 -22.14,-8.468 -25.344,-27.336 l 7.509,-1.271 c 2.662,15.69 12.314,21.005 18.11,20.991 1.777,-0.049 3.631,-0.662 3.777,-1.918 0.171,-1.502 0.212,-1.858 -3.769,-3.204 -2.164,-0.733 -4.617,-1.561 -6.338,-3.531 -6.963,-7.951 2.464,-16.366 6.993,-20.41 0.799,-0.714 1.13,-1.32 1.045,-1.55 -0.249,-0.651 -1.743,-1.635 -3.427,-1.635 -4.836,0 -8.505,-2.732 -9.571,-7.126 -1.108,-4.55 0.985,-9.345 4.97,-11.404 l 3.495,6.765 c -0.934,0.483 -1.304,1.858 -1.067,2.84 0.093,0.394 0.32,1.312 2.175,1.312 4.661,0 9.096,2.751 10.538,6.535 0.617,1.613 1.546,5.806 -3.085,9.943 -5,4.465 -7.992,7.825 -6.334,9.717 0.375,0.427 1.985,0.974 3.048,1.331 3.427,1.16 9.806,3.316 8.892,11.289 -0.573,5.014 -5.048,8.493 -11.129,8.658 -0.164,0 -0.328,0.004 -0.488,0.004 z"
       style="fill:#aad264"
       inkscape:connector-curvature="0" /><path
       id="path22"
       d="m 263.613,225.83 c 0,0 7.613,-15.225 -7.613,-22.838 0,0 53.289,-7.613 45.676,60.902 l -0.003,-0.003 c -4.996,-3.997 -12.414,-11.302 -15.063,-17.126 l -22.997,-13.323 z"
       style="fill:#874150"
       inkscape:connector-curvature="0" /><path
       id="path24"
       d="m 256,241.055 38.063,22.838 c 0,0 0,0 -15.225,7.613 L 256,248.669 Z"
       style="fill:#732d37"
       inkscape:connector-curvature="0" /><path
       id="path26"
       d="m 240.775,218.217 v 0 c 4.204,0 7.613,3.409 7.613,7.613 l -0.008,0.008 c -4.542,4.542 -5.667,11.479 -2.795,17.224 l 1.72,3.441 c 0.717,1.434 1.661,2.744 2.795,3.878 l 21.127,21.127 v -10.521 c 0,-13.107 -3.051,-26.034 -8.913,-37.757 v 0 c -3.869,-7.737 -11.777,-12.625 -20.427,-12.625 h -1.111 v 7.614 h -0.001 z"
       style="fill:#783c46"
       inkscape:connector-curvature="0" /><path
       id="path28"
       d="m 240.775,210.604 -7.613,7.613 v 7.613 c 0,0 9.056,-4.591 12.108,-6.054 2.133,-1.022 1.745,-3.439 0.521,-4.604 -0.953,-0.906 -5.016,-4.568 -5.016,-4.568 z"
       style="fill:#ffd250"
       inkscape:connector-curvature="0" /><path
       id="path30"
       d="m 256,313.376 c -35.681,0 -64.708,-29.027 -64.708,-64.708 h 7.613 c 0,31.485 25.611,57.096 57.096,57.096 31.485,0 57.096,-25.611 57.096,-57.096 h 7.613 c -0.002,35.681 -29.029,64.708 -64.71,64.708 z"
       style="fill:#aad264"
       inkscape:connector-curvature="0" /><g
       id="g44"><circle
         id="circle32"
         r="5.1659999"
         cy="271.258"
         cx="199.32001"
         style="fill:#ffe15a" /><circle
         id="circle34"
         r="5.1659999"
         cy="289.49701"
         cx="210.74001"
         style="fill:#ffe15a" /><circle
         id="circle36"
         r="5.1659999"
         cy="303.28799"
         cx="229.28999"
         style="fill:#ffe15a" /><circle
         id="circle38"
         r="5.1659999"
         cy="271.258"
         cx="313.23001"
         style="fill:#ffe15a" /><circle
         id="circle40"
         r="5.1659999"
         cy="289.49701"
         cx="301.79999"
         style="fill:#ffe15a" /><circle
         id="circle42"
         r="5.1659999"
         cy="303.28799"
         cx="283.25"
         style="fill:#ffe15a" /></g><path
       id="path46"
       d="m 259.807,301.957 h -7.613 c -4.204,0 -7.613,-3.409 -7.613,-7.613 v 0 c 0,-4.204 3.409,-7.613 7.613,-7.613 h 7.613 c 4.204,0 7.613,3.409 7.613,7.613 v 0 c 0,4.205 -3.409,7.613 -7.613,7.613 z"
       style="fill:#ffb478"
       inkscape:connector-curvature="0" /><path
       id="path48"
       d="m 286.61,246.764 c 2.538,7.454 7.93,14.274 15.063,17.126 l 0.003,0.003 C 309.289,195.38 256,202.992 256,202.992 c 38.063,0 30.61,43.772 30.61,43.772 z"
       style="fill:#9b4b5a"
       inkscape:connector-curvature="0" /><g
       id="g50" /><g
       id="g52" /><g
       id="g54" /><g
       id="g56" /><g
       id="g58" /><g
       id="g60" /><g
       id="g62" /><g
       id="g64" /><g
       id="g66" /><g
       id="g68" /><g
       id="g70" /><g
       id="g72" /><g
       id="g74" /><g
       id="g76" /><g
       id="g78" /></g></svg>