<?xml version="1.0" encoding="UTF-8" standalone="no"?>
<!-- Generator: Adobe Illustrator 19.0.0, SVG Export Plug-In . SVG Version: 6.00 Build 0)  -->

<svg
   xmlns:dc="http://purl.org/dc/elements/1.1/"
   xmlns:cc="http://creativecommons.org/ns#"
   xmlns:rdf="http://www.w3.org/1999/02/22-rdf-syntax-ns#"
   xmlns:svg="http://www.w3.org/2000/svg"
   xmlns="http://www.w3.org/2000/svg"
   xmlns:sodipodi="http://sodipodi.sourceforge.net/DTD/sodipodi-0.dtd"
   xmlns:inkscape="http://www.inkscape.org/namespaces/inkscape"
   version="1.1"
   id="Layer_1"
   x="0px"
   y="0px"
   viewBox="0 0 24.000001 24.000001"
   xml:space="preserve"
   sodipodi:docname="es_NI.svg"
   width="24"
   height="24"
   inkscape:version="0.92.1 r15381"><metadata
     id="metadata125"><rdf:RDF><cc:Work
         rdf:about=""><dc:format>image/svg+xml</dc:format><dc:type
           rdf:resource="http://purl.org/dc/dcmitype/StillImage" /><dc:title></dc:title></cc:Work></rdf:RDF></metadata><defs
     id="defs123" /><sodipodi:namedview
     pagecolor="#ffffff"
     bordercolor="#666666"
     borderopacity="1"
     objecttolerance="10"
     gridtolerance="10"
     guidetolerance="10"
     inkscape:pageopacity="0"
     inkscape:pageshadow="2"
     inkscape:window-width="1440"
     inkscape:window-height="825"
     id="namedview121"
     showgrid="false"
     inkscape:zoom="0.46093662"
     inkscape:cx="553.22139"
     inkscape:cy="256.00049"
     inkscape:window-x="0"
     inkscape:window-y="0"
     inkscape:window-maximized="1"
     inkscape:current-layer="Layer_1" /><g
     id="g186"
     transform="scale(0.04687491)"><g
       id="g6"><path
         id="path2"
         d="M 512,200.093 H 0 V 97.104 c 0,-4.875 3.953,-8.828 8.828,-8.828 h 494.345 c 4.875,0 8.828,3.953 8.828,8.828 z"
         style="fill:#41479b"
         inkscape:connector-curvature="0" /><path
         id="path4"
         d="M 503.172,423.725 H 8.828 C 3.953,423.725 0,419.772 0,414.897 V 311.909 h 512 v 102.988 c 0,4.876 -3.953,8.828 -8.828,8.828 z"
         style="fill:#41479b"
         inkscape:connector-curvature="0" /></g><rect
       id="rect8"
       height="111.81"
       width="512"
       style="fill:#f5f5f5"
       y="200.091"
       x="0" /><polygon
       id="polygon10"
       points="229.073,263.277 282.927,263.277 256,223.678 "
       style="fill:#afebff" /><polygon
       id="polygon12"
       points="282.927,263.277 229.073,263.277 211.649,288.621 300.351,288.621 "
       style="fill:#557de6" /><g
       id="g48"><path
         id="path14"
         d="m 262.891,261.064 c 0.107,-0.221 0.22,-0.438 0.317,-0.664 -0.096,0.224 -0.21,0.443 -0.317,0.664 z"
         style="fill:#73af00"
         inkscape:connector-curvature="0" /><path
         id="path16"
         d="m 263.633,259.239 c 0.066,-0.199 0.146,-0.392 0.203,-0.594 -0.058,0.201 -0.138,0.394 -0.203,0.594 z"
         style="fill:#73af00"
         inkscape:connector-curvature="0" /><path
         id="path18"
         d="m 261.975,262.725 c 0.136,-0.217 0.27,-0.433 0.397,-0.655 -0.126,0.223 -0.262,0.439 -0.397,0.655 z"
         style="fill:#73af00"
         inkscape:connector-curvature="0" /><path
         id="path20"
         d="m 266.091,255.348 c -0.241,0 -0.472,0.04 -0.685,0.111 0.213,-0.072 0.444,-0.111 0.685,-0.111 z"
         style="fill:#73af00"
         inkscape:connector-curvature="0" /><path
         id="path22"
         d="m 264.83,255.766 c -0.335,0.262 -0.565,0.627 -0.617,1.043 v 0.002 -0.002 c 0.053,-0.416 0.281,-0.782 0.617,-1.043 z"
         style="fill:#73af00"
         inkscape:connector-curvature="0" /><path
         id="path24"
         d="m 264.013,267.585 c 0.377,0.358 0.751,0.698 1.127,1.024 2.01,-1.74 4.108,-3.951 5.58,-6.538 -0.106,0.185 -0.22,0.365 -0.332,0.547 -1.375,-2.528 -2.101,-4.715 -2.453,-6.012 -0.201,-0.74 -0.967,-1.256 -1.842,-1.257 0.337,2.954 1.061,8.383 -2.08,12.236 z"
         style="fill:#73af00"
         inkscape:connector-curvature="0" /><path
         id="path26"
         d="m 271.98,259.239 c 0.066,-0.199 0.146,-0.392 0.203,-0.594 -0.057,0.201 -0.137,0.394 -0.203,0.594 z"
         style="fill:#73af00"
         inkscape:connector-curvature="0" /><path
         id="path28"
         d="m 273.178,255.766 c -0.335,0.262 -0.565,0.627 -0.617,1.043 v 0.002 -0.002 c 0.053,-0.416 0.281,-0.782 0.617,-1.043 z"
         style="fill:#73af00"
         inkscape:connector-curvature="0" /><path
         id="path30"
         d="m 271.24,261.064 c 0.107,-0.221 0.22,-0.438 0.317,-0.664 -0.098,0.224 -0.21,0.443 -0.317,0.664 z"
         style="fill:#73af00"
         inkscape:connector-curvature="0" /><path
         id="path32"
         d="m 288.339,269.613 c -3.053,0 -5.942,-1.465 -7.706,-3.957 -2.657,-3.754 -3.862,-7.254 -4.349,-9.049 -0.201,-0.742 -0.969,-1.258 -1.845,-1.258 l 0.003,0.001 c 0.402,3.526 1.358,10.575 -4.371,14.264 h -3.73 c -0.153,-0.121 -0.302,-0.237 -0.459,-0.365 0.003,0.003 0.007,0.006 0.01,0.009 -1.044,1.363 -3.132,1.745 -4.751,0.91 -6.778,-3.492 -5.726,-11.109 -5.303,-14.818 -0.875,0.001 -1.641,0.516 -1.842,1.257 -0.352,1.297 -1.078,3.484 -2.453,6.012 -0.111,-0.182 -0.226,-0.361 -0.332,-0.547 1.656,2.91 4.113,5.366 6.333,7.186 -1.044,1.363 -3.132,1.745 -4.751,0.91 -6.778,-3.492 -5.726,-11.11 -5.303,-14.818 -0.875,0.001 -1.641,0.516 -1.842,1.257 -0.352,1.297 -1.078,3.484 -2.453,6.012 -0.111,-0.182 -0.226,-0.361 -0.332,-0.547 1.656,2.91 4.113,5.366 6.333,7.186 -1.044,1.363 -3.132,1.745 -4.751,0.91 -6.778,-3.492 -5.726,-11.109 -5.303,-14.818 l 0.003,-0.001 c -0.876,0 -1.644,0.515 -1.845,1.258 -0.487,1.795 -1.692,5.295 -4.349,9.049 -1.763,2.493 -4.652,3.957 -7.706,3.957 h -2.508 v 3.168 h 64.943 1.583 v -3.168 z"
         style="fill:#73af00"
         inkscape:connector-curvature="0" /><path
         id="path34"
         d="m 258.724,260.399 c 0.097,0.226 0.21,0.444 0.317,0.664 -0.107,-0.22 -0.221,-0.439 -0.317,-0.664 z"
         style="fill:#73af00"
         inkscape:connector-curvature="0" /><path
         id="path36"
         d="m 258.098,258.644 c 0.056,0.202 0.137,0.395 0.203,0.594 -0.067,-0.199 -0.147,-0.392 -0.203,-0.594 z"
         style="fill:#73af00"
         inkscape:connector-curvature="0" /><path
         id="path38"
         d="m 257.719,256.812 v -0.002 c -0.052,-0.416 -0.28,-0.781 -0.617,-1.043 0.335,0.262 0.565,0.627 0.617,1.043 z"
         style="fill:#73af00"
         inkscape:connector-curvature="0" /><path
         id="path40"
         d="m 259.56,262.071 c 0.127,0.223 0.262,0.438 0.397,0.655 -0.135,-0.217 -0.27,-0.433 -0.397,-0.655 z"
         style="fill:#73af00"
         inkscape:connector-curvature="0" /><path
         id="path42"
         d="m 261.015,264.267 c -0.017,-0.021 -0.031,-0.043 -0.047,-0.065 0.136,-0.181 0.266,-0.363 0.397,-0.548 -0.13,0.184 -0.264,0.366 -0.399,0.546 -0.136,-0.18 -0.269,-0.361 -0.398,-0.546 0.146,0.207 0.294,0.41 0.447,0.613 z"
         style="fill:#73af00"
         inkscape:connector-curvature="0" /><path
         id="path44"
         d="m 261.711,265.143 c 0.154,0.185 0.308,0.37 0.466,0.548 -0.158,-0.178 -0.312,-0.363 -0.466,-0.548 z"
         style="fill:#73af00"
         inkscape:connector-curvature="0" /><path
         id="path46"
         d="m 263.403,267.001 c -0.148,-0.148 -0.292,-0.303 -0.438,-0.456 0.147,0.154 0.29,0.308 0.438,0.456 z"
         style="fill:#73af00"
         inkscape:connector-curvature="0" /></g><path
       id="path50"
       d="m 274.442,255.349 -0.003,-10e-4 c -0.481,0 -0.925,0.157 -1.261,0.418 -0.335,0.262 -0.565,0.627 -0.617,1.043 v 0.002 c -0.078,0.625 -0.211,1.234 -0.378,1.833 -0.056,0.202 -0.137,0.395 -0.203,0.594 -0.129,0.392 -0.262,0.782 -0.424,1.161 -0.097,0.226 -0.21,0.444 -0.317,0.664 -0.164,0.34 -0.332,0.679 -0.519,1.007 -1.472,2.586 -3.57,4.798 -5.58,6.538 -0.375,-0.324 -0.749,-0.665 -1.127,-1.024 3.14,-3.853 2.417,-9.282 2.081,-12.236 l -0.003,-0.001 c -0.241,0 -0.472,0.04 -0.685,0.111 -0.213,0.072 -0.408,0.177 -0.576,0.307 -0.335,0.262 -0.565,0.627 -0.617,1.043 v 0.002 c -0.078,0.625 -0.211,1.234 -0.379,1.833 -0.056,0.202 -0.137,0.395 -0.203,0.594 -0.129,0.392 -0.262,0.782 -0.424,1.161 -0.097,0.226 -0.21,0.444 -0.317,0.664 -0.164,0.34 -0.332,0.679 -0.519,1.007 -0.127,0.223 -0.262,0.438 -0.397,0.655 -0.196,0.314 -0.397,0.625 -0.61,0.927 -0.13,0.185 -0.262,0.369 -0.397,0.548 -0.136,-0.181 -0.27,-0.363 -0.401,-0.548 -0.213,-0.302 -0.414,-0.612 -0.61,-0.927 -0.136,-0.217 -0.27,-0.433 -0.397,-0.655 -0.188,-0.329 -0.354,-0.668 -0.519,-1.007 -0.107,-0.221 -0.22,-0.438 -0.317,-0.664 -0.162,-0.378 -0.295,-0.769 -0.424,-1.161 -0.066,-0.199 -0.146,-0.392 -0.203,-0.594 -0.168,-0.598 -0.3,-1.208 -0.378,-1.833 v -0.002 c -0.052,-0.416 -0.28,-0.781 -0.617,-1.043 -0.335,-0.262 -0.779,-0.418 -1.26,-0.418 l -0.003,0.001 c -0.422,3.709 -1.475,11.326 5.303,14.818 1.143,0.589 2.515,0.566 3.591,0.024 0.687,-0.346 1.425,-0.578 2.194,-0.578 h 3.146 c 5.728,-3.688 4.772,-10.738 4.37,-14.263 z"
       style="fill:#ffe15a"
       inkscape:connector-curvature="0" /><g
       id="g60"><path
         id="path52"
         d="m 249.749,258.644 c 0.056,0.202 0.137,0.395 0.203,0.594 -0.066,-0.199 -0.146,-0.392 -0.203,-0.594 z"
         style="fill:#73af00"
         inkscape:connector-curvature="0" /><path
         id="path54"
         d="m 249.37,256.812 v -0.002 c -0.052,-0.416 -0.28,-0.781 -0.617,-1.043 0.335,0.262 0.565,0.627 0.617,1.043 z"
         style="fill:#73af00"
         inkscape:connector-curvature="0" /><path
         id="path56"
         d="m 250.376,260.399 c 0.097,0.226 0.21,0.444 0.317,0.664 -0.108,-0.22 -0.22,-0.439 -0.317,-0.664 z"
         style="fill:#73af00"
         inkscape:connector-curvature="0" /><path
         id="path58"
         d="m 247.494,255.348 v 0 c 0.241,0 0.472,0.04 0.685,0.111 -0.214,-0.072 -0.445,-0.111 -0.685,-0.111 z"
         style="fill:#73af00"
         inkscape:connector-curvature="0" /></g><path
       id="path62"
       d="m 252.793,270.167 c 1.62,0.834 3.708,0.452 4.751,-0.91 -2.22,-1.82 -4.676,-4.275 -6.333,-7.186 -0.188,-0.329 -0.354,-0.668 -0.519,-1.007 -0.107,-0.221 -0.22,-0.438 -0.317,-0.664 -0.162,-0.378 -0.295,-0.769 -0.424,-1.161 -0.066,-0.199 -0.146,-0.392 -0.203,-0.594 -0.168,-0.598 -0.3,-1.208 -0.378,-1.833 v -0.002 c -0.052,-0.416 -0.28,-0.781 -0.617,-1.043 -0.168,-0.13 -0.363,-0.235 -0.576,-0.307 -0.213,-0.072 -0.444,-0.111 -0.685,-0.111 v 0 l -0.003,0.001 v 0 c -0.421,3.708 -1.474,11.324 5.304,14.817 z"
       style="fill:#ffe15a"
       inkscape:connector-curvature="0" /><g
       id="g70"><path
         id="path64"
         d="m 241.401,258.644 c 0.056,0.202 0.137,0.395 0.203,0.594 -0.066,-0.199 -0.146,-0.392 -0.203,-0.594 z"
         style="fill:#73af00"
         inkscape:connector-curvature="0" /><path
         id="path66"
         d="m 242.028,260.399 c 0.097,0.226 0.21,0.444 0.317,0.664 -0.107,-0.22 -0.221,-0.439 -0.317,-0.664 z"
         style="fill:#73af00"
         inkscape:connector-curvature="0" /><path
         id="path68"
         d="m 241.023,256.812 v -0.002 c -0.052,-0.416 -0.28,-0.781 -0.617,-1.043 0.335,0.262 0.565,0.627 0.617,1.043 z"
         style="fill:#73af00"
         inkscape:connector-curvature="0" /></g><path
       id="path72"
       d="m 244.446,270.167 c 1.62,0.834 3.708,0.452 4.751,-0.91 -2.22,-1.82 -4.676,-4.275 -6.333,-7.186 -0.188,-0.329 -0.354,-0.668 -0.519,-1.007 -0.107,-0.221 -0.22,-0.438 -0.317,-0.664 -0.162,-0.378 -0.295,-0.769 -0.424,-1.161 -0.066,-0.199 -0.146,-0.392 -0.203,-0.594 -0.168,-0.598 -0.3,-1.208 -0.378,-1.833 v -0.002 c -0.052,-0.416 -0.28,-0.781 -0.617,-1.043 -0.335,-0.262 -0.779,-0.418 -1.261,-0.418 l -0.003,0.001 c -0.422,3.708 -1.476,11.324 5.304,14.817 z"
       style="fill:#ffe15a"
       inkscape:connector-curvature="0" /><path
       id="path74"
       d="m 242.655,242.753 c -0.131,0.505 -0.264,1.011 -0.395,1.516 4.324,-1.297 9.096,-2.076 14.274,-2.076 5.178,0.003 9.95,0.776 14.274,2.076 -0.131,-0.505 -0.264,-1.011 -0.395,-1.516 -4.301,-1.11 -8.93,-1.748 -13.879,-1.746 -4.948,-0.001 -9.577,0.636 -13.879,1.746 z"
       style="fill:#41479b"
       inkscape:connector-curvature="0" /><path
       id="path76"
       d="m 242.827,242.094 c -0.131,0.505 -0.264,1.011 -0.395,1.516 4.276,-1.3 8.99,-2.08 14.102,-2.082 5.113,0.002 9.826,0.781 14.102,2.082 -0.131,-0.505 -0.264,-1.011 -0.395,-1.516 -4.253,-1.118 -8.823,-1.751 -13.707,-1.752 -4.885,10e-4 -9.454,0.637 -13.707,1.752 z"
       style="fill:#5aa0e6"
       inkscape:connector-curvature="0" /><path
       id="path78"
       d="m 242.986,241.485 c -0.131,0.505 -0.264,1.011 -0.395,1.516 4.234,-1.304 8.892,-2.09 13.943,-2.088 5.053,0 9.71,0.783 13.943,2.088 -0.131,-0.505 -0.264,-1.011 -0.395,-1.516 -4.207,-1.118 -8.723,-1.759 -13.548,-1.759 -4.825,-0.001 -9.34,0.641 -13.548,1.759 z"
       style="fill:#9bc800"
       inkscape:connector-curvature="0" /><path
       id="path80"
       d="m 243.167,240.789 c -0.131,0.505 -0.264,1.011 -0.395,1.516 4.184,-1.309 8.78,-2.095 13.762,-2.095 4.982,0.002 9.578,0.786 13.762,2.095 -0.131,-0.505 -0.264,-1.011 -0.395,-1.516 -4.158,-1.122 -8.609,-1.764 -13.367,-1.766 -4.758,0.001 -9.21,0.644 -13.367,1.766 z"
       style="fill:#ffe14e"
       inkscape:connector-curvature="0" /><path
       id="path82"
       d="m 243.346,240.105 c -0.131,0.505 -0.264,1.011 -0.395,1.516 4.136,-1.312 8.668,-2.101 13.583,-2.102 4.915,0.003 9.448,0.788 13.583,2.102 -0.131,-0.505 -0.264,-1.011 -0.395,-1.516 -4.106,-1.124 -8.497,-1.772 -13.188,-1.772 -4.691,0.002 -9.081,0.645 -13.188,1.772 z"
       style="fill:#ffb14e"
       inkscape:connector-curvature="0" /><path
       id="path84"
       d="m 243.421,239.813 c -0.093,0.354 -0.184,0.707 -0.277,1.062 4.082,-1.314 8.55,-2.111 13.389,-2.11 4.841,-0.002 9.308,0.793 13.389,2.11 -0.093,-0.354 -0.184,-0.707 -0.277,-1.062 -4.085,-1.127 -8.45,-1.774 -13.113,-1.775 -4.661,-0.003 -9.025,0.647 -13.111,1.775 z"
       style="fill:#ff4b55"
       inkscape:connector-curvature="0" /><path
       id="path86"
       d="m 300.352,290.158 h -88.703 c -0.585,0 -1.121,-0.322 -1.397,-0.835 -0.276,-0.516 -0.244,-1.142 0.079,-1.628 l 44.352,-66.527 c 0.588,-0.878 2.048,-0.878 2.636,0 l 44.352,66.527 c 0.323,0.486 0.354,1.111 0.078,1.628 -0.276,0.514 -0.812,0.835 -1.397,0.835 z m -85.745,-3.168 h 82.785 L 256,224.903 Z"
       style="fill:#ffe15a"
       inkscape:connector-curvature="0" /><path
       id="path88"
       d="m 259.029,248.933 c 0,-1.394 -1.412,-3.512 -3.673,-3.512 -1.321,0 -2.392,0.808 -2.392,1.803 0,0.498 0.267,0.947 0.698,1.273 -0.002,0.018 -0.003,0.038 -0.004,0.055 -0.54,0.331 -0.892,0.829 -0.892,1.394 0,0.95 0.979,1.72 2.216,1.79 l 1.018,2.036 0.919,-1.838 c 1.207,-0.307 2.11,-1.531 2.11,-3.001 z"
       style="fill:#ff4b55"
       inkscape:connector-curvature="0" /><g
       id="g90" /><g
       id="g92" /><g
       id="g94" /><g
       id="g96" /><g
       id="g98" /><g
       id="g100" /><g
       id="g102" /><g
       id="g104" /><g
       id="g106" /><g
       id="g108" /><g
       id="g110" /><g
       id="g112" /><g
       id="g114" /><g
       id="g116" /><g
       id="g118" /></g></svg>