<?xml version="1.0" encoding="UTF-8" standalone="no"?>
<!-- Generator: Adobe Illustrator 19.0.0, SVG Export Plug-In . SVG Version: 6.00 Build 0)  -->

<svg
   xmlns:dc="http://purl.org/dc/elements/1.1/"
   xmlns:cc="http://creativecommons.org/ns#"
   xmlns:rdf="http://www.w3.org/1999/02/22-rdf-syntax-ns#"
   xmlns:svg="http://www.w3.org/2000/svg"
   xmlns="http://www.w3.org/2000/svg"
   xmlns:sodipodi="http://sodipodi.sourceforge.net/DTD/sodipodi-0.dtd"
   xmlns:inkscape="http://www.inkscape.org/namespaces/inkscape"
   version="1.1"
   id="Layer_1"
   x="0px"
   y="0px"
   viewBox="0 0 24.000001 24.000001"
   xml:space="preserve"
   sodipodi:docname="es_PR.svg"
   width="24"
   height="24"
   inkscape:version="0.92.1 r15381"><metadata
     id="metadata53"><rdf:RDF><cc:Work
         rdf:about=""><dc:format>image/svg+xml</dc:format><dc:type
           rdf:resource="http://purl.org/dc/dcmitype/StillImage" /><dc:title></dc:title></cc:Work></rdf:RDF></metadata><defs
     id="defs51" /><sodipodi:namedview
     pagecolor="#ffffff"
     bordercolor="#666666"
     borderopacity="1"
     objecttolerance="10"
     gridtolerance="10"
     guidetolerance="10"
     inkscape:pageopacity="0"
     inkscape:pageshadow="2"
     inkscape:window-width="1440"
     inkscape:window-height="825"
     id="namedview49"
     showgrid="false"
     inkscape:zoom="0.46093662"
     inkscape:cx="256.00049"
     inkscape:cy="256.00049"
     inkscape:window-x="0"
     inkscape:window-y="0"
     inkscape:window-maximized="1"
     inkscape:current-layer="Layer_1" /><g
     id="g78"
     transform="scale(0.04687491)"><path
       id="path2"
       d="M 512,155.367 H 0 V 97.104 c 0,-4.875 3.953,-8.828 8.828,-8.828 h 494.345 c 4.875,0 8.828,3.953 8.828,8.828 z"
       style="fill:#ff4b55"
       inkscape:connector-curvature="0" /><rect
       id="rect4"
       height="67.089996"
       width="512"
       style="fill:#f5f5f5"
       y="155.371"
       x="0" /><g
       id="g10"><rect
         id="rect6"
         height="67.089996"
         width="512"
         style="fill:#ff4b55"
         y="222.461"
         x="0" /><path
         id="path8"
         d="M 503.172,423.725 H 8.828 C 3.953,423.725 0,419.772 0,414.897 v -58.262 h 512 v 58.262 c 0,4.876 -3.953,8.828 -8.828,8.828 z"
         style="fill:#ff4b55"
         inkscape:connector-curvature="0" /></g><rect
       id="rect12"
       height="67.089996"
       width="512"
       style="fill:#f5f5f5"
       y="289.55099"
       x="0" /><path
       id="path14"
       d="M 3.256,421.591 247.597,261.505 c 3.966,-2.599 3.966,-8.412 0,-11.009 L 3.256,90.411 C 1.311,92.03 0,94.376 0,97.104 v 317.793 c 0,2.729 1.311,5.075 3.256,6.694 z"
       style="fill:#41479b"
       inkscape:connector-curvature="0" /><path
       id="path16"
       d="m 90.183,215.027 9.213,27.623 29.118,0.226 c 3.769,0.029 5.333,4.84 2.301,7.08 l -23.424,17.298 8.783,27.763 c 1.138,3.594 -2.955,6.568 -6.023,4.375 l -23.69,-16.932 -23.69,16.932 c -3.066,2.193 -7.159,-0.781 -6.023,-4.375 l 8.783,-27.763 -23.424,-17.298 c -3.032,-2.24 -1.47,-7.05 2.301,-7.08 l 29.118,-0.226 9.213,-27.623 c 1.193,-3.577 6.251,-3.577 7.444,0 z"
       style="fill:#f5f5f5"
       inkscape:connector-curvature="0" /><g
       id="g18" /><g
       id="g20" /><g
       id="g22" /><g
       id="g24" /><g
       id="g26" /><g
       id="g28" /><g
       id="g30" /><g
       id="g32" /><g
       id="g34" /><g
       id="g36" /><g
       id="g38" /><g
       id="g40" /><g
       id="g42" /><g
       id="g44" /><g
       id="g46" /></g></svg>