<?xml version="1.0" encoding="UTF-8" standalone="no"?>
<!-- Generator: Adobe Illustrator 19.0.0, SVG Export Plug-In . SVG Version: 6.00 Build 0)  -->

<svg
   xmlns:dc="http://purl.org/dc/elements/1.1/"
   xmlns:cc="http://creativecommons.org/ns#"
   xmlns:rdf="http://www.w3.org/1999/02/22-rdf-syntax-ns#"
   xmlns:svg="http://www.w3.org/2000/svg"
   xmlns="http://www.w3.org/2000/svg"
   xmlns:sodipodi="http://sodipodi.sourceforge.net/DTD/sodipodi-0.dtd"
   xmlns:inkscape="http://www.inkscape.org/namespaces/inkscape"
   version="1.1"
   id="Layer_1"
   x="0px"
   y="0px"
   viewBox="0 0 24.000001 24.000001"
   xml:space="preserve"
   sodipodi:docname="es_PY.svg"
   width="24"
   height="24"
   inkscape:version="0.92.1 r15381"><metadata
     id="metadata51"><rdf:RDF><cc:Work
         rdf:about=""><dc:format>image/svg+xml</dc:format><dc:type
           rdf:resource="http://purl.org/dc/dcmitype/StillImage" /><dc:title></dc:title></cc:Work></rdf:RDF></metadata><defs
     id="defs49" /><sodipodi:namedview
     pagecolor="#ffffff"
     bordercolor="#666666"
     borderopacity="1"
     objecttolerance="10"
     gridtolerance="10"
     guidetolerance="10"
     inkscape:pageopacity="0"
     inkscape:pageshadow="2"
     inkscape:window-width="1440"
     inkscape:window-height="825"
     id="namedview47"
     showgrid="false"
     inkscape:zoom="0.46093662"
     inkscape:cx="553.22139"
     inkscape:cy="256.00049"
     inkscape:window-x="0"
     inkscape:window-y="0"
     inkscape:window-maximized="1"
     inkscape:current-layer="Layer_1" /><g
     id="g75"
     transform="scale(0.04687491)"><path
       id="path2"
       d="M 512,200.093 H 0 V 97.104 c 0,-4.875 3.953,-8.828 8.828,-8.828 h 494.345 c 4.875,0 8.828,3.953 8.828,8.828 z"
       style="fill:#ff4b55"
       inkscape:connector-curvature="0" /><path
       id="path4"
       d="M 503.172,423.725 H 8.828 C 3.953,423.725 0,419.772 0,414.897 V 311.909 h 512 v 102.988 c 0,4.876 -3.953,8.828 -8.828,8.828 z"
       style="fill:#41479b"
       inkscape:connector-curvature="0" /><rect
       id="rect6"
       height="111.81"
       width="512"
       style="fill:#f5f5f5"
       y="200.091"
       x="0" /><path
       id="path8"
       d="m 256,211.863 c -24.376,0 -44.138,19.761 -44.138,44.138 0,24.377 19.762,44.138 44.138,44.138 24.376,0 44.138,-19.761 44.138,-44.138 0,-24.377 -19.762,-44.138 -44.138,-44.138 z m 0,77.426 c -18.383,0 -33.288,-14.903 -33.288,-33.288 0,-18.385 14.904,-33.288 33.288,-33.288 18.384,0 33.288,14.904 33.288,33.288 0,18.384 -14.905,33.288 -33.288,33.288 z"
       style="fill:#ff4b55"
       inkscape:connector-curvature="0" /><circle
       id="circle10"
       r="15.31"
       cy="256.00101"
       cx="256"
       style="fill:#41479b" /><path
       id="path12"
       d="m 256.998,244.404 2.467,7.4 7.799,0.061 c 1.01,0.008 1.429,1.297 0.616,1.897 l -6.274,4.633 2.353,7.436 c 0.305,0.963 -0.791,1.759 -1.613,1.172 l -6.346,-4.535 -6.346,4.535 c -0.822,0.587 -1.918,-0.21 -1.613,-1.172 l 2.353,-7.436 -6.274,-4.633 c -0.812,-0.6 -0.394,-1.889 0.616,-1.897 l 7.799,-0.061 2.467,-7.4 c 0.32,-0.958 1.676,-0.958 1.996,0 z"
       style="fill:#ffe15a"
       inkscape:connector-curvature="0" /><path
       id="path14"
       d="m 284.96,256.357 c 0,0 0.875,-4.046 -3.43,0.809 0,0 0.063,-1.382 -0.059,-2.521 0.947,-1.025 2.121,-3.267 1.845,-8.052 0,0 -0.675,-4.084 -2.891,2.013 0,0 -0.605,-1.799 -1.248,-2.795 0.534,-1.108 0.947,-3.125 -0.334,-6.947 0,0 -1.497,-3.27 -1.963,2.348 0,0 -1.229,-1.838 -2.028,-2.29 0.154,-0.906 0.033,-2.462 -1.775,-4.981 0,0 -1.804,-2.02 -0.893,2.126 0,0 -1.651,-1.337 -2.179,-1.18 -0.274,-0.792 -1.067,-2.131 -3.73,-3.893 0,0 -2.307,-1.263 0.34,2.034 0,0 -2.34,-0.928 -2.312,-0.396 0.028,0.532 1.159,1.513 2.088,1.951 0,0 -3.432,0.356 -2.023,1.121 0,0 3.481,1.201 5.572,0.045 0.168,0.609 0.509,1.292 1.015,1.783 0,0 -4.084,-0.793 -2.978,0.433 0,0 3.063,2.251 6.09,1.906 -0.014,0.834 0.238,1.911 0.681,2.718 0,0 -4.87,-2.603 -3.947,-0.616 0,0 2.912,3.895 6.786,4.74 -0.159,0.866 -0.156,1.913 0.054,2.78 0,0 -4.622,-4.365 -4.199,-1.878 0,0 1.932,5.122 5.848,7.298 -0.319,0.65 -0.58,1.377 -0.676,2.056 0,0 -2.692,-5.761 -3.213,-3.292 0,0 -0.089,5.754 2.983,9.195 -0.654,0.544 -1.295,1.305 -1.688,2.052 0,0 -0.589,-6.329 -1.913,-4.182 0,0 -1.83,4.796 -0.591,8.929 -0.819,0.242 -1.711,0.689 -2.371,1.224 0,0 1.953,-6.051 -0.11,-4.599 0,0 -3.674,3.975 -3.955,8.447 -0.974,-0.02 -2.293,0.331 -3.249,0.902 0,0 2.795,-5.709 0.545,-4.567 0,0 -4.008,3.274 -5.043,7.523 -0.948,0.541 -2.558,1.46 -4.167,2.372 -0.936,-0.543 -1.845,-1.071 -2.622,-1.525 l 0.026,-0.042 -9.111,-7.638 0.181,2.498 -4.575,-8.182 -0.565,2.784 -1.498,-9.045 -1.329,1.335 0.514,-8.438 -1.732,0.934 3.146,-6.276 -1.478,0.417 3.887,-3.726 -2.055,0.175 4.914,-2.231 -1.796,-0.276 4.797,-2.429 -2.067,-0.1 6.219,-2.152 -1.139,-0.996 5.383,-1.588 -6.45,-0.492 1.837,-2.261 -4.921,2.518 0.706,-3.404 -4.305,4.433 0.748,-3.104 -4.029,4.009 0.26,-3.026 -3.983,6.746 -0.514,-3.019 -3.31,7.574 -0.911,-3.3 -1.478,9.393 -1.233,-1.398 1.621,9.06 -2.056,-1.542 3.769,8.138 c 0,0 -2.741,-1.199 -3.084,-1.199 -0.343,0 6.553,7.004 6.553,7.004 l -3.598,-0.385 6.952,4.888 -2.583,0.638 5.783,2.248 -1.414,1.094 11.972,0.856 c 0,0 1.154,0.961 2.724,2.074 -0.829,0.468 -1.558,0.875 -2.009,1.122 -0.455,0.248 -0.989,0.273 -1.468,0.073 -1.137,-0.477 -2.781,-1.149 -3.574,-1.466 0,0 0.077,3.403 3.62,3.488 1.455,0.033 3.439,-0.893 5.284,-1.988 1.889,1.178 3.974,2.217 5.48,2.181 3.466,-0.085 3.542,-3.488 3.542,-3.488 -0.776,0.318 -2.386,0.99 -3.497,1.466 -0.469,0.2 -0.991,0.175 -1.436,-0.073 -0.491,-0.275 -1.299,-0.736 -2.225,-1.271 0.946,-0.641 1.739,-1.223 2.296,-1.652 0.872,0.685 3.368,1.889 8.946,-0.205 0,0 3.7,-1.858 -2.781,-2.163 0,0 1.203,-0.883 2.015,-1.721 1.063,0.547 3.69,1.195 8.684,-1.547 0,0 3.398,-2.367 -3.06,-1.745 0,0 0.862,-0.84 1.54,-1.694 1.114,0.125 3.865,-0.173 7.513,-4.839 0,0 2.19,-3.513 -3.5,-0.397 0,0 0.736,-1.754 0.909,-2.927 1.262,-0.608 3.179,-2.26 4.683,-6.812 z"
       style="fill:#64c86e"
       inkscape:connector-curvature="0" /><g
       id="g16" /><g
       id="g18" /><g
       id="g20" /><g
       id="g22" /><g
       id="g24" /><g
       id="g26" /><g
       id="g28" /><g
       id="g30" /><g
       id="g32" /><g
       id="g34" /><g
       id="g36" /><g
       id="g38" /><g
       id="g40" /><g
       id="g42" /><g
       id="g44" /></g></svg>