<?xml version="1.0" encoding="UTF-8" standalone="no"?>
<!-- Generator: Adobe Illustrator 19.0.0, SVG Export Plug-In . SVG Version: 6.00 Build 0)  -->

<svg
   xmlns:dc="http://purl.org/dc/elements/1.1/"
   xmlns:cc="http://creativecommons.org/ns#"
   xmlns:rdf="http://www.w3.org/1999/02/22-rdf-syntax-ns#"
   xmlns:svg="http://www.w3.org/2000/svg"
   xmlns="http://www.w3.org/2000/svg"
   xmlns:sodipodi="http://sodipodi.sourceforge.net/DTD/sodipodi-0.dtd"
   xmlns:inkscape="http://www.inkscape.org/namespaces/inkscape"
   version="1.1"
   id="Layer_1"
   x="0px"
   y="0px"
   viewBox="0 0 24.000001 24.000001"
   xml:space="preserve"
   sodipodi:docname="es_PA.svg"
   width="24"
   height="24"
   inkscape:version="0.92.1 r15381"><metadata
     id="metadata49"><rdf:RDF><cc:Work
         rdf:about=""><dc:format>image/svg+xml</dc:format><dc:type
           rdf:resource="http://purl.org/dc/dcmitype/StillImage" /><dc:title></dc:title></cc:Work></rdf:RDF></metadata><defs
     id="defs47" /><sodipodi:namedview
     pagecolor="#ffffff"
     bordercolor="#666666"
     borderopacity="1"
     objecttolerance="10"
     gridtolerance="10"
     guidetolerance="10"
     inkscape:pageopacity="0"
     inkscape:pageshadow="2"
     inkscape:window-width="1440"
     inkscape:window-height="825"
     id="namedview45"
     showgrid="false"
     inkscape:zoom="0.46093662"
     inkscape:cx="256.00049"
     inkscape:cy="256.00049"
     inkscape:window-x="0"
     inkscape:window-y="0"
     inkscape:window-maximized="1"
     inkscape:current-layer="Layer_1" /><g
     id="g72"
     transform="scale(0.04687491)"><path
       id="path2"
       d="M 503.172,423.725 H 8.828 C 3.953,423.725 0,419.772 0,414.897 V 97.104 c 0,-4.875 3.953,-8.828 8.828,-8.828 h 494.345 c 4.875,0 8.828,3.953 8.828,8.828 v 317.793 c -10e-4,4.876 -3.954,8.828 -8.829,8.828 z"
       style="fill:#f5f5f5"
       inkscape:connector-curvature="0" /><path
       id="path4"
       d="m 256,256.001 h 247.172 c 4.875,0 8.828,-3.953 8.828,-8.828 V 97.104 c 0,-4.875 -3.953,-8.828 -8.828,-8.828 H 264.828 c -4.875,0 -8.828,3.953 -8.828,8.828 z"
       style="fill:#ff4b55"
       inkscape:connector-curvature="0" /><g
       id="g10"><path
         id="path6"
         d="m 8.828,423.725 h 238.345 c 4.875,0 8.828,-3.953 8.828,-8.828 V 256.001 H 8.828 C 3.953,256.001 0,259.954 0,264.829 v 150.069 c 0,4.875 3.953,8.827 8.828,8.827 z"
         style="fill:#4173cd"
         inkscape:connector-curvature="0" /><path
         id="path8"
         d="m 131.4,134.488 8.416,25.234 26.6,0.206 c 3.444,0.026 4.872,4.422 2.101,6.467 l -21.398,15.801 8.023,25.362 c 1.038,3.284 -2.7,5.999 -5.502,3.997 L 128,196.088 106.359,211.556 c -2.802,2.003 -6.54,-0.714 -5.502,-3.997 l 8.023,-25.362 -21.398,-15.801 c -2.771,-2.046 -1.343,-6.441 2.101,-6.467 l 26.6,-0.206 8.416,-25.234 c 1.09,-3.268 5.712,-3.268 6.801,-0.001 z"
         style="fill:#4173cd"
         inkscape:connector-curvature="0" /></g><path
       id="path12"
       d="m 387.4,302.212 8.416,25.234 26.6,0.206 c 3.444,0.026 4.872,4.422 2.101,6.467 l -21.398,15.801 8.023,25.362 c 1.038,3.284 -2.7,5.999 -5.502,3.997 L 384,363.812 362.359,379.28 c -2.802,2.003 -6.54,-0.714 -5.502,-3.997 l 8.023,-25.362 -21.398,-15.801 c -2.771,-2.046 -1.343,-6.441 2.101,-6.467 l 26.6,-0.206 8.416,-25.234 c 1.09,-3.268 5.712,-3.268 6.801,-0.001 z"
       style="fill:#ff4b55"
       inkscape:connector-curvature="0" /><g
       id="g14" /><g
       id="g16" /><g
       id="g18" /><g
       id="g20" /><g
       id="g22" /><g
       id="g24" /><g
       id="g26" /><g
       id="g28" /><g
       id="g30" /><g
       id="g32" /><g
       id="g34" /><g
       id="g36" /><g
       id="g38" /><g
       id="g40" /><g
       id="g42" /></g></svg>