<?xml version="1.0" encoding="UTF-8" standalone="no"?>
<!-- Generator: Adobe Illustrator 19.0.0, SVG Export Plug-In . SVG Version: 6.00 Build 0)  -->

<svg
   xmlns:dc="http://purl.org/dc/elements/1.1/"
   xmlns:cc="http://creativecommons.org/ns#"
   xmlns:rdf="http://www.w3.org/1999/02/22-rdf-syntax-ns#"
   xmlns:svg="http://www.w3.org/2000/svg"
   xmlns="http://www.w3.org/2000/svg"
   xmlns:sodipodi="http://sodipodi.sourceforge.net/DTD/sodipodi-0.dtd"
   xmlns:inkscape="http://www.inkscape.org/namespaces/inkscape"
   version="1.1"
   id="Layer_1"
   x="0px"
   y="0px"
   viewBox="0 0 24.000001 24.000001"
   xml:space="preserve"
   sodipodi:docname="es_SV.svg"
   width="24"
   height="24"
   inkscape:version="0.92.1 r15381"><metadata
     id="metadata187"><rdf:RDF><cc:Work
         rdf:about=""><dc:format>image/svg+xml</dc:format><dc:type
           rdf:resource="http://purl.org/dc/dcmitype/StillImage" /><dc:title></dc:title></cc:Work></rdf:RDF></metadata><defs
     id="defs185" /><sodipodi:namedview
     pagecolor="#ffffff"
     bordercolor="#666666"
     borderopacity="1"
     objecttolerance="10"
     gridtolerance="10"
     guidetolerance="10"
     inkscape:pageopacity="0"
     inkscape:pageshadow="2"
     inkscape:window-width="1440"
     inkscape:window-height="825"
     id="namedview183"
     showgrid="false"
     inkscape:zoom="0.46093662"
     inkscape:cx="-41.220418"
     inkscape:cy="82.440835"
     inkscape:window-x="0"
     inkscape:window-y="0"
     inkscape:window-maximized="1"
     inkscape:current-layer="Layer_1" /><g
     id="g279"
     transform="scale(0.04687491)"><g
       id="g6"><path
         id="path2"
         d="M 512,200.093 H 0 V 97.104 c 0,-4.875 3.953,-8.828 8.828,-8.828 h 494.345 c 4.875,0 8.828,3.953 8.828,8.828 z"
         style="fill:#41479b"
         inkscape:connector-curvature="0" /><path
         id="path4"
         d="M 503.172,423.725 H 8.828 C 3.953,423.725 0,419.772 0,414.897 V 311.909 h 512 v 102.988 c 0,4.876 -3.953,8.828 -8.828,8.828 z"
         style="fill:#41479b"
         inkscape:connector-curvature="0" /></g><rect
       id="rect8"
       height="111.81"
       width="512"
       style="fill:#f5f5f5"
       y="200.091"
       x="0" /><g
       id="g62"><path
         id="path10"
         d="m 255.789,293.563 c -21.295,0 -38.621,-17.325 -38.621,-38.621 0,-9.097 3.224,-17.931 9.08,-24.877 l 1.687,1.422 c -5.521,6.548 -8.561,14.877 -8.561,23.455 0,20.077 16.335,36.414 36.414,36.414 z"
         style="fill:#50af69"
         inkscape:connector-curvature="0" /><path
         id="path12"
         d="m 241.662,282.16 c -0.482,0.823 -0.721,1.953 -0.825,3.1 -0.436,-0.314 -0.898,-0.606 -1.4,-0.851 0,0 -0.759,2.674 -0.166,4.599 0,0 -2.013,0.249 -3.861,2.103 0,0 0.637,0.45 1.73,0.919 -1.835,1.432 -2.401,2.848 -2.401,2.848 10.83,5.415 16.02,-2.138 16.246,-2.477 -2.653,-7.569 -9.323,-10.241 -9.323,-10.241 z"
         style="fill:#50af69"
         inkscape:connector-curvature="0" /><path
         id="path14"
         d="m 250.985,292.403 c 0.007,0.019 0.015,0.035 0.022,0.055 v -0.087 c 0,0 -0.017,0.024 -0.022,0.032 z"
         style="fill:#50af69"
         inkscape:connector-curvature="0" /><path
         id="path16"
         d="m 231.66,274.942 c -0.707,0.518 -1.321,1.383 -1.83,2.312 -0.253,-0.424 -0.535,-0.839 -0.87,-1.229 0,0 -1.618,1.976 -1.821,3.817 0,0 -1.788,-0.525 -4.023,0.362 0,0 0.372,0.612 1.122,1.408 -2.07,0.536 -3.065,1.523 -3.065,1.523 7.149,8.525 14.287,4.055 14.601,3.852 0.534,-7.355 -4.114,-12.045 -4.114,-12.045 z"
         style="fill:#50af69"
         inkscape:connector-curvature="0" /><path
         id="path18"
         d="m 235.775,286.985 c -0.001,0.019 0,0.035 -0.002,0.054 l 0.032,-0.073 c 0,0 -0.022,0.014 -0.03,0.019 z"
         style="fill:#50af69"
         inkscape:connector-curvature="0" /><path
         id="path20"
         d="m 225.455,265.505 c -0.772,0.163 -1.598,0.647 -2.359,1.22 -0.051,-0.442 -0.129,-0.887 -0.259,-1.332 0,0 -2.061,1.024 -2.91,2.461 0,0 -1.274,-1.095 -3.438,-1.194 0,0 0.078,0.641 0.401,1.572 -1.899,-0.327 -3.082,0.115 -3.082,0.115 2.713,9.652 10.232,8.625 10.567,8.574 3.158,-5.84 1.08,-11.416 1.08,-11.416 z"
         style="fill:#50af69"
         inkscape:connector-curvature="0" /><path
         id="path22"
         d="m 224.372,276.922 c -0.008,0.014 -0.013,0.029 -0.022,0.044 l 0.053,-0.049 c 0.001,0.001 -0.023,0.004 -0.031,0.005 z"
         style="fill:#50af69"
         inkscape:connector-curvature="0" /><path
         id="path24"
         d="m 222.999,254.75 c -0.733,0.047 -1.586,0.367 -2.403,0.774 0.056,-0.39 0.087,-0.786 0.073,-1.187 0,0 -2.09,0.639 -3.183,1.782 0,0 -0.896,-1.103 -2.822,-1.452 0,0 -0.076,0.566 0,1.412 -1.634,-0.513 -2.801,-0.274 -2.801,-0.274 0.228,8.702 7.231,8.721 7.543,8.717 4.185,-4.684 3.593,-9.772 3.593,-9.772 z"
         style="fill:#50af69"
         inkscape:connector-curvature="0" /><path
         id="path26"
         d="m 219.405,264.524 c -0.011,0.012 -0.019,0.023 -0.03,0.035 l 0.058,-0.035 c 0.001,0 -0.021,-10e-4 -0.028,0 z"
         style="fill:#50af69"
         inkscape:connector-curvature="0" /><path
         id="path28"
         d="m 223.814,245.843 c -0.627,-0.15 -1.426,-0.103 -2.217,0.028 0.148,-0.312 0.277,-0.637 0.367,-0.977 0,0 -1.919,-0.004 -3.132,0.672 0,0 -0.466,-1.158 -1.991,-1.948 0,0 -0.211,0.455 -0.366,1.185 -1.238,-0.853 -2.279,-0.953 -2.279,-0.953 -2.06,7.358 3.809,9.186 4.072,9.263 4.725,-2.849 5.546,-7.27 5.546,-7.27 z"
         style="fill:#50af69"
         inkscape:connector-curvature="0" /><path
         id="path30"
         d="m 218.27,253.112 c -0.012,0.008 -0.022,0.015 -0.034,0.022 l 0.058,-0.014 c 0,0 -0.019,-0.007 -0.024,-0.008 z"
         style="fill:#50af69"
         inkscape:connector-curvature="0" /><path
         id="path32"
         d="m 219.168,235.011 c 0,0 -2.001,5.241 1.103,8.276 0,0 4.046,-1.195 6.046,-5.402 l -1.702,-0.322 -0.874,-2.621 -2.897,1.288 z"
         style="fill:#50af69"
         inkscape:connector-curvature="0" /><path
         id="path34"
         d="m 224.802,226.586 c 0,0 -3.135,4.652 -0.8,8.311 0,0 4.212,-0.248 7.113,-3.893 l -1.585,-0.698 -0.257,-2.751 -3.113,0.598 z"
         style="fill:#50af69"
         inkscape:connector-curvature="0" /><path
         id="path36"
         d="m 256.211,293.563 v -2.207 c 20.078,0 36.414,-16.337 36.414,-36.414 0,-8.577 -3.04,-16.907 -8.561,-23.455 l 1.687,-1.422 c 5.856,6.946 9.08,15.78 9.08,24.877 0,21.296 -17.325,38.621 -38.62,38.621 z"
         style="fill:#50af69"
         inkscape:connector-curvature="0" /><path
         id="path38"
         d="m 270.338,282.16 c 0.482,0.823 0.721,1.953 0.825,3.1 0.436,-0.314 0.898,-0.606 1.4,-0.851 0,0 0.759,2.674 0.165,4.599 0,0 2.013,0.249 3.861,2.103 0,0 -0.637,0.45 -1.73,0.919 1.835,1.432 2.401,2.848 2.401,2.848 -10.83,5.415 -16.02,-2.138 -16.246,-2.477 2.654,-7.569 9.324,-10.241 9.324,-10.241 z"
         style="fill:#50af69"
         inkscape:connector-curvature="0" /><path
         id="path40"
         d="m 261.015,292.403 c -0.007,0.019 -0.015,0.035 -0.022,0.055 v -0.087 c 0,0 0.017,0.024 0.022,0.032 z"
         style="fill:#50af69"
         inkscape:connector-curvature="0" /><path
         id="path42"
         d="m 280.34,274.942 c 0.707,0.518 1.321,1.383 1.829,2.312 0.253,-0.424 0.535,-0.839 0.87,-1.229 0,0 1.618,1.976 1.821,3.817 0,0 1.788,-0.525 4.023,0.362 0,0 -0.372,0.612 -1.122,1.408 2.07,0.536 3.065,1.523 3.065,1.523 -7.149,8.525 -14.287,4.055 -14.601,3.852 -0.533,-7.355 4.115,-12.045 4.115,-12.045 z"
         style="fill:#50af69"
         inkscape:connector-curvature="0" /><path
         id="path44"
         d="m 276.225,286.985 c 10e-4,0.019 0,0.035 0.002,0.054 l -0.032,-0.073 c 0,0 0.022,0.014 0.03,0.019 z"
         style="fill:#50af69"
         inkscape:connector-curvature="0" /><path
         id="path46"
         d="m 286.545,265.505 c 0.772,0.163 1.598,0.647 2.359,1.22 0.051,-0.442 0.129,-0.887 0.259,-1.332 0,0 2.061,1.024 2.91,2.461 0,0 1.274,-1.095 3.438,-1.194 0,0 -0.078,0.641 -0.401,1.572 1.899,-0.327 3.082,0.115 3.082,0.115 -2.713,9.652 -10.232,8.625 -10.567,8.574 -3.158,-5.84 -1.08,-11.416 -1.08,-11.416 z"
         style="fill:#50af69"
         inkscape:connector-curvature="0" /><path
         id="path48"
         d="m 287.628,276.922 c 0.008,0.014 0.013,0.029 0.022,0.044 l -0.053,-0.049 c -10e-4,0.001 0.023,0.004 0.031,0.005 z"
         style="fill:#50af69"
         inkscape:connector-curvature="0" /><path
         id="path50"
         d="m 289.001,254.75 c 0.733,0.047 1.586,0.367 2.403,0.774 -0.056,-0.39 -0.087,-0.786 -0.073,-1.187 0,0 2.09,0.639 3.183,1.782 0,0 0.896,-1.103 2.822,-1.452 0,0 0.076,0.566 0,1.412 1.634,-0.513 2.801,-0.274 2.801,-0.274 -0.228,8.702 -7.231,8.721 -7.543,8.717 -4.185,-4.684 -3.593,-9.772 -3.593,-9.772 z"
         style="fill:#50af69"
         inkscape:connector-curvature="0" /><path
         id="path52"
         d="m 292.595,264.524 c 0.011,0.012 0.019,0.023 0.03,0.035 l -0.059,-0.035 c 0,0 0.022,-10e-4 0.029,0 z"
         style="fill:#50af69"
         inkscape:connector-curvature="0" /><path
         id="path54"
         d="m 288.186,245.843 c 0.627,-0.15 1.426,-0.103 2.217,0.028 -0.148,-0.312 -0.277,-0.637 -0.367,-0.977 0,0 1.919,-0.004 3.132,0.672 0,0 0.466,-1.158 1.991,-1.948 0,0 0.211,0.455 0.366,1.185 1.238,-0.853 2.279,-0.953 2.279,-0.953 2.06,7.358 -3.809,9.186 -4.072,9.263 -4.725,-2.849 -5.546,-7.27 -5.546,-7.27 z"
         style="fill:#50af69"
         inkscape:connector-curvature="0" /><path
         id="path56"
         d="m 293.73,253.112 c 0.012,0.008 0.022,0.015 0.034,0.022 l -0.058,-0.014 c 0,0 0.019,-0.007 0.024,-0.008 z"
         style="fill:#50af69"
         inkscape:connector-curvature="0" /><path
         id="path58"
         d="m 292.832,235.011 c 0,0 2.001,5.241 -1.103,8.276 0,0 -4.046,-1.195 -6.046,-5.402 l 1.702,-0.322 0.874,-2.621 2.897,1.288 z"
         style="fill:#50af69"
         inkscape:connector-curvature="0" /><path
         id="path60"
         d="m 287.198,226.586 c 0,0 3.135,4.652 0.8,8.311 0,0 -4.212,-0.248 -7.113,-3.893 l 1.585,-0.698 0.257,-2.751 3.113,0.598 z"
         style="fill:#50af69"
         inkscape:connector-curvature="0" /></g><path
       id="path64"
       d="m 256,270.346 -3.412,5.118 c -0.583,0.874 -0.468,2.038 0.276,2.781 l 3.136,3.136 3.136,-3.136 c 0.743,-0.743 0.858,-1.907 0.276,-2.781 z"
       style="fill:#41479b"
       inkscape:connector-curvature="0" /><path
       id="path66"
       d="m 257.454,275.464 -1.454,-5.118 -1.454,5.118 c -0.248,0.874 -0.199,2.038 0.117,2.781 l 1.337,3.136 1.336,-3.136 c 0.317,-0.744 0.367,-1.907 0.118,-2.781 z"
       style="fill:#f5f5f5"
       inkscape:connector-curvature="0" /><g
       id="g72"><path
         id="path68"
         d="M 256,224.553 V 210.76 c 0,0 -5.241,7.54 -4.414,18.574"
         style="fill:#41479b"
         inkscape:connector-curvature="0" /><path
         id="path70"
         d="m 232.494,224.6 c -7.582,16.456 0.195,29.996 1.827,32.545 0.043,0.068 10.827,-17.376 10.827,-17.376 L 232.494,224.6"
         style="fill:#41479b"
         inkscape:connector-curvature="0" /></g><path
       id="path74"
       d="m 240.477,247.315 c -1.196,-3.725 -1.369,-8.075 0.067,-13.066 l -4.692,-5.624 c -3.855,10.388 -2.26,18.058 1.599,23.562 0.947,-1.523 1.999,-3.217 3.026,-4.872 z"
       style="fill:#f5f5f5"
       inkscape:connector-curvature="0" /><path
       id="path76"
       d="m 244.967,240.688 c -0.329,0 -0.654,-0.147 -0.872,-0.427 L 230.258,222.47 c -0.375,-0.481 -0.288,-1.174 0.193,-1.547 0.483,-0.375 1.174,-0.287 1.548,0.194 l 13.837,17.791 c 0.375,0.481 0.288,1.174 -0.193,1.547 -0.201,0.158 -0.44,0.233 -0.676,0.233 z"
       style="fill:#ffe15a"
       inkscape:connector-curvature="0" /><path
       id="path78"
       d="m 222.897,241.699 c -4.414,44.138 30.897,33.103 33.103,28.69 l -22.069,-11.034 4.414,-8.828 -15.448,-8.828"
       style="fill:#41479b"
       inkscape:connector-curvature="0" /><path
       id="path80"
       d="m 233.567,246.778 -6.151,-3.69 c -1.384,26.228 12.622,30.596 22.953,29.294 -8.375,-1.124 -16.743,-7.308 -16.802,-25.604 z"
       style="fill:#f5f5f5"
       inkscape:connector-curvature="0" /><path
       id="path82"
       d="m 238.343,251.628 c -0.2,0 -0.402,-0.054 -0.584,-0.168 l -17.654,-11.032 c -0.516,-0.323 -0.673,-1.004 -0.35,-1.519 0.322,-0.52 1.002,-0.676 1.521,-0.351 l 17.654,11.032 c 0.516,0.323 0.673,1.004 0.35,1.519 -0.21,0.336 -0.57,0.519 -0.937,0.519 z"
       style="fill:#ffe15a"
       inkscape:connector-curvature="0" /><path
       id="path84"
       d="m 279.506,224.556 c 7.582,16.456 -0.195,29.996 -1.827,32.545 -0.043,0.068 -10.827,-17.376 -10.827,-17.376 l 12.654,-15.169"
       style="fill:#41479b"
       inkscape:connector-curvature="0" /><path
       id="path86"
       d="m 271.523,247.271 c 1.196,-3.725 1.369,-8.075 -0.067,-13.066 l 4.692,-5.624 c 3.855,10.388 2.26,18.058 -1.599,23.562 -0.947,-1.522 -1.999,-3.217 -3.026,-4.872 z"
       style="fill:#f5f5f5"
       inkscape:connector-curvature="0" /><path
       id="path88"
       d="m 267.033,240.645 c -0.236,0 -0.476,-0.075 -0.676,-0.233 -0.481,-0.373 -0.568,-1.067 -0.193,-1.547 l 13.837,-17.791 c 0.375,-0.481 1.067,-0.567 1.548,-0.194 0.481,0.373 0.568,1.067 0.193,1.547 l -13.837,17.791 c -0.217,0.281 -0.543,0.427 -0.872,0.427 z"
       style="fill:#ffe15a"
       inkscape:connector-curvature="0" /><path
       id="path90"
       d="m 289.103,241.656 c 4.414,44.138 -30.897,33.103 -33.103,28.69 l 22.069,-11.034 -4.414,-8.828 15.448,-8.828"
       style="fill:#41479b"
       inkscape:connector-curvature="0" /><path
       id="path92"
       d="m 278.433,246.734 6.151,-3.69 c 1.384,26.228 -12.622,30.596 -22.953,29.294 8.375,-1.124 16.743,-7.307 16.802,-25.604 z"
       style="fill:#f5f5f5"
       inkscape:connector-curvature="0" /><path
       id="path94"
       d="m 273.657,251.585 c -0.367,0 -0.727,-0.183 -0.937,-0.52 -0.323,-0.515 -0.165,-1.196 0.35,-1.519 l 17.654,-11.032 c 0.519,-0.326 1.198,-0.168 1.521,0.351 0.323,0.515 0.166,1.196 -0.35,1.519 l -17.654,11.032 c -0.182,0.115 -0.384,0.169 -0.584,0.169 z"
       style="fill:#ffe15a"
       inkscape:connector-curvature="0" /><circle
       id="circle96"
       r="8.8280001"
       cy="243.86099"
       cx="256"
       style="fill:#ffe6e6" /><circle
       id="circle98"
       r="4.414"
       cy="243.86099"
       cx="256"
       style="fill:#f5f5f5" /><path
       id="path100"
       d="m 256,258.208 c -0.61,0 -1.103,-0.493 -1.103,-1.103 v -13.241 c 0,-0.61 0.493,-1.103 1.103,-1.103 0.61,0 1.103,0.493 1.103,1.103 v 13.241 c 0,0.61 -0.493,1.103 -1.103,1.103 z"
       style="fill:#ffe15a"
       inkscape:connector-curvature="0" /><polygon
       id="polygon102"
       points="278.253,257.038 286.161,270.162 227.034,270.162 233.931,257.038 "
       style="fill:#5aa0e6" /><path
       id="path104"
       d="m 257.795,259.496 h 15.377 l -4.783,-4.783 c -0.225,-0.225 -0.5,-0.395 -0.801,-0.495 l -1.665,-0.555 c -0.6,-0.2 -1.259,-0.111 -1.785,0.239 l -5.316,3.544 z"
       style="fill:#ffb750"
       inkscape:connector-curvature="0" /><path
       id="path106"
       d="m 252.567,260.323 h 18.353 l -5.709,-5.709 c -0.268,-0.268 -0.596,-0.471 -0.957,-0.591 l -1.987,-0.662 c -0.716,-0.238 -1.503,-0.134 -2.131,0.286 l -6.345,4.231 z"
       style="fill:#ffc455"
       inkscape:connector-curvature="0" /><path
       id="path108"
       d="m 246.183,261.242 h 22.163 l -6.894,-6.894 c -0.324,-0.324 -0.719,-0.568 -1.155,-0.714 l -2.4,-0.8 c -0.865,-0.288 -1.815,-0.161 -2.573,0.344 l -7.662,5.108 z"
       style="fill:#ffcd55"
       inkscape:connector-curvature="0" /><path
       id="path110"
       d="m 239.865,262.07 h 25.376 l -7.894,-7.894 c -0.372,-0.372 -0.824,-0.651 -1.323,-0.818 l -2.748,-0.916 c -0.991,-0.33 -2.078,-0.184 -2.947,0.395 l -8.774,5.849 z"
       style="fill:#ffd25a"
       inkscape:connector-curvature="0" /><path
       id="path112"
       d="m 229.517,263.725 h 33.103 l -10.297,-10.297 c -0.484,-0.484 -1.075,-0.85 -1.726,-1.066 l -3.584,-1.195 c -1.292,-0.43 -2.711,-0.241 -3.844,0.515 l -11.445,7.629 z"
       style="fill:#ffe15a"
       inkscape:connector-curvature="0" /><g
       id="g120"><path
         id="path114"
         d="m 258.382,245.843 h -4.771 l 1.099,-4.607 h 1.658 c 0.537,0 1.004,0.369 1.129,0.892 z"
         style="fill:#ff4b55"
         inkscape:connector-curvature="0" /><path
         id="path116"
         d="m 258.108,246.583 h -4.284 c -0.351,0 -0.634,-0.284 -0.634,-0.634 v -0.212 c 0,-0.351 0.285,-0.634 0.634,-0.634 h 4.284 c 0.351,0 0.634,0.285 0.634,0.634 v 0.212 c 0,0.349 -0.285,0.634 -0.634,0.634 z"
         style="fill:#ff4b55"
         inkscape:connector-curvature="0" /><path
         id="path118"
         d="m 255.276,243.333 -1.071,-0.271 c -0.323,-0.082 -0.463,-0.462 -0.27,-0.734 l 0.775,-1.092 z"
         style="fill:#ff4b55"
         inkscape:connector-curvature="0" /></g><path
       id="path122"
       d="m 250.495,232.527 c -0.052,0.405 -0.105,0.811 -0.157,1.216 1.715,-1.041 3.607,-1.665 5.662,-1.665 2.053,0.002 3.946,0.622 5.662,1.665 -0.052,-0.406 -0.105,-0.811 -0.157,-1.216 -1.706,-0.89 -3.542,-1.402 -5.505,-1.4 -1.962,-0.002 -3.798,0.509 -5.505,1.4 z"
       style="fill:#41479b"
       inkscape:connector-curvature="0" /><path
       id="path124"
       d="m 250.563,231.999 c -0.052,0.405 -0.105,0.811 -0.157,1.216 1.696,-1.043 3.565,-1.668 5.593,-1.671 2.028,0.002 3.897,0.627 5.593,1.671 -0.052,-0.406 -0.105,-0.811 -0.157,-1.216 -1.687,-0.897 -3.499,-1.405 -5.437,-1.406 -1.936,0 -3.748,0.511 -5.435,1.406 z"
       style="fill:#5aa0e6"
       inkscape:connector-curvature="0" /><path
       id="path126"
       d="m 250.626,231.51 c -0.052,0.405 -0.105,0.811 -0.157,1.216 1.679,-1.046 3.527,-1.676 5.53,-1.675 2.004,0 3.851,0.629 5.53,1.675 -0.052,-0.405 -0.105,-0.811 -0.157,-1.216 -1.668,-0.896 -3.459,-1.41 -5.374,-1.411 -1.911,-10e-4 -3.702,0.514 -5.372,1.411 z"
       style="fill:#9bc800"
       inkscape:connector-curvature="0" /><path
       id="path128"
       d="m 250.699,230.951 c -0.052,0.406 -0.105,0.811 -0.157,1.216 1.66,-1.049 3.482,-1.681 5.459,-1.681 1.976,0.002 3.799,0.63 5.459,1.681 -0.052,-0.405 -0.105,-0.811 -0.157,-1.216 -1.649,-0.9 -3.414,-1.416 -5.301,-1.417 -1.889,0.002 -3.654,0.517 -5.303,1.417 z"
       style="fill:#ffe14e"
       inkscape:connector-curvature="0" /><path
       id="path130"
       d="m 250.77,230.402 c -0.052,0.405 -0.105,0.811 -0.157,1.216 1.641,-1.053 3.437,-1.685 5.387,-1.686 1.95,0.002 3.747,0.632 5.387,1.686 -0.052,-0.405 -0.105,-0.811 -0.157,-1.216 -1.629,-0.903 -3.37,-1.421 -5.23,-1.422 -1.86,0.002 -3.602,0.518 -5.23,1.422 z"
       style="fill:#ffb14e"
       inkscape:connector-curvature="0" /><path
       id="path132"
       d="m 250.799,230.168 c -0.036,0.284 -0.073,0.568 -0.109,0.852 1.619,-1.054 3.391,-1.693 5.311,-1.693 1.92,-0.001 3.691,0.637 5.311,1.693 -0.036,-0.284 -0.073,-0.568 -0.109,-0.852 -1.62,-0.904 -3.351,-1.423 -5.201,-1.425 -1.851,-0.002 -3.583,0.52 -5.203,1.425 z"
       style="fill:#ff4b55"
       inkscape:connector-curvature="0" /><g
       id="g140"><path
         id="path134"
         d="m 286.897,271.449 h -61.793 c -0.407,0 -0.781,-0.224 -0.973,-0.582 -0.192,-0.36 -0.17,-0.796 0.055,-1.133 l 30.897,-46.345 c 0.409,-0.612 1.427,-0.612 1.836,0 l 30.897,46.345 c 0.225,0.339 0.247,0.774 0.055,1.133 -0.193,0.358 -0.567,0.582 -0.974,0.582 z m -59.732,-2.207 h 57.671 L 256,225.991 Z"
         style="fill:#ffe15a"
         inkscape:connector-curvature="0" /><path
         id="path136"
         d="m 256,214.07 c -0.61,0 -1.103,-0.493 -1.103,-1.103 v -4.414 c 0,-0.61 0.493,-1.103 1.103,-1.103 0.61,0 1.103,0.493 1.103,1.103 v 4.414 c 0,0.61 -0.493,1.103 -1.103,1.103 z"
         style="fill:#ffe15a"
         inkscape:connector-curvature="0" /><path
         id="path138"
         d="m 258.207,214.07 h -4.414 c -0.61,0 -1.103,-0.493 -1.103,-1.103 0,-0.61 0.493,-1.103 1.103,-1.103 h 4.414 c 0.61,0 1.103,0.493 1.103,1.103 0,0.61 -0.493,1.103 -1.103,1.103 z"
         style="fill:#ffe15a"
         inkscape:connector-curvature="0" /></g><g
       id="g150"><path
         id="path142"
         d="m 256,293.518 c -0.079,0 -0.161,-0.009 -0.239,-0.025 -1.08,-0.242 -4.684,-1.106 -5.747,-2.159 -1.35,-1.341 -1.357,-3.528 -0.019,-4.879 0.65,-0.653 1.514,-1.015 2.435,-1.017 h 0.012 c 0.917,0 1.779,0.355 2.43,1.002 1.063,1.056 1.954,4.651 2.202,5.728 0.085,0.369 -0.025,0.757 -0.292,1.026 -0.208,0.209 -0.491,0.324 -0.782,0.324 z m -3.558,-5.875 c -0.294,0.097 -0.647,0.131 -0.882,0.366 -0.482,0.484 -0.479,1.273 0.008,1.757 0.267,0.26 1.46,0.712 2.89,1.119 -0.418,-1.425 -0.877,-2.614 -1.141,-2.881 l 0.777,-0.782 -0.778,0.782 c -0.234,-0.234 -0.544,-0.361 -0.874,-0.361 z"
         style="fill:#41479b"
         inkscape:connector-curvature="0" /><path
         id="path144"
         d="m 256,293.518 c -0.291,0 -0.574,-0.115 -0.783,-0.326 -0.266,-0.269 -0.377,-0.658 -0.292,-1.026 0.248,-1.078 1.14,-4.672 2.202,-5.728 v 0 c 0.654,-0.649 1.433,-0.943 2.442,-1.002 0.921,0.002 1.785,0.364 2.434,1.017 1.341,1.352 1.332,3.539 -0.017,4.877 -1.064,1.056 -4.668,1.92 -5.748,2.162 -0.077,0.017 -0.159,0.026 -0.238,0.026 z m 1.906,-6.297 0.777,0.782 c -0.264,0.267 -0.723,1.457 -1.141,2.881 1.43,-0.407 2.623,-0.857 2.891,-1.121 0.484,-0.481 0.488,-1.269 0.006,-1.754 -0.233,-0.235 -0.544,-0.366 -0.876,-0.366 h -0.004 c -0.33,0 -0.64,0.127 -0.874,0.36 z m 0,0 h 0.022 z"
         style="fill:#41479b"
         inkscape:connector-curvature="0" /><path
         id="path146"
         d="m 251.586,300.139 c -0.61,0 -1.103,-0.493 -1.103,-1.103 0,-5.038 4.819,-7.505 5.024,-7.608 0.548,-0.274 1.205,-0.05 1.478,0.491 0.274,0.543 0.055,1.205 -0.487,1.481 -0.039,0.02 -3.807,1.976 -3.807,5.635 -0.001,0.611 -0.495,1.104 -1.105,1.104 z"
         style="fill:#41479b"
         inkscape:connector-curvature="0" /><path
         id="path148"
         d="m 260.414,300.139 c -0.61,0 -1.103,-0.493 -1.103,-1.103 0,-3.659 -3.768,-5.617 -3.807,-5.635 -0.542,-0.276 -0.76,-0.938 -0.487,-1.481 0.275,-0.541 0.931,-0.765 1.478,-0.491 0.205,0.104 5.024,2.569 5.024,7.608 -0.002,0.609 -0.495,1.102 -1.105,1.102 z"
         style="fill:#41479b"
         inkscape:connector-curvature="0" /></g><g
       id="g152" /><g
       id="g154" /><g
       id="g156" /><g
       id="g158" /><g
       id="g160" /><g
       id="g162" /><g
       id="g164" /><g
       id="g166" /><g
       id="g168" /><g
       id="g170" /><g
       id="g172" /><g
       id="g174" /><g
       id="g176" /><g
       id="g178" /><g
       id="g180" /></g></svg>