<?xml version="1.0" encoding="UTF-8" standalone="no"?>
<!-- Generator: Adobe Illustrator 19.0.0, SVG Export Plug-In . SVG Version: 6.00 Build 0)  -->

<svg
   xmlns:dc="http://purl.org/dc/elements/1.1/"
   xmlns:cc="http://creativecommons.org/ns#"
   xmlns:rdf="http://www.w3.org/1999/02/22-rdf-syntax-ns#"
   xmlns:svg="http://www.w3.org/2000/svg"
   xmlns="http://www.w3.org/2000/svg"
   xmlns:sodipodi="http://sodipodi.sourceforge.net/DTD/sodipodi-0.dtd"
   xmlns:inkscape="http://www.inkscape.org/namespaces/inkscape"
   version="1.1"
   id="Layer_1"
   x="0px"
   y="0px"
   viewBox="0 0 24.000001 24.000001"
   xml:space="preserve"
   sodipodi:docname="es_UY.svg"
   width="24"
   height="24"
   inkscape:version="0.92.1 r15381"><metadata
     id="metadata119"><rdf:RDF><cc:Work
         rdf:about=""><dc:format>image/svg+xml</dc:format><dc:type
           rdf:resource="http://purl.org/dc/dcmitype/StillImage" /><dc:title></dc:title></cc:Work></rdf:RDF></metadata><defs
     id="defs117" /><sodipodi:namedview
     pagecolor="#ffffff"
     bordercolor="#666666"
     borderopacity="1"
     objecttolerance="10"
     gridtolerance="10"
     guidetolerance="10"
     inkscape:pageopacity="0"
     inkscape:pageshadow="2"
     inkscape:window-width="1440"
     inkscape:window-height="825"
     id="namedview115"
     showgrid="false"
     inkscape:zoom="0.46093662"
     inkscape:cx="256.00049"
     inkscape:cy="82.440835"
     inkscape:window-x="0"
     inkscape:window-y="0"
     inkscape:window-maximized="1"
     inkscape:current-layer="Layer_1" /><g
     id="g177"
     transform="matrix(0.04687491,0,0,0.04687491,-3.97455e-7,2.304e-5)"><path
       id="path2"
       d="M 503.172,88.276 H 8.828 C 3.953,88.276 0,92.228 0,97.103 v 317.793 c 0,4.875 3.953,8.828 8.828,8.828 h 494.345 c 4.875,0 8.828,-3.953 8.828,-8.828 V 97.103 C 512,92.228 508.047,88.276 503.172,88.276 Z"
       style="fill:#f5f5f5"
       inkscape:connector-curvature="0" /><rect
       id="rect4"
       height="37.27"
       width="326.62"
       style="fill:#4173cd"
       y="125.55"
       x="185.38" /><rect
       id="rect6"
       height="37.27"
       width="512"
       style="fill:#f5f5f5"
       y="162.82001"
       x="0" /><rect
       id="rect8"
       height="37.27"
       width="326.62"
       style="fill:#4173cd"
       y="200.09"
       x="185.38" /><rect
       id="rect10"
       height="37.27"
       width="512"
       style="fill:#f5f5f5"
       y="237.36"
       x="0" /><rect
       id="rect12"
       height="37.27"
       width="512"
       style="fill:#4173cd"
       y="274.64099"
       x="0" /><rect
       id="rect14"
       height="37.27"
       width="512"
       style="fill:#f5f5f5"
       y="311.91"
       x="0" /><rect
       id="rect16"
       height="37.27"
       width="512"
       style="fill:#4173cd"
       y="349.17999"
       x="0" /><polygon
       id="polygon18"
       points="78.743,179.975 101.85,170.403 63.976,111.642 "
       style="fill:#ffe15a" /><polygon
       id="polygon20"
       points="90.296,175.189 78.743,179.975 63.976,111.642 "
       style="fill:#ffcd5a" /><polygon
       id="polygon22"
       points="106.636,181.956 83.529,191.528 121.404,250.289 "
       style="fill:#ffe15a" /><polygon
       id="polygon24"
       points="95.083,186.742 106.636,181.956 121.404,250.289 "
       style="fill:#ffcd5a" /><polygon
       id="polygon26"
       points="93.681,167.019 103.252,190.126 162.013,152.252 "
       style="fill:#ffe15a" /><polygon
       id="polygon28"
       points="98.466,178.572 93.681,167.019 162.013,152.252 "
       style="fill:#ffcd5a" /><polygon
       id="polygon30"
       points="91.699,194.912 82.127,171.805 23.367,209.679 "
       style="fill:#ffe15a" /><polygon
       id="polygon32"
       points="86.913,183.359 91.699,194.912 23.367,209.679 "
       style="fill:#ffcd5a" /><polygon
       id="polygon34"
       points="83.529,170.403 106.636,179.975 121.404,111.642 "
       style="fill:#ffe15a" /><polygon
       id="polygon36"
       points="95.083,175.189 83.529,170.403 121.404,111.642 "
       style="fill:#ffcd5a" /><polygon
       id="polygon38"
       points="101.85,191.528 78.743,181.956 63.976,250.289 "
       style="fill:#ffe15a" /><polygon
       id="polygon40"
       points="90.296,186.742 101.85,191.528 63.976,250.289 "
       style="fill:#ffcd5a" /><polygon
       id="polygon42"
       points="103.252,171.805 93.681,194.912 162.013,209.679 "
       style="fill:#ffe15a" /><polygon
       id="polygon44"
       points="98.466,183.359 103.252,171.805 162.013,209.679 "
       style="fill:#ffcd5a" /><polygon
       id="polygon46"
       points="82.127,190.126 91.699,167.019 23.367,152.252 "
       style="fill:#ffe15a" /><polygon
       id="polygon48"
       points="86.913,178.572 82.127,190.126 23.367,152.252 "
       style="fill:#ffcd5a" /><polygon
       id="polygon50"
       points="80.184,174.712 105.195,174.712 92.69,105.931 "
       style="fill:#ffe15a" /><polygon
       id="polygon52"
       points="92.69,174.712 80.184,174.712 92.69,105.931 "
       style="fill:#ffcd5a" /><polygon
       id="polygon54"
       points="105.195,187.219 80.184,187.219 92.69,256 "
       style="fill:#ffe15a" /><polygon
       id="polygon56"
       points="92.69,187.219 105.195,187.219 92.69,256 "
       style="fill:#ffcd5a" /><polygon
       id="polygon58"
       points="98.943,168.46 98.943,193.471 167.724,180.966 "
       style="fill:#ffe15a" /><polygon
       id="polygon60"
       points="98.943,180.966 98.943,168.46 167.724,180.966 "
       style="fill:#ffcd5a" /><polygon
       id="polygon62"
       points="86.436,193.471 86.436,168.46 17.655,180.966 "
       style="fill:#ffe15a" /><polygon
       id="polygon64"
       points="86.436,180.966 86.436,193.471 17.655,180.966 "
       style="fill:#ffcd5a" /><polygon
       id="polygon66"
       points="88.268,167.701 105.954,185.387 145.747,127.908 "
       style="fill:#ffe15a" /><polygon
       id="polygon68"
       points="97.111,176.544 88.268,167.701 145.747,127.908 "
       style="fill:#ffcd5a" /><polygon
       id="polygon70"
       points="97.111,194.23 79.425,176.544 39.633,234.023 "
       style="fill:#ffe15a" /><polygon
       id="polygon72"
       points="88.268,185.387 97.111,194.23 39.633,234.023 "
       style="fill:#ffcd5a" /><polygon
       id="polygon74"
       points="105.954,176.544 88.268,194.23 145.747,234.023 "
       style="fill:#ffe15a" /><polygon
       id="polygon76"
       points="97.111,185.387 105.954,176.544 145.747,234.023 "
       style="fill:#ffcd5a" /><polygon
       id="polygon78"
       points="79.425,185.387 97.111,167.701 39.633,127.908 "
       style="fill:#ffe15a" /><polygon
       id="polygon80"
       points="88.268,176.544 79.425,185.387 39.633,127.908 "
       style="fill:#ffcd5a" /><circle
       id="circle82"
       r="25.01"
       cy="180.97"
       cx="92.690002"
       style="fill:#ffe15a" /><g
       id="g84" /><g
       id="g86" /><g
       id="g88" /><g
       id="g90" /><g
       id="g92" /><g
       id="g94" /><g
       id="g96" /><g
       id="g98" /><g
       id="g100" /><g
       id="g102" /><g
       id="g104" /><g
       id="g106" /><g
       id="g108" /><g
       id="g110" /><g
       id="g112" /></g></svg>