<?xml version="1.0" encoding="UTF-8" standalone="no"?>
<!-- Generator: Adobe Illustrator 19.0.0, SVG Export Plug-In . SVG Version: 6.00 Build 0)  -->

<svg
   xmlns:dc="http://purl.org/dc/elements/1.1/"
   xmlns:cc="http://creativecommons.org/ns#"
   xmlns:rdf="http://www.w3.org/1999/02/22-rdf-syntax-ns#"
   xmlns:svg="http://www.w3.org/2000/svg"
   xmlns="http://www.w3.org/2000/svg"
   xmlns:sodipodi="http://sodipodi.sourceforge.net/DTD/sodipodi-0.dtd"
   xmlns:inkscape="http://www.inkscape.org/namespaces/inkscape"
   version="1.1"
   id="Layer_1"
   x="0px"
   y="0px"
   viewBox="0 0 24.000001 24.000001"
   xml:space="preserve"
   sodipodi:docname="es_VE.svg"
   width="24"
   height="24"
   inkscape:version="0.92.1 r15381"><metadata
     id="metadata65"><rdf:RDF><cc:Work
         rdf:about=""><dc:format>image/svg+xml</dc:format><dc:type
           rdf:resource="http://purl.org/dc/dcmitype/StillImage" /><dc:title></dc:title></cc:Work></rdf:RDF></metadata><defs
     id="defs63" /><sodipodi:namedview
     pagecolor="#ffffff"
     bordercolor="#666666"
     borderopacity="1"
     objecttolerance="10"
     gridtolerance="10"
     guidetolerance="10"
     inkscape:pageopacity="0"
     inkscape:pageshadow="2"
     inkscape:window-width="1429"
     inkscape:window-height="702"
     id="namedview61"
     showgrid="false"
     inkscape:zoom="20.375"
     inkscape:cx="12"
     inkscape:cy="12"
     inkscape:window-x="0"
     inkscape:window-y="0"
     inkscape:window-maximized="0"
     inkscape:current-layer="Layer_1" /><g
     id="g96"
     transform="scale(0.04687491)"><path
       id="path2"
       d="M 512,200.093 H 0 V 97.104 c 0,-4.875 3.953,-8.828 8.828,-8.828 h 494.345 c 4.875,0 8.828,3.953 8.828,8.828 z"
       style="fill:#ffe15a"
       inkscape:connector-curvature="0" /><path
       id="path4"
       d="M 503.172,423.725 H 8.828 C 3.953,423.725 0,419.772 0,414.897 V 311.909 h 512 v 102.988 c 0,4.876 -3.953,8.828 -8.828,8.828 z"
       style="fill:#ff4b55"
       inkscape:connector-curvature="0" /><rect
       id="rect6"
       height="111.81"
       width="512"
       style="fill:#41479b"
       y="200.091"
       x="0" /><g
       id="g28"><path
         id="path8"
         d="m 178.14,277.498 2.212,6.633 6.991,0.054 c 0.905,0.007 1.281,1.162 0.553,1.7 l -5.624,4.153 2.109,6.667 c 0.273,0.863 -0.71,1.577 -1.447,1.05 l -5.688,-4.066 -5.688,4.066 c -0.736,0.526 -1.719,-0.188 -1.447,-1.05 l 2.109,-6.667 -5.624,-4.153 c -0.728,-0.537 -0.353,-1.693 0.553,-1.7 l 6.991,-0.054 2.212,-6.633 c 0.287,-0.858 1.502,-0.858 1.788,0 z"
         style="fill:#f5f5f5"
         inkscape:connector-curvature="0" /><path
         id="path10"
         d="m 191.723,256.383 -1.185,6.891 6.136,3.352 c 0.794,0.434 0.579,1.63 -0.317,1.759 l -6.92,1.002 -1.292,6.871 c -0.168,0.889 -1.37,1.055 -1.771,0.243 l -3.091,-6.272 -6.935,0.895 c -0.898,0.116 -1.427,-0.978 -0.778,-1.61 l 5.01,-4.878 -2.994,-6.318 c -0.387,-0.818 0.489,-1.659 1.29,-1.237 l 6.187,3.257 5.085,-4.8 c 0.658,-0.621 1.728,-0.047 1.575,0.845 z"
         style="fill:#f5f5f5"
         inkscape:connector-curvature="0" /><path
         id="path12"
         d="m 208.913,237.903 -3.282,6.174 4.779,5.103 c 0.619,0.661 0.041,1.729 -0.851,1.571 l -6.887,-1.213 -3.377,6.123 c -0.437,0.792 -1.632,0.573 -1.758,-0.323 l -0.974,-6.924 -6.867,-1.32 c -0.889,-0.171 -1.049,-1.375 -0.235,-1.772 l 6.284,-3.066 -0.867,-6.938 c -0.113,-0.898 0.983,-1.422 1.612,-0.771 l 4.858,5.028 6.33,-2.968 c 0.822,-0.384 1.659,0.496 1.235,1.296 z"
         style="fill:#f5f5f5"
         inkscape:connector-curvature="0" /><path
         id="path14"
         d="m 229.598,226.437 -4.824,5.062 3.228,6.202 c 0.418,0.803 -0.427,1.676 -1.244,1.284 l -6.304,-3.025 -4.903,4.986 c -0.634,0.646 -1.726,0.111 -1.606,-0.786 l 0.928,-6.931 -6.257,-3.122 c -0.81,-0.404 -0.64,-1.607 0.25,-1.77 l 6.878,-1.259 1.035,-6.915 c 0.134,-0.895 1.331,-1.105 1.761,-0.308 l 3.322,6.152 6.897,-1.152 c 0.895,-0.147 1.463,0.927 0.839,1.582 z"
         style="fill:#f5f5f5"
         inkscape:connector-curvature="0" /><path
         id="path16"
         d="m 253.374,221.124 -6.004,3.584 1.448,6.84 c 0.188,0.886 -0.861,1.501 -1.542,0.905 l -5.263,-4.602 -6.059,3.49 c -0.785,0.452 -1.693,-0.354 -1.336,-1.187 l 2.751,-6.429 -5.192,-4.683 c -0.672,-0.606 -0.185,-1.719 0.716,-1.637 l 6.964,0.629 2.85,-6.385 c 0.369,-0.826 1.578,-0.708 1.779,0.174 l 1.554,6.817 6.953,0.737 c 0.897,0.097 1.159,1.283 0.381,1.747 z"
         style="fill:#f5f5f5"
         inkscape:connector-curvature="0" /><path
         id="path18"
         d="m 333.86,277.498 -2.212,6.633 -6.991,0.054 c -0.905,0.007 -1.281,1.162 -0.553,1.7 l 5.624,4.153 -2.109,6.667 c -0.273,0.863 0.71,1.577 1.447,1.05 l 5.688,-4.066 5.688,4.066 c 0.736,0.526 1.719,-0.188 1.447,-1.05 l -2.109,-6.667 5.624,-4.153 c 0.728,-0.537 0.353,-1.693 -0.553,-1.7 l -6.991,-0.054 -2.212,-6.633 c -0.287,-0.858 -1.502,-0.858 -1.788,0 z"
         style="fill:#f5f5f5"
         inkscape:connector-curvature="0" /><path
         id="path20"
         d="m 320.277,256.383 1.185,6.891 -6.136,3.352 c -0.794,0.434 -0.579,1.63 0.317,1.759 l 6.92,1.002 1.292,6.871 c 0.168,0.889 1.371,1.055 1.771,0.243 l 3.091,-6.272 6.935,0.895 c 0.898,0.116 1.427,-0.978 0.778,-1.61 l -5.01,-4.878 2.994,-6.318 c 0.387,-0.818 -0.489,-1.659 -1.29,-1.237 l -6.187,3.257 -5.085,-4.8 c -0.658,-0.621 -1.728,-0.047 -1.575,0.845 z"
         style="fill:#f5f5f5"
         inkscape:connector-curvature="0" /><path
         id="path22"
         d="m 303.087,237.903 3.282,6.174 -4.779,5.103 c -0.619,0.661 -0.041,1.729 0.851,1.571 l 6.887,-1.213 3.377,6.123 c 0.437,0.792 1.632,0.573 1.758,-0.323 l 0.974,-6.924 6.867,-1.32 c 0.889,-0.171 1.049,-1.375 0.235,-1.772 l -6.284,-3.066 0.867,-6.938 c 0.113,-0.898 -0.983,-1.422 -1.612,-0.771 l -4.858,5.028 -6.33,-2.968 c -0.822,-0.384 -1.659,0.496 -1.235,1.296 z"
         style="fill:#f5f5f5"
         inkscape:connector-curvature="0" /><path
         id="path24"
         d="m 282.402,226.437 4.824,5.062 -3.228,6.202 c -0.418,0.803 0.427,1.676 1.244,1.284 l 6.304,-3.025 4.903,4.986 c 0.634,0.646 1.726,0.111 1.605,-0.786 l -0.928,-6.931 6.257,-3.122 c 0.81,-0.404 0.64,-1.607 -0.25,-1.77 l -6.878,-1.259 -1.035,-6.915 c -0.134,-0.895 -1.331,-1.105 -1.761,-0.308 l -3.322,6.152 -6.897,-1.152 c -0.894,-0.147 -1.462,0.927 -0.838,1.582 z"
         style="fill:#f5f5f5"
         inkscape:connector-curvature="0" /><path
         id="path26"
         d="m 258.626,221.124 6.004,3.584 -1.448,6.84 c -0.188,0.886 0.861,1.501 1.542,0.905 l 5.263,-4.602 6.059,3.49 c 0.785,0.452 1.693,-0.354 1.336,-1.187 l -2.751,-6.429 5.192,-4.683 c 0.672,-0.606 0.185,-1.719 -0.716,-1.637 l -6.964,0.629 -2.85,-6.385 c -0.369,-0.826 -1.578,-0.708 -1.779,0.174 l -1.554,6.817 -6.953,0.737 c -0.897,0.097 -1.159,1.283 -0.381,1.747 z"
         style="fill:#f5f5f5"
         inkscape:connector-curvature="0" /></g><g
       id="g30" /><g
       id="g32" /><g
       id="g34" /><g
       id="g36" /><g
       id="g38" /><g
       id="g40" /><g
       id="g42" /><g
       id="g44" /><g
       id="g46" /><g
       id="g48" /><g
       id="g50" /><g
       id="g52" /><g
       id="g54" /><g
       id="g56" /><g
       id="g58" /></g></svg>