<?xml version="1.0" encoding="UTF-8"?>
<svg width="24px" height="24px" viewBox="0 0 24 24" version="1.1" xmlns="http://www.w3.org/2000/svg" xmlns:xlink="http://www.w3.org/1999/xlink">
    <!-- Generator: Sketch 47.1 (45422) - http://www.bohemiancoding.com/sketch -->
    <title>Artboard</title>
    <desc>Created with Sketch.</desc>
    <defs></defs>
    <g id="Page-1" stroke="none" stroke-width="1" fill="none" fill-rule="evenodd">
        <g id="Artboard" fill-rule="nonzero">
            <g id="fr_CH" transform="translate(0.000000, 4.000000)">
                <path d="M23.5402105,15.7064327 L0.413005848,15.7064327 C0.184935673,15.7064327 0,15.5214971 0,15.2934269 L0,0.425918129 C0,0.197847953 0.184935673,0.0129122807 0.413005848,0.0129122807 L23.5402573,0.0129122807 C23.7683275,0.0129122807 23.9532632,0.197847953 23.9532632,0.425918129 L23.9532632,15.2934269 C23.9532164,15.5215439 23.7682807,15.7064327 23.5402105,15.7064327 Z" id="Shape" fill="#FF4B55"></path>
                <path d="M16.5194386,6.20776608 L13.628538,6.20776608 L13.628538,3.3168655 C13.628538,3.08879532 13.4436023,2.90385965 13.2155322,2.90385965 L10.7375906,2.90385965 C10.5095205,2.90385965 10.3245848,3.08879532 10.3245848,3.3168655 L10.3245848,6.20776608 L7.43368421,6.20776608 C7.20561404,6.20776608 7.02067836,6.39270175 7.02067836,6.62077193 L7.02067836,9.09871345 C7.02067836,9.32678363 7.20561404,9.5117193 7.43368421,9.5117193 L10.3245848,9.5117193 L10.3245848,12.4026199 C10.3245848,12.6306901 10.5095205,12.8156257 10.7375906,12.8156257 L13.2155322,12.8156257 C13.4436023,12.8156257 13.628538,12.6306901 13.628538,12.4026199 L13.628538,9.51162573 L16.5194386,9.51162573 C16.7475088,9.51162573 16.9324444,9.32669006 16.9324444,9.09861988 L16.9324444,6.62067836 C16.9324444,6.39265497 16.7475088,6.20776608 16.5194386,6.20776608 Z" id="Shape" fill="#F5F5F5"></path>
            </g>
        </g>
    </g>
</svg>