<?xml version="1.0" encoding="UTF-8"?>
<svg width="24px" height="24px" viewBox="0 0 24 24" version="1.1" xmlns="http://www.w3.org/2000/svg" xmlns:xlink="http://www.w3.org/1999/xlink">
    <!-- Generator: Sketch 47.1 (45422) - http://www.bohemiancoding.com/sketch -->
    <title>Artboard</title>
    <desc>Created with Sketch.</desc>
    <defs></defs>
    <g id="Page-1" stroke="none" stroke-width="1" fill="none" fill-rule="evenodd">
        <g id="Artboard" fill-rule="nonzero">
            <g id="en_CA" transform="translate(0.000000, 4.000000)">
                <g id="Group" fill="#F5F5F5">
                    <path d="M23.5402105,15.7062924 L0.413005848,15.7062924 C0.184935673,15.7062924 0,15.5213567 0,15.2932865 L0,0.425777778 C0,0.197707602 0.184935673,0.0127719298 0.413005848,0.0127719298 L23.5402573,0.0127719298 C23.7683275,0.0127719298 23.9532632,0.197707602 23.9532632,0.425777778 L23.9532632,15.2932865 C23.9532164,15.5214035 23.7682807,15.7062924 23.5402105,15.7062924 Z" id="Shape"></path>
                    <rect id="Rectangle-path" x="5.36888889" y="0.013005848" width="13.2154386" height="15.6935673"></rect>
                </g>
                <g id="Group" fill="#FF4B55">
                    <path d="M0.413005848,0.0128187135 C0.184935673,0.0128187135 0,0.197707602 0,0.425777778 L0,15.2932865 C0,15.5213567 0.184935673,15.7062924 0.413005848,15.7062924 L5.36884211,15.7062924 L5.36884211,0.0128187135 L0.413005848,0.0128187135 Z" id="Shape"></path>
                    <path d="M23.5402105,0.0128187135 L18.5843743,0.0128187135 L18.5843743,15.7062924 L23.5402105,15.7062924 C23.7682807,15.7062924 23.9532164,15.5213567 23.9532164,15.2932865 L23.9532164,0.425777778 C23.9532164,0.197707602 23.7682807,0.0128187135 23.5402105,0.0128187135 Z" id="Shape"></path>
                    <path d="M14.4827602,9.67288889 L16.9334269,8.2725614 L16.3710877,7.99139181 C16.2133801,7.91251462 16.1230877,7.74222222 16.1464327,7.56739181 L16.3294035,6.19560234 L15.291883,6.49745029 C15.0626901,6.56416374 14.8248421,6.42315789 14.7732865,6.19012865 L14.6739181,5.74100585 L13.6997427,6.88112281 C13.5646784,7.03915789 13.3074152,6.91845614 13.3426433,6.71354386 L13.7586901,4.29445614 L13.121731,4.46867836 C12.9356725,4.51957895 12.7391813,4.43490058 12.6484678,4.26470175 L11.977731,3.00757895 L11.977731,3.0057076 L11.9772632,3.00664327 L11.9767485,3.0057076 L11.9767485,3.00757895 L11.3060117,4.26470175 C11.2152047,4.4348538 11.0187135,4.51953216 10.832655,4.46867836 L10.1956491,4.29445614 L10.6116959,6.71354386 C10.646924,6.91836257 10.389614,7.03911111 10.2545497,6.88112281 L9.28037427,5.74100585 L9.18100585,6.19012865 C9.12945029,6.42320468 8.89160234,6.56411696 8.66240936,6.49745029 L7.62488889,6.19560234 L7.80785965,7.56739181 C7.83120468,7.74217544 7.74091228,7.91251462 7.58320468,7.99139181 L7.0208655,8.2725614 L9.47153216,9.67293567 C9.72538012,9.8180117 9.83663158,10.1256608 9.73422222,10.3994854 L9.52472515,10.9598129 L11.6246082,10.780538 C11.7408187,10.7706199 11.8397193,10.8641871 11.8363041,10.9807251 L11.770152,13.2283977 L12.1831579,13.2283977 L12.1169591,10.9806316 C12.1135439,10.8640468 12.2124444,10.7705263 12.328655,10.7804444 L14.4295205,10.9598129 L14.2200234,10.3994854 C14.1177076,10.125614 14.2289123,9.81791813 14.4827602,9.67288889 Z" id="Shape"></path>
                </g>
            </g>
        </g>
    </g>
</svg>