<svg width="257" height="257" viewBox="0 0 257 257" fill="none" xmlns="http://www.w3.org/2000/svg">
<path d="M53.5902 21.5C17.2752 21.5 13.5511 23.555 13.5511 59.871V112.038H243.551V80.063C243.551 43.747 239.827 37.961 203.512 37.961H114.176L97.7491 21.5H53.5902Z" fill="#EC407A"/>
<path d="M53.5901 70.8841C17.2731 70.8841 13.5511 74.6141 13.5511 110.929V195.453C13.5511 231.769 17.2731 235.5 53.5901 235.5H203.512C239.829 235.5 243.551 231.769 243.551 195.453V94.4691C243.551 58.1531 239.829 54.4221 203.512 54.4221H120.081L103.643 70.8841H53.5901Z" fill="#F06292"/>
<path d="M53.5901 70.8841C17.2731 70.8841 13.5511 74.6141 13.5511 110.929V195.453C13.5511 231.769 17.2731 235.5 53.5901 235.5H203.512C239.829 235.5 243.551 231.769 243.551 195.453V94.4691C243.551 58.1531 239.829 54.4221 203.512 54.4221H120.081L103.643 70.8841H53.5901Z" fill="url(#paint0_linear)"/>
<g opacity="0.4">
<path opacity="0.4" d="M53.5901 21.5C17.2752 21.5 13.5511 23.555 13.5511 59.871V61.93C13.5511 25.614 17.2752 23.557 53.5901 23.557H97.7491L114.176 40.018H203.512C239.827 40.018 243.551 45.804 243.551 82.12V80.063C243.551 43.747 239.827 37.961 203.512 37.961H114.176L97.7491 21.5H53.5901Z" fill="url(#paint1_radial)"/>
</g>
<g opacity="0.4">
<path opacity="0.4" d="M120.081 54.4221L103.643 70.8841H53.5901C17.2752 70.8841 13.5511 74.6121 13.5511 110.927V112.987C13.5511 76.671 17.2752 72.9411 53.5901 72.9411H103.643L120.081 56.4811H203.512C239.827 56.4811 243.551 60.2081 243.551 96.524V94.467C243.551 58.1511 239.827 54.4221 203.512 54.4221H120.081Z" fill="url(#paint2_radial)"/>
</g>
<path opacity="0.1" d="M243.552 167.596L177.837 233.441H203.513C239.828 233.441 243.552 229.714 243.552 193.398V167.596Z" fill="white"/>
<path opacity="0.2" d="M13.5511 193.398V195.455C13.5511 231.771 17.2752 235.5 53.5901 235.5H203.512C239.827 235.5 243.551 231.771 243.551 195.455V193.398C243.551 229.714 239.827 233.441 203.512 233.441H53.5901C17.2752 233.441 13.5511 229.714 13.5511 193.398Z" fill="black"/>
<path d="M80.5511 92.5V212.5H156.151L176.551 192.1V92.5H80.5511ZM85.3512 97.3H171.751V188.5H152.551V207.7H85.3512V97.3ZM99.7511 111.7V116.5H157.351V111.7H99.7511ZM99.7511 126.1V130.9H157.351V126.1H99.7511ZM99.7511 140.5V145.3H157.351V140.5H99.7511ZM99.7511 154.9V159.7H128.551V154.9H99.7511Z" fill="#F9C3D6"/>
<defs>
<linearGradient id="paint0_linear" x1="13.5511" y1="144.961" x2="13.5511" y2="-36.117" gradientUnits="userSpaceOnUse">
<stop stop-color="white" stop-opacity="0.07"/>
<stop offset="0.67282" stop-color="#FCEFE8" stop-opacity="0"/>
</linearGradient>
<radialGradient id="paint1_radial" cx="0" cy="0" r="1" gradientUnits="userSpaceOnUse" gradientTransform="translate(128.551 51.81) scale(62.56 16.4886)">
<stop stop-color="white"/>
<stop offset="1" stop-color="white" stop-opacity="0.204"/>
</radialGradient>
<radialGradient id="paint2_radial" cx="0" cy="0" r="1" gradientUnits="userSpaceOnUse" gradientTransform="translate(128.551 83.7045) scale(62.56 15.9297)">
<stop stop-color="white"/>
<stop offset="1" stop-color="white" stop-opacity="0.204"/>
</radialGradient>
</defs>
</svg>
