<svg width="257" height="257" viewBox="0 0 257 257" fill="none" xmlns="http://www.w3.org/2000/svg">
<path d="M53.5901 21.5C17.2752 21.5 13.5511 23.555 13.5511 59.871V112.038H243.551V80.063C243.551 43.747 239.827 37.961 203.512 37.961H114.176L97.7491 21.5H53.5901Z" fill="#3F51B5"/>
<path d="M53.5901 70.884C17.2731 70.884 13.5511 74.614 13.5511 110.929V195.453C13.5511 231.769 17.2731 235.5 53.5901 235.5H203.512C239.829 235.5 243.551 231.769 243.551 195.453V94.469C243.551 58.153 239.829 54.422 203.512 54.422H120.081L103.643 70.884H53.5901Z" fill="#5C6BC0"/>
<path d="M53.5901 70.884C17.2731 70.884 13.5511 74.614 13.5511 110.929V195.453C13.5511 231.769 17.2731 235.5 53.5901 235.5H203.512C239.829 235.5 243.551 231.769 243.551 195.453V94.469C243.551 58.153 239.829 54.422 203.512 54.422H120.081L103.643 70.884H53.5901Z" fill="url(#paint0_linear)"/>
<g opacity="0.4">
<path opacity="0.4" d="M53.5901 21.5C17.2752 21.5 13.5511 23.555 13.5511 59.871V61.93C13.5511 25.614 17.2752 23.557 53.5901 23.557H97.7491L114.176 40.018H203.512C239.827 40.018 243.551 45.804 243.551 82.12V80.063C243.551 43.747 239.827 37.961 203.512 37.961H114.176L97.7491 21.5H53.5901Z" fill="url(#paint1_radial)"/>
</g>
<g opacity="0.4">
<path opacity="0.4" d="M120.081 54.422L103.643 70.884H53.5901C17.2752 70.884 13.5511 74.612 13.5511 110.927V112.987C13.5511 76.671 17.2752 72.941 53.5901 72.941H103.643L120.081 56.481H203.512C239.827 56.481 243.551 60.208 243.551 96.524V94.467C243.551 58.151 239.827 54.422 203.512 54.422H120.081Z" fill="url(#paint2_radial)"/>
</g>
<path opacity="0.1" d="M243.55 167.596L177.835 233.441H203.511C239.826 233.441 243.55 229.714 243.55 193.398V167.596Z" fill="white"/>
<path opacity="0.2" d="M13.5511 193.398V195.455C13.5511 231.771 17.2752 235.5 53.5901 235.5H203.512C239.827 235.5 243.551 231.771 243.551 195.455V193.398C243.551 229.714 239.827 233.441 203.512 233.441H53.5901C17.2752 233.441 13.5511 229.714 13.5511 193.398Z" fill="black"/>
<path d="M169.351 99.7002C158.747 99.7002 150.151 108.296 150.151 118.9C150.151 129.504 158.747 138.1 169.351 138.1C179.955 138.1 188.551 129.504 188.551 118.9C188.551 108.296 179.955 99.7002 169.351 99.7002V99.7002ZM106.951 136.9L68.5511 205.3H169.351L136.951 148.9L124.951 166.9L106.951 136.9Z" fill="#B6BDE3"/>
<defs>
<linearGradient id="paint0_linear" x1="13.5511" y1="144.961" x2="13.5511" y2="-36.117" gradientUnits="userSpaceOnUse">
<stop stop-color="white" stop-opacity="0.07"/>
<stop offset="0.67282" stop-color="#FCEFE8" stop-opacity="0"/>
</linearGradient>
<radialGradient id="paint1_radial" cx="0" cy="0" r="1" gradientUnits="userSpaceOnUse" gradientTransform="translate(128.551 51.81) scale(62.56 16.4886)">
<stop stop-color="white"/>
<stop offset="1" stop-color="white" stop-opacity="0.204"/>
</radialGradient>
<radialGradient id="paint2_radial" cx="0" cy="0" r="1" gradientUnits="userSpaceOnUse" gradientTransform="translate(128.551 83.7045) scale(62.56 15.9297)">
<stop stop-color="white"/>
<stop offset="1" stop-color="white" stop-opacity="0.204"/>
</radialGradient>
</defs>
</svg>
