<svg width="257" height="257" viewBox="0 0 257 257" fill="none" xmlns="http://www.w3.org/2000/svg">
<path d="M54.2561 21.5C17.9411 21.5 14.2181 23.555 14.2181 59.871V112.038H244.218V80.063C244.218 43.747 240.494 37.961 204.178 37.961H114.843L98.4151 21.5H54.2561Z" fill="#3F51B5"/>
<path d="M54.2561 70.884C17.9391 70.884 14.2181 74.614 14.2181 110.929V195.453C14.2181 231.769 17.9391 235.5 54.2561 235.5H204.179C240.496 235.5 244.218 231.769 244.218 195.453V94.469C244.218 58.153 240.496 54.422 204.178 54.422H120.748L104.31 70.884H54.2561Z" fill="#5C6BC0"/>
<path d="M54.2561 70.884C17.9391 70.884 14.2181 74.614 14.2181 110.929V195.453C14.2181 231.769 17.9391 235.5 54.2561 235.5H204.179C240.496 235.5 244.218 231.769 244.218 195.453V94.469C244.218 58.153 240.496 54.422 204.178 54.422H120.748L104.31 70.884H54.2561Z" fill="url(#paint0_linear)"/>
<g opacity="0.4">
<path opacity="0.4" d="M54.2561 21.5C17.9411 21.5 14.2181 23.555 14.2181 59.871V61.931C14.2181 25.614 17.9411 23.557 54.2561 23.557H98.4161L114.843 40.017H204.179C240.494 40.017 244.218 45.804 244.218 82.12V80.063C244.218 43.747 240.494 37.961 204.178 37.961H114.843L98.4151 21.5H54.2561Z" fill="url(#paint1_radial)"/>
</g>
<g opacity="0.4">
<path opacity="0.4" d="M120.748 54.422L104.31 70.884H54.2561C17.9411 70.884 14.2181 74.612 14.2181 110.927V112.987C14.2181 76.671 17.9411 72.941 54.2561 72.941H104.31L120.748 56.481H204.178C240.494 56.481 244.218 60.208 244.218 96.524V94.467C244.218 58.151 240.494 54.422 204.178 54.422H120.748Z" fill="url(#paint2_radial)"/>
</g>
<path opacity="0.1" d="M244.219 167.596L178.504 233.441H204.18C240.495 233.441 244.219 229.714 244.219 193.398V167.596V167.596Z" fill="white"/>
<path opacity="0.2" d="M14.2181 193.398V195.455C14.2181 231.77 17.9411 235.5 54.2561 235.5H204.179C240.494 235.5 244.218 231.77 244.218 195.455V193.398C244.218 229.714 240.494 233.441 204.178 233.441H54.2571C17.9421 233.441 14.2191 229.714 14.2191 193.398H14.2181Z" fill="black"/>
<path d="M162.495 97.5002C161.937 97.4949 161.392 97.6675 160.94 97.993C160.487 98.3185 160.15 98.78 159.978 99.3102L147.005 139.405H110.098L97.1257 99.3102C96.957 98.7954 96.6334 98.3452 96.1991 98.0213C95.7649 97.6973 95.2412 97.5153 94.6997 97.5002C94.158 97.4904 93.6265 97.6483 93.1781 97.9523C92.7297 98.2563 92.3862 98.6915 92.1947 99.1982L76.5617 141.084C76.5517 141.084 76.5517 141.094 76.5417 141.102L68.7147 162.054C68.5149 162.592 68.4964 163.18 68.6622 163.728C68.828 164.277 69.1688 164.756 69.6327 165.093L127.003 206.979L127.013 206.999C127.023 206.999 127.023 206.999 127.023 207.01L127.127 207.07C127.167 207.091 127.195 207.123 127.237 207.141C127.247 207.141 127.247 207.151 127.257 207.151C127.257 207.151 127.268 207.162 127.279 207.162C127.289 207.172 127.299 207.183 127.318 207.183L127.359 207.215C127.412 207.233 127.472 207.267 127.532 207.285V207.295L127.706 207.356C127.716 207.356 127.716 207.356 127.727 207.366C127.772 207.378 127.815 207.392 127.857 207.408C127.879 207.408 127.899 207.418 127.931 207.418C127.931 207.429 127.931 207.429 127.931 207.418C127.983 207.44 128.033 207.448 128.082 207.458L128.286 207.49C128.39 207.49 128.499 207.5 128.604 207.5C128.706 207.49 128.797 207.49 128.888 207.469C128.93 207.469 128.958 207.469 129 207.459H129.021C129.042 207.448 129.05 207.448 129.073 207.448C129.081 207.448 129.092 207.44 129.113 207.44C129.133 207.43 129.165 207.43 129.183 207.419C129.218 207.409 129.253 207.399 129.287 207.387C129.306 207.387 129.316 207.387 129.327 207.377H129.357C129.449 207.347 129.538 207.31 129.624 207.264C129.632 207.264 129.632 207.264 129.642 207.254C129.652 207.254 129.662 207.254 129.673 207.244L129.733 207.214C129.789 207.185 129.844 207.154 129.898 207.12C129.916 207.112 129.926 207.102 129.937 207.091C129.947 207.091 129.957 207.081 129.968 207.081C130.01 207.05 130.049 207.029 130.091 207L130.111 206.968L187.481 165.095C187.941 164.756 188.278 164.276 188.442 163.728C188.605 163.18 188.585 162.593 188.385 162.057L180.58 141.176C180.568 141.153 180.561 141.128 180.56 141.102L164.908 99.1982C164.724 98.7055 164.395 98.2797 163.965 97.9767C163.535 97.6738 163.024 97.5077 162.498 97.5002H162.495V97.5002ZM84.3767 144.643H106.308L121.581 191.828L84.3767 144.643ZM150.795 144.643H172.725L135.522 191.828L150.795 144.643ZM79.8017 147.283L114.692 191.529L74.3017 162.036L79.8017 147.283V147.283ZM177.302 147.283L182.802 162.036L142.412 191.529L177.302 147.283V147.283Z" fill="#B6BDE3"/>
<defs>
<linearGradient id="paint0_linear" x1="14.2181" y1="144.961" x2="14.2181" y2="-36.1172" gradientUnits="userSpaceOnUse">
<stop stop-color="white" stop-opacity="0.07"/>
<stop offset="0.67282" stop-color="#FCEFE8" stop-opacity="0"/>
</linearGradient>
<radialGradient id="paint1_radial" cx="0" cy="0" r="1" gradientUnits="userSpaceOnUse" gradientTransform="translate(129.218 51.8101) scale(62.56 16.4887)">
<stop stop-color="white"/>
<stop offset="1" stop-color="white" stop-opacity="0.204"/>
</radialGradient>
<radialGradient id="paint2_radial" cx="0" cy="0" r="1" gradientUnits="userSpaceOnUse" gradientTransform="translate(129.218 83.7046) scale(62.56 15.9297)">
<stop stop-color="white"/>
<stop offset="1" stop-color="white" stop-opacity="0.204"/>
</radialGradient>
</defs>
</svg>
