<svg width="257" height="257" viewBox="0 0 257 257" fill="none" xmlns="http://www.w3.org/2000/svg">
<path d="M54.2561 21.5C17.9411 21.5 14.2181 23.555 14.2181 59.871V112.038H244.218V80.063C244.218 43.747 240.494 37.961 204.178 37.961H114.843L98.4151 21.5H54.2561Z" fill="#12816B"/>
<path d="M54.2561 70.8841C17.9391 70.8841 14.2181 74.6141 14.2181 110.929V195.453C14.2181 231.769 17.9391 235.5 54.2561 235.5H204.179C240.496 235.5 244.218 231.769 244.218 195.453V94.4691C244.218 58.1531 240.496 54.4221 204.178 54.4221H120.748L104.31 70.8841H54.2561Z" fill="#16A085"/>
<path d="M54.2561 70.8841C17.9391 70.8841 14.2181 74.6141 14.2181 110.929V195.453C14.2181 231.769 17.9391 235.5 54.2561 235.5H204.179C240.496 235.5 244.218 231.769 244.218 195.453V94.4691C244.218 58.1531 240.496 54.4221 204.178 54.4221H120.748L104.31 70.8841H54.2561Z" fill="url(#paint0_linear)"/>
<g opacity="0.4">
<path opacity="0.4" d="M54.2561 21.5C17.9411 21.5 14.2181 23.555 14.2181 59.871V61.931C14.2181 25.614 17.9411 23.557 54.2561 23.557H98.4161L114.843 40.017H204.179C240.494 40.017 244.218 45.804 244.218 82.12V80.063C244.218 43.747 240.494 37.961 204.178 37.961H114.843L98.4151 21.5H54.2561Z" fill="url(#paint1_radial)"/>
</g>
<g opacity="0.4">
<path opacity="0.4" d="M120.748 54.4221L104.31 70.8841H54.2561C17.9411 70.8841 14.2181 74.6121 14.2181 110.927V112.987C14.2181 76.671 17.9411 72.9411 54.2561 72.9411H104.31L120.748 56.4811H204.178C240.494 56.4811 244.218 60.2081 244.218 96.524V94.467C244.218 58.1511 240.494 54.4221 204.178 54.4221H120.748Z" fill="url(#paint2_radial)"/>
</g>
<path opacity="0.1" d="M244.219 167.596L178.504 233.441H204.18C240.495 233.441 244.219 229.714 244.219 193.398V167.596V167.596Z" fill="white"/>
<path opacity="0.2" d="M14.2181 193.398V195.455C14.2181 231.77 17.9411 235.5 54.2561 235.5H204.179C240.494 235.5 244.218 231.77 244.218 195.455V193.398C244.218 229.714 240.494 233.441 204.178 233.441H54.2571C17.9421 233.441 14.2191 229.714 14.2191 193.398H14.2181Z" fill="black"/>
<path d="M103.14 92.5H122.2C122.948 92.5005 123.666 92.7983 124.196 93.3278C124.725 93.8573 125.023 94.5753 125.023 95.324V114.382C125.023 115.131 124.725 115.849 124.195 116.379C123.666 116.908 122.948 117.206 122.199 117.206H103.14C102.391 117.205 101.673 116.908 101.144 116.378C100.615 115.849 100.317 115.131 100.317 114.382V95.324C100.317 94.5753 100.615 93.8573 101.144 93.3278C101.673 92.7983 102.391 92.5005 103.14 92.5V92.5ZM103.14 124.265H122.2C122.948 124.266 123.666 124.563 124.196 125.093C124.725 125.622 125.023 126.34 125.023 127.089V146.147C125.023 146.896 124.725 147.614 124.195 148.144C123.666 148.673 122.948 148.971 122.199 148.971H103.14C102.391 148.97 101.673 148.673 101.144 148.143C100.615 147.614 100.317 146.896 100.317 146.147V127.09C100.317 126.341 100.615 125.623 101.144 125.094C101.673 124.564 102.391 124.267 103.14 124.266V124.265ZM103.14 156.03H122.2C122.948 156.031 123.666 156.328 124.195 156.857C124.725 157.387 125.022 158.104 125.023 158.853V177.911C125.023 178.66 124.725 179.378 124.195 179.908C123.666 180.437 122.948 180.735 122.199 180.735H103.14C102.391 180.734 101.673 180.437 101.144 179.907C100.615 179.378 100.317 178.66 100.317 177.911V158.853C100.317 158.104 100.615 157.386 101.144 156.857C101.673 156.327 102.391 156.03 103.14 156.029V156.03ZM103.14 187.794H122.2C122.948 187.795 123.666 188.092 124.196 188.622C124.725 189.151 125.023 189.869 125.023 190.618V209.676C125.023 210.425 124.725 211.143 124.195 211.673C123.666 212.202 122.948 212.5 122.199 212.5H103.14C102.391 212.499 101.673 212.202 101.144 211.672C100.615 211.143 100.317 210.425 100.317 209.676V190.618C100.317 189.869 100.615 189.151 101.144 188.622C101.673 188.092 102.391 187.795 103.14 187.794V187.794ZM134.905 124.265H153.964C154.712 124.266 155.43 124.563 155.96 125.093C156.489 125.622 156.787 126.34 156.787 127.089V146.147C156.787 146.896 156.489 147.614 155.96 148.143C155.43 148.673 154.712 148.97 153.964 148.971H134.904C134.155 148.97 133.437 148.673 132.908 148.143C132.379 147.614 132.081 146.896 132.081 146.147V127.09C132.081 126.341 132.379 125.623 132.908 125.093C133.438 124.564 134.156 124.266 134.905 124.266V124.265ZM134.905 156.03H153.964C154.712 156.031 155.43 156.328 155.959 156.857C156.489 157.387 156.786 158.104 156.787 158.853V177.911C156.787 178.66 156.489 179.378 155.96 179.907C155.43 180.437 154.712 180.734 153.964 180.735H134.904C134.155 180.734 133.437 180.437 132.908 179.907C132.379 179.378 132.081 178.66 132.081 177.911V158.853C132.081 158.104 132.379 157.386 132.908 156.856C133.438 156.327 134.156 156.029 134.905 156.029V156.03ZM134.905 187.794H153.964C154.712 187.795 155.43 188.092 155.96 188.622C156.489 189.151 156.787 189.869 156.787 190.618V209.676C156.787 210.425 156.489 211.143 155.96 211.672C155.43 212.202 154.712 212.499 153.964 212.5H134.904C134.155 212.499 133.437 212.202 132.908 211.672C132.379 211.143 132.081 210.425 132.081 209.676V190.618C132.081 189.869 132.379 189.151 132.908 188.621C133.438 188.092 134.156 187.794 134.905 187.794V187.794Z" fill="#A6DBD1"/>
<defs>
<linearGradient id="paint0_linear" x1="14.2181" y1="144.961" x2="14.2181" y2="-36.1172" gradientUnits="userSpaceOnUse">
<stop stop-color="white" stop-opacity="0.07"/>
<stop offset="0.67282" stop-color="#FCEFE8" stop-opacity="0"/>
</linearGradient>
<radialGradient id="paint1_radial" cx="0" cy="0" r="1" gradientUnits="userSpaceOnUse" gradientTransform="translate(129.218 51.8101) scale(62.56 16.4887)">
<stop stop-color="white"/>
<stop offset="1" stop-color="white" stop-opacity="0.204"/>
</radialGradient>
<radialGradient id="paint2_radial" cx="0" cy="0" r="1" gradientUnits="userSpaceOnUse" gradientTransform="translate(129.218 83.7046) scale(62.56 15.9297)">
<stop stop-color="white"/>
<stop offset="1" stop-color="white" stop-opacity="0.204"/>
</radialGradient>
</defs>
</svg>
