<svg width="257" height="257" viewBox="0 0 257 257" fill="none" xmlns="http://www.w3.org/2000/svg">
<path d="M54.2561 21.5C17.9411 21.5 14.2181 23.555 14.2181 59.871V152.038H244.218V80.063C244.218 43.747 240.494 37.961 204.179 37.961H114.843L98.4151 21.5H54.2561Z" fill="#12816B"/>
<g filter="url(#filter0_d)">
<path d="M41.3182 57.167H217.451C223.209 57.167 227.884 61.842 227.884 67.6V151.067C227.884 156.825 223.209 161.5 217.451 161.5H41.3182C35.5592 161.5 30.8842 156.825 30.8842 151.067V67.6C30.8842 61.842 35.5592 57.167 41.3182 57.167V57.167Z" fill="#EBEBEB"/>
</g>
<path d="M54.2561 100.884C17.9391 100.884 14.2181 104.614 14.2181 140.929V195.453C14.2181 231.769 17.9391 235.5 54.2561 235.5H204.179C240.496 235.5 244.218 231.769 244.218 195.453V124.469C244.218 88.153 240.496 84.422 204.179 84.422H120.748L104.31 100.884H54.2561V100.884Z" fill="#16A085"/>
<path d="M54.2561 100.884C17.9391 100.884 14.2181 104.614 14.2181 140.929V195.453C14.2181 231.769 17.9391 235.5 54.2561 235.5H204.179C240.496 235.5 244.218 231.769 244.218 195.453V124.469C244.218 88.153 240.496 84.422 204.179 84.422H120.748L104.31 100.884H54.2561V100.884Z" fill="url(#paint0_linear)"/>
<g opacity="0.4">
<path opacity="0.4" d="M54.2561 21.5C17.9411 21.5 14.2181 23.555 14.2181 59.871V61.93C14.2181 25.614 17.9411 23.557 54.2561 23.557H98.4151L114.843 40.018H204.179C240.494 40.018 244.218 45.804 244.218 82.12V80.063C244.218 43.747 240.494 37.961 204.179 37.961H114.843L98.4151 21.5H54.2561Z" fill="url(#paint1_radial)"/>
</g>
<g opacity="0.4">
<path opacity="0.4" d="M120.748 84.422L104.31 100.884H54.2561C17.9411 100.884 14.2181 104.612 14.2181 140.927V142.987C14.2181 106.671 17.9411 102.941 54.2561 102.941H104.31L120.748 86.481H204.179C240.494 86.481 244.218 90.208 244.218 126.524V124.467C244.218 88.151 240.494 84.422 204.179 84.422H120.748V84.422Z" fill="url(#paint2_radial)"/>
</g>
<path opacity="0.1" d="M244.219 167.596L178.504 233.441H204.18C240.495 233.441 244.219 229.714 244.219 193.398V167.596V167.596Z" fill="white"/>
<path opacity="0.2" d="M14.2181 193.398V195.455C14.2181 231.771 17.9411 235.5 54.2561 235.5H204.179C240.494 235.5 244.218 231.771 244.218 195.455V193.398C244.218 229.714 240.494 233.441 204.179 233.441H54.2561C17.9411 233.441 14.2181 229.714 14.2181 193.398V193.398Z" fill="black"/>
<defs>
<filter id="filter0_d" x="20.8842" y="47.167" width="217" height="124.333" filterUnits="userSpaceOnUse" color-interpolation-filters="sRGB">
<feFlood flood-opacity="0" result="BackgroundImageFix"/>
<feColorMatrix in="SourceAlpha" type="matrix" values="0 0 0 0 0 0 0 0 0 0 0 0 0 0 0 0 0 0 127 0"/>
<feOffset/>
<feGaussianBlur stdDeviation="5"/>
<feColorMatrix type="matrix" values="0 0 0 0 0 0 0 0 0 0 0 0 0 0 0 0 0 0 0.4 0"/>
<feBlend mode="normal" in2="BackgroundImageFix" result="effect1_dropShadow"/>
<feBlend mode="normal" in="SourceGraphic" in2="effect1_dropShadow" result="shape"/>
</filter>
<linearGradient id="paint0_linear" x1="14.2181" y1="159.961" x2="14.2181" y2="8.88297" gradientUnits="userSpaceOnUse">
<stop stop-color="white" stop-opacity="0.07"/>
<stop offset="0.67282" stop-color="#FCEFE8" stop-opacity="0"/>
</linearGradient>
<radialGradient id="paint1_radial" cx="0" cy="0" r="1" gradientUnits="userSpaceOnUse" gradientTransform="translate(129.218 51.81) scale(62.56 16.4886)">
<stop stop-color="white"/>
<stop offset="1" stop-color="white" stop-opacity="0.204"/>
</radialGradient>
<radialGradient id="paint2_radial" cx="0" cy="0" r="1" gradientUnits="userSpaceOnUse" gradientTransform="translate(129.218 113.704) scale(62.56 15.9297)">
<stop stop-color="white"/>
<stop offset="1" stop-color="white" stop-opacity="0.204"/>
</radialGradient>
</defs>
</svg>
