<svg width="257" height="257" viewBox="0 0 257 257" fill="none" xmlns="http://www.w3.org/2000/svg">
<path d="M54.2565 21.5C17.9415 21.5 14.2185 23.555 14.2185 59.871V112.038H244.219V80.063C244.219 43.747 240.494 37.961 204.178 37.961H114.844L98.4155 21.5H54.2565Z" fill="#3F51B5"/>
<path d="M54.2565 70.884C17.9395 70.884 14.2185 74.614 14.2185 110.929V195.453C14.2185 231.769 17.9395 235.5 54.2565 235.5H204.18C240.497 235.5 244.219 231.769 244.219 195.453V94.469C244.219 58.153 240.496 54.422 204.178 54.422H120.749L104.311 70.884H54.2565Z" fill="#5C6BC0"/>
<path d="M244.219 98.5001H210.76V144.5H244.219V98.5001ZM14.4615 98.5001H39.2815V71.2841C20.2725 72.6501 15.4825 78.2401 14.4625 98.5001H14.4615ZM167.971 54.4221V98.5001H210.762V54.4751C208.568 54.4373 206.374 54.4196 204.181 54.4221H167.971H167.971ZM82.3885 70.8841V98.5001H125.179V54.4221H120.749L104.311 70.8841H82.3885ZM14.2185 190.5H39.5985V144.5H14.2185V190.5V190.5ZM167.971 235.5V190.5H125.18V235.5H167.97H167.971ZM82.3885 235.5V190.5H39.5985V235.123C43.7715 235.41 48.6215 235.5 54.2565 235.5H82.3885ZM244.219 190.5H210.76V235.447C240.957 234.889 244.219 229.444 244.219 195.453V190.5ZM82.3885 144.5H125.179V190.5H82.3885V144.5ZM125.179 98.5001H167.971V144.5H125.18V98.5001H125.179ZM39.5985 98.5001H82.3885V144.5H39.5985V98.5001V98.5001ZM167.971 144.5H210.76V190.5H167.971V144.5Z" fill="#B6BDE3"/>
<path d="M54.2565 70.884C17.9395 70.884 14.2185 74.614 14.2185 110.929V195.453C14.2185 231.769 17.9395 235.5 54.2565 235.5H204.18C240.497 235.5 244.219 231.769 244.219 195.453V94.469C244.219 58.153 240.496 54.422 204.178 54.422H120.749L104.311 70.884H54.2565Z" fill="url(#paint0_linear)"/>
<g opacity="0.4">
<path opacity="0.4" d="M54.2565 21.5C17.9415 21.5 14.2185 23.555 14.2185 59.871V61.931C14.2185 25.614 17.9415 23.557 54.2565 23.557H98.4165L114.844 40.017H204.18C240.495 40.017 244.219 45.804 244.219 82.12V80.063C244.219 43.747 240.494 37.961 204.178 37.961H114.844L98.4155 21.5H54.2565Z" fill="url(#paint1_radial)"/>
</g>
<g opacity="0.4">
<path opacity="0.4" d="M120.749 54.422L104.311 70.884H54.2565C17.9415 70.884 14.2185 74.612 14.2185 110.927V112.987C14.2185 76.671 17.9415 72.941 54.2565 72.941H104.311L120.749 56.481H204.178C240.494 56.481 244.219 60.208 244.219 96.524V94.467C244.219 58.151 240.494 54.422 204.178 54.422H120.749Z" fill="url(#paint2_radial)"/>
</g>
<path opacity="0.1" d="M244.218 167.596L178.503 233.441H204.179C240.494 233.441 244.218 229.714 244.218 193.398V167.596V167.596Z" fill="white"/>
<path opacity="0.2" d="M14.2185 193.398V195.455C14.2185 231.77 17.9415 235.5 54.2565 235.5H204.18C240.495 235.5 244.219 231.77 244.219 195.455V193.398C244.219 229.714 240.494 233.441 204.178 233.441H54.2575C17.9425 233.441 14.2195 229.714 14.2195 193.398H14.2185Z" fill="black"/>
<defs>
<linearGradient id="paint0_linear" x1="14.2185" y1="144.961" x2="14.2185" y2="-36.1172" gradientUnits="userSpaceOnUse">
<stop stop-color="white" stop-opacity="0.07"/>
<stop offset="0.67282" stop-color="#FCEFE8" stop-opacity="0"/>
</linearGradient>
<radialGradient id="paint1_radial" cx="0" cy="0" r="1" gradientUnits="userSpaceOnUse" gradientTransform="translate(129.219 51.8101) scale(62.56 16.4887)">
<stop stop-color="white"/>
<stop offset="1" stop-color="white" stop-opacity="0.204"/>
</radialGradient>
<radialGradient id="paint2_radial" cx="0" cy="0" r="1" gradientUnits="userSpaceOnUse" gradientTransform="translate(129.219 83.7046) scale(62.56 15.9297)">
<stop stop-color="white"/>
<stop offset="1" stop-color="white" stop-opacity="0.204"/>
</radialGradient>
</defs>
</svg>
