<svg width="257" height="257" viewBox="0 0 257 257" fill="none" xmlns="http://www.w3.org/2000/svg">
<path d="M53.5901 21.5C17.2752 21.5 13.5511 23.555 13.5511 59.871V112.038H243.551V80.063C243.551 43.747 239.827 37.961 203.512 37.961H114.176L97.7491 21.5H53.5901Z" fill="#12816B"/>
<path d="M53.5901 70.8841C17.2731 70.8841 13.5511 74.6141 13.5511 110.929V195.453C13.5511 231.769 17.2731 235.5 53.5901 235.5H203.512C239.829 235.5 243.551 231.769 243.551 195.453V94.4691C243.551 58.1531 239.829 54.4221 203.512 54.4221H120.081L103.643 70.8841H53.5901Z" fill="#16A085"/>
<path d="M53.5901 70.8841C17.2731 70.8841 13.5511 74.6141 13.5511 110.929V195.453C13.5511 231.769 17.2731 235.5 53.5901 235.5H203.512C239.829 235.5 243.551 231.769 243.551 195.453V94.4691C243.551 58.1531 239.829 54.4221 203.512 54.4221H120.081L103.643 70.8841H53.5901Z" fill="url(#paint0_linear)"/>
<g opacity="0.4">
<path opacity="0.4" d="M53.5901 21.5C17.2752 21.5 13.5511 23.555 13.5511 59.871V61.93C13.5511 25.614 17.2752 23.557 53.5901 23.557H97.7491L114.176 40.018H203.512C239.827 40.018 243.551 45.804 243.551 82.12V80.063C243.551 43.747 239.827 37.961 203.512 37.961H114.176L97.7491 21.5H53.5901Z" fill="url(#paint1_radial)"/>
</g>
<g opacity="0.4">
<path opacity="0.4" d="M120.081 54.4221L103.643 70.8841H53.5901C17.2752 70.8841 13.5511 74.6121 13.5511 110.927V112.987C13.5511 76.671 17.2752 72.9411 53.5901 72.9411H103.643L120.081 56.4811H203.512C239.827 56.4811 243.551 60.2081 243.551 96.524V94.467C243.551 58.1511 239.827 54.4221 203.512 54.4221H120.081Z" fill="url(#paint2_radial)"/>
</g>
<path opacity="0.1" d="M243.552 167.596L177.837 233.441H203.513C239.828 233.441 243.552 229.714 243.552 193.398V167.596Z" fill="white"/>
<path opacity="0.2" d="M13.5511 193.398V195.455C13.5511 231.771 17.2752 235.5 53.5901 235.5H203.512C239.827 235.5 243.551 231.771 243.551 195.455V193.398C243.551 229.714 239.827 233.441 203.512 233.441H53.5901C17.2752 233.441 13.5511 229.714 13.5511 193.398Z" fill="black"/>
<path d="M171.655 92.503C170.206 92.489 168.278 92.708 165.713 93.078L119.403 99.67C109.101 101.777 109.101 102.43 109.101 110.791V189.188C108.341 188.678 107.592 188.164 106.808 187.659V187.662C103.535 185.555 100.047 184.055 95.3612 184.055C89.4921 184.055 85.9911 186.214 83.8721 189.058C81.7541 191.901 81.0511 195.485 81.0511 198.256C81.0511 201.597 82.2391 205.162 84.8151 207.879C87.3911 210.596 91.3522 212.5 97.0462 212.5C103.476 212.5 108 210.774 110.557 207.406C112.57 204.754 113.682 201.211 114.08 196.84V196.826C114.135 196.296 114.175 195.752 114.21 195.191C114.264 194.327 114.253 192.711 114.253 192.711V130.874C114.253 123.454 114.252 123.011 124.557 121.318L160.576 116.42C170.738 115.142 170.896 116.029 170.898 121.364V179.293C170.139 178.782 169.39 178.269 168.605 177.764V177.766C165.332 175.659 161.844 174.16 157.159 174.16C151.289 174.16 147.788 176.319 145.669 179.162C143.551 182.006 142.848 185.59 142.848 188.36C142.848 191.701 144.036 195.267 146.613 197.984C149.188 200.701 153.149 202.604 158.843 202.605C165.273 202.605 169.797 200.879 172.354 197.51C174.367 194.858 175.48 191.316 175.877 186.945V186.931C175.932 186.401 175.972 185.857 176.008 185.296C176.062 184.432 176.05 182.815 176.05 182.815V101.21C176.05 94.702 176.006 92.547 171.657 92.5L171.655 92.503V92.503Z" fill="#A6DBD1"/>
<defs>
<linearGradient id="paint0_linear" x1="13.5511" y1="144.961" x2="13.5511" y2="-36.117" gradientUnits="userSpaceOnUse">
<stop stop-color="white" stop-opacity="0.07"/>
<stop offset="0.67282" stop-color="#FCEFE8" stop-opacity="0"/>
</linearGradient>
<radialGradient id="paint1_radial" cx="0" cy="0" r="1" gradientUnits="userSpaceOnUse" gradientTransform="translate(128.551 51.81) scale(62.56 16.4886)">
<stop stop-color="white"/>
<stop offset="1" stop-color="white" stop-opacity="0.204"/>
</radialGradient>
<radialGradient id="paint2_radial" cx="0" cy="0" r="1" gradientUnits="userSpaceOnUse" gradientTransform="translate(128.551 83.7045) scale(62.56 15.9297)">
<stop stop-color="white"/>
<stop offset="1" stop-color="white" stop-opacity="0.204"/>
</radialGradient>
</defs>
</svg>
