<svg width="257" height="257" viewBox="0 0 257 257" fill="none" xmlns="http://www.w3.org/2000/svg">
<path d="M53.5901 21.5C17.2752 21.5 13.5511 23.555 13.5511 59.871V112.038H243.551V80.063C243.551 43.747 239.827 37.961 203.512 37.961H114.176L97.7491 21.5H53.5901Z" fill="#EC407A"/>
<path d="M53.5901 70.8841C17.2731 70.8841 13.5511 74.6141 13.5511 110.929V195.453C13.5511 231.769 17.2731 235.5 53.5901 235.5H203.512C239.829 235.5 243.551 231.769 243.551 195.453V94.4691C243.551 58.1531 239.829 54.4221 203.512 54.4221H120.081L103.643 70.8841H53.5901Z" fill="#F06292"/>
<path d="M53.5901 70.8841C17.2731 70.8841 13.5511 74.6141 13.5511 110.929V195.453C13.5511 231.769 17.2731 235.5 53.5901 235.5H203.512C239.829 235.5 243.551 231.769 243.551 195.453V94.4691C243.551 58.1531 239.829 54.4221 203.512 54.4221H120.081L103.643 70.8841H53.5901Z" fill="url(#paint0_linear)"/>
<g opacity="0.4">
<path opacity="0.4" d="M53.5901 21.5C17.2752 21.5 13.5511 23.555 13.5511 59.871V61.93C13.5511 25.614 17.2752 23.557 53.5901 23.557H97.7491L114.176 40.018H203.512C239.827 40.018 243.551 45.804 243.551 82.12V80.063C243.551 43.747 239.827 37.961 203.512 37.961H114.176L97.7491 21.5H53.5901Z" fill="url(#paint1_radial)"/>
</g>
<g opacity="0.4">
<path opacity="0.4" d="M120.081 54.4221L103.643 70.8841H53.5901C17.2752 70.8841 13.5511 74.6121 13.5511 110.927V112.987C13.5511 76.671 17.2752 72.9411 53.5901 72.9411H103.643L120.081 56.4811H203.512C239.827 56.4811 243.551 60.2081 243.551 96.524V94.467C243.551 58.1511 239.827 54.4221 203.512 54.4221H120.081Z" fill="url(#paint2_radial)"/>
</g>
<path opacity="0.1" d="M243.552 167.596L177.837 233.441H203.513C239.828 233.441 243.552 229.714 243.552 193.398V167.596Z" fill="white"/>
<path opacity="0.2" d="M13.5511 193.398V195.455C13.5511 231.771 17.2752 235.5 53.5901 235.5H203.512C239.827 235.5 243.551 231.771 243.551 195.455V193.398C243.551 229.714 239.827 233.441 203.512 233.441H53.5901C17.2752 233.441 13.5511 229.714 13.5511 193.398Z" fill="black"/>
<path d="M180.984 213.432C179.838 213.274 178.783 212.721 178.002 211.868C176.222 209.958 173.292 204.344 170.89 198.236C169.54 194.806 166.958 187.254 166.958 186.738C166.958 186.576 168.662 185.45 170.744 184.238L174.53 182.034L175.124 182.59C177.476 184.798 184.246 194.912 188.194 202.114C189.774 204.994 189.932 205.404 189.926 206.592C189.918 208.174 189.42 209.278 188.012 210.844C186.326 212.72 183.418 213.79 180.984 213.432V213.432ZM68.4615 211.552C68.5335 211.358 69.6855 206.162 71.0235 200.002C72.3595 193.844 73.4835 188.768 73.5195 188.722C73.6395 188.568 85.7375 197.054 85.7335 197.292C85.7335 197.422 82.2355 200.426 77.9635 203.97C68.3435 211.95 68.3035 211.982 68.4615 211.552V211.552ZM81.2735 189.824C77.9035 187.494 75.1715 185.488 75.2035 185.368C75.2835 185.082 104.242 136.062 104.48 135.814C104.612 135.676 117.266 143.632 117.858 144.224C117.986 144.352 87.8775 193.952 87.6375 194.008C87.5095 194.038 84.6455 192.156 81.2735 189.824ZM160.754 176.87C158.442 172.974 156.586 169.764 156.628 169.734C157.04 169.444 165.796 164.41 165.89 164.41C166.034 164.41 173.386 179.05 173.278 179.126C172.33 179.788 165.314 183.972 165.164 183.964C165.05 183.958 163.064 180.766 160.754 176.87ZM65.7215 176.136C65.6415 175.456 65.6075 169.97 65.6455 163.946L65.7175 152.994L77.8555 153.07C84.5335 153.106 90.0235 153.168 90.0575 153.202C90.0915 153.232 86.8795 158.688 82.9175 165.32L75.7155 177.376H65.8675L65.7215 176.136V176.136ZM102.136 177.024C102.136 176.964 105.432 171.5 109.462 164.886L116.79 152.86H142.8L149.752 164.438C153.576 170.806 156.84 176.27 157.006 176.578L157.308 177.138H129.722C114.55 177.138 102.136 177.084 102.136 177.024V177.024ZM173.098 171.894C171.698 169.008 169.062 163.598 167.242 159.872L163.93 153.094H172.928C177.878 153.094 184.074 153.026 186.7 152.938L191.474 152.784V177.138H175.644L173.098 171.894V171.894ZM153.008 164.114C147.678 155.718 142.248 145.852 135.724 132.706C130.548 122.276 125.566 111.494 123.51 106.27C120.532 98.7018 119.82 93.9958 121.588 93.5538C124.416 92.8438 129.95 99.2658 137.83 112.4C144.002 122.688 153.878 140.666 161.412 155.334C162.812 158.056 164.206 160.724 164.51 161.262L165.064 162.242L160.368 164.976C157.786 166.478 155.586 167.71 155.48 167.71C155.376 167.71 154.262 166.092 153.008 164.114V164.114ZM112.206 138.094L105.658 133.778L106.276 132.798C106.616 132.26 108.332 129.526 110.088 126.722C111.165 124.994 112.25 123.271 113.342 121.552C113.376 121.514 116.324 123.402 119.896 125.752L126.39 130.028L125.422 131.602C124.892 132.468 123.292 135.086 121.87 137.42C120.446 139.752 119.162 141.83 119.018 142.036C118.79 142.36 117.856 141.82 112.206 138.094V138.094ZM120.562 124.078C117.17 121.862 114.392 119.944 114.392 119.816C114.392 118.88 117.198 116.28 118.58 115.932C120.856 115.362 124.586 116.82 126.666 119.094C128.272 120.852 128.624 121.712 128.474 123.512C128.36 124.87 127.254 128.108 126.902 128.108C126.808 128.108 123.956 126.296 120.562 124.078V124.078Z" fill="#F9C3D6"/>
<defs>
<linearGradient id="paint0_linear" x1="13.5511" y1="144.961" x2="13.5511" y2="-36.117" gradientUnits="userSpaceOnUse">
<stop stop-color="white" stop-opacity="0.07"/>
<stop offset="0.67282" stop-color="#FCEFE8" stop-opacity="0"/>
</linearGradient>
<radialGradient id="paint1_radial" cx="0" cy="0" r="1" gradientUnits="userSpaceOnUse" gradientTransform="translate(128.551 51.81) scale(62.56 16.4886)">
<stop stop-color="white"/>
<stop offset="1" stop-color="white" stop-opacity="0.204"/>
</radialGradient>
<radialGradient id="paint2_radial" cx="0" cy="0" r="1" gradientUnits="userSpaceOnUse" gradientTransform="translate(128.551 83.7045) scale(62.56 15.9297)">
<stop stop-color="white"/>
<stop offset="1" stop-color="white" stop-opacity="0.204"/>
</radialGradient>
</defs>
</svg>
