<svg width="4440" height="40" viewBox="0 0 4440 40" fill="none" xmlns="http://www.w3.org/2000/svg">
  <rect x="0" width="40" height="40" fill="#fef9f4"></rect>
  <rect x="60" width="40" height="40" fill="#f4fafd"></rect>
  <rect x="120" width="40" height="40" fill="#fffadf"></rect>
  <rect x="180" width="40" height="40" fill="#E6FFFF"></rect>
  <rect x="240" width="40" height="40" fill="#fbf8ab"></rect>
  <rect x="300" width="40" height="40" fill="#def6fc"></rect>
  <rect x="360" width="40" height="40" fill="#faebdc"></rect>
  <rect x="420" width="40" height="40" fill="#ddf1f7"></rect>
  <rect x="480" width="40" height="40" fill="#ffef94"></rect>
  <rect x="540" width="40" height="40" fill="#faea98"></rect>
  <rect x="600" width="40" height="40" fill="#c6edfb"></rect>
  <rect x="660" width="40" height="40" fill="#f7dcc3"></rect>
  <rect x="720" width="40" height="40" fill="#c4e6f2"></rect>
  <rect x="780" width="40" height="40" fill="#f6dc9a"></rect>
  <rect x="840" width="40" height="40" fill="#FFE64D"></rect>
  <rect x="900" width="40" height="40" fill="#f4dc91"></rect>
  <rect x="960" width="40" height="40" fill="#c9dfe0"></rect>
  <rect x="1020" width="40" height="40" fill="#fce14c"></rect>
  <rect x="1080" width="40" height="40" fill="#b3e3f3"></rect>
  <rect x="1140" width="40" height="40" fill="#f3cca7"></rect>
  <rect x="1200" width="40" height="40" fill="#f5d07d"></rect>
  <rect x="1260" width="40" height="40" fill="#a8dbec"></rect>
  <rect x="1320" width="40" height="40" fill="#ecd347"></rect>
  <rect x="1380" width="40" height="40" fill="#a4d5ea"></rect>
  <rect x="1440" width="40" height="40" fill="#97d6eb"></rect>
  <rect x="1500" width="40" height="40" fill="#efb987"></rect>
  <rect x="1560" width="40" height="40" fill="#fabe45"></rect>
  <rect x="1620" width="40" height="40" fill="#dbc442"></rect>
  <rect x="1680" width="40" height="40" fill="#89cee5"></rect>
  <rect x="1740" width="40" height="40" fill="#ddb676"></rect>
  <rect x="1800" width="40" height="40" fill="#8bc7e2"></rect>
  <rect x="1860" width="40" height="40" fill="#efab3f"></rect>
  <rect x="1920" width="40" height="40" fill="#eaa462"></rect>
  <rect x="1980" width="40" height="40" fill="#6FC3DF"></rect>
  <rect x="2040" width="40" height="40" fill="#c8b33d"></rect>
  <rect x="2100" width="40" height="40" fill="#7cb9db"></rect>
  <rect x="2160" width="40" height="40" fill="#6cbed9"></rect>
  <rect x="2220" width="40" height="40" fill="#e48a35"></rect>
  <rect x="2280" width="40" height="40" fill="#e38c2d"></rect>
  <rect x="2340" width="40" height="40" fill="#b3a036"></rect>
  <rect x="2400" width="40" height="40" fill="#6ca4cb"></rect>
  <rect x="2460" width="40" height="40" fill="#61aac2"></rect>
  <rect x="2520" width="40" height="40" fill="#7b9aa2"></rect>
  <rect x="2580" width="40" height="40" fill="#bc8753"></rect>
  <rect x="2640" width="40" height="40" fill="#6a95ac"></rect>
  <rect x="2700" width="40" height="40" fill="#6194c1"></rect>
  <rect x="2760" width="40" height="40" fill="#DF740C"></rect>
  <rect x="2820" width="40" height="40" fill="#be7342"></rect>
  <rect x="2880" width="40" height="40" fill="#9a892e"></rect>
  <rect x="2940" width="40" height="40" fill="#d56d0b"></rect>
  <rect x="3000" width="40" height="40" fill="#5391a6"></rect>
  <rect x="3060" width="40" height="40" fill="#6089a9"></rect>
  <rect x="3120" width="40" height="40" fill="#5f8aa0"></rect>
  <rect x="3180" width="40" height="40" fill="#557d8a"></rect>
  <rect x="3240" width="40" height="40" fill="#bc5921"></rect>
  <rect x="3300" width="40" height="40" fill="#4a79a0"></rect>
  <rect x="3360" width="40" height="40" fill="#52778e"></rect>
  <rect x="3420" width="40" height="40" fill="#796c25"></rect>
  <rect x="3480" width="40" height="40" fill="#417383"></rect>
  <rect x="3540" width="40" height="40" fill="#a85609"></rect>
  <rect x="3600" width="40" height="40" fill="#486a81"></rect>
  <rect x="3660" width="40" height="40" fill="#3f6177"></rect>
  <rect x="3720" width="40" height="40" fill="#8d4427"></rect>
  <rect x="3780" width="40" height="40" fill="#345468"></rect>
  <rect x="3840" width="40" height="40" fill="#2b4d6c"></rect>
  <rect x="3900" width="40" height="40" fill="#2a465a"></rect>
  <rect x="3960" width="40" height="40" fill="#473f15"></rect>
  <rect x="4020" width="40" height="40" fill="#633305"></rect>
  <rect x="4080" width="40" height="40" fill="#26434d"></rect>
  <rect x="4140" width="40" height="40" fill="#213d50"></rect>
  <rect x="4200" width="40" height="40" fill="#1e3850"></rect>
  <rect x="4260" width="40" height="40" fill="#442822"></rect>
  <rect x="4320" width="40" height="40" fill="#172e3f"></rect>
  <rect x="4380" width="40" height="40" fill="#0C141F"></rect>
</svg>